ply
format ascii 1.0
comment Created by Open3D
element vertex 112
property double x
property double y
property double z
element edge 168
property int vertex1
property int vertex2
property uchar red
property uchar green
property uchar blue
end_header
1.06657 -1.19789 1.81277
1.82193 -1.19789 1.81277
1.06657 -0.491929 1.81277
1.06657 -1.19789 2.63183
1.82193 -0.491929 2.63183
1.06657 -0.491929 2.63183
1.82193 -1.19789 2.63183
1.82193 -0.491929 1.81277
-0.721417 -1.00439 1.09617
1.34274 -1.00439 1.09617
-0.721417 -0.326733 1.09617
-0.721417 -1.00439 3.19119
1.34274 -0.326733 3.19119
-0.721417 -0.326733 3.19119
1.34274 -1.00439 3.19119
1.34274 -0.326733 1.09617
-1.7758 -1.00677 0.113774
-1.0005 -1.00677 0.113774
-1.7758 0.709978 0.113774
-1.7758 -1.00677 0.858718
-1.0005 0.709978 0.858718
-1.7758 0.709978 0.858718
-1.0005 -1.00677 0.858718
-1.0005 0.709978 0.113774
-1.42264 -1.16253 -0.672979
-0.0460092 -1.16253 -0.672979
-1.42264 -0.00486323 -0.672979
-1.42264 -1.16253 0.310023
-0.0460092 -0.00486323 0.310023
-1.42264 -0.00486323 0.310023
-0.0460092 -1.16253 0.310023
-0.0460092 -0.00486323 -0.672979
0.47293 -0.636981 -0.441744
1.1759 -0.636981 -0.441744
0.47293 0.696684 -0.441744
0.47293 -0.636981 0.253253
1.1759 0.696684 0.253253
0.47293 0.696684 0.253253
1.1759 -0.636981 0.253253
1.1759 0.696684 -0.441744
-1.1427 -1.26629 0.946206
-0.86887 -1.26629 0.946206
-1.1427 -0.562564 0.946206
-1.1427 -1.26629 1.33161
-0.86887 -0.562564 1.33161
-1.1427 -0.562564 1.33161
-0.86887 -1.26629 1.33161
-0.86887 -0.562564 0.946206
-0.780758 -1.21834 0.316677
-0.326694 -1.21834 0.316677
-0.780758 -0.167185 0.316677
-0.780758 -1.21834 0.865947
-0.326694 -0.167185 0.865947
-0.780758 -0.167185 0.865947
-0.326694 -1.21834 0.865947
-0.326694 -0.167185 0.316677
-0.897149 -0.463003 2.01399
-0.482826 -0.463003 2.01399
-0.897149 -0.0232384 2.01399
-0.897149 -0.463003 2.51096
-0.482826 -0.0232384 2.51096
-0.897149 -0.0232384 2.51096
-0.482826 -0.463003 2.51096
-0.482826 -0.0232384 2.01399
-0.982484 -1.14768 -0.00829906
-0.781728 -1.14768 -0.00829906
-0.982484 -0.999285 -0.00829906
-0.982484 -1.14768 0.12848
-0.781728 -0.999285 0.12848
-0.982484 -0.999285 0.12848
-0.781728 -1.14768 0.12848
-0.781728 -0.999285 -0.00829906
0.945568 0.597012 -0.159767
1.10602 0.597012 -0.159767
0.945568 0.735696 -0.159767
0.945568 0.597012 -0.0142801
1.10602 0.735696 -0.0142801
0.945568 0.735696 -0.0142801
1.10602 0.597012 -0.0142801
1.10602 0.735696 -0.159767
1.10388 -0.282251 -0.0483119
1.26234 -0.282251 -0.0483119
1.10388 -0.0653849 -0.0483119
1.10388 -0.282251 0.0918241
1.26234 -0.0653849 0.0918241
1.10388 -0.0653849 0.0918241
1.26234 -0.282251 0.0918241
1.26234 -0.0653849 -0.0483119
-1.18598 -1.27927 -0.151925
-0.961087 -1.27927 -0.151925
-1.18598 -1.14306 -0.151925
-1.18598 -1.27927 0.050749
-0.961087 -1.14306 0.050749
-1.18598 -1.14306 0.050749
-0.961087 -1.27927 0.050749
-0.961087 -1.14306 -0.151925
0.917556 0.690514 -0.388796
1.03879 0.690514 -0.388796
0.917556 0.800468 -0.388796
0.917556 0.690514 -0.228435
1.03879 0.800468 -0.228435
0.917556 0.800468 -0.228435
1.03879 0.690514 -0.228435
1.03879 0.800468 -0.388796
-0.114046 -1.08375 1.08176
0.11845 -1.08375 1.08176
-0.114046 -0.961007 1.08176
-0.114046 -1.08375 1.23056
0.11845 -0.961007 1.23056
-0.114046 -0.961007 1.23056
0.11845 -1.08375 1.23056
0.11845 -0.961007 1.08176
0 1 255 0 0
1 7 255 0 0
7 2 255 0 0
2 0 255 0 0
3 6 255 0 0
6 4 255 0 0
4 5 255 0 0
5 3 255 0 0
0 3 255 0 0
1 6 255 0 0
7 4 255 0 0
2 5 255 0 0
8 9 255 0 0
9 15 255 0 0
15 10 255 0 0
10 8 255 0 0
11 14 255 0 0
14 12 255 0 0
12 13 255 0 0
13 11 255 0 0
8 11 255 0 0
9 14 255 0 0
15 12 255 0 0
10 13 255 0 0
16 17 255 0 0
17 23 255 0 0
23 18 255 0 0
18 16 255 0 0
19 22 255 0 0
22 20 255 0 0
20 21 255 0 0
21 19 255 0 0
16 19 255 0 0
17 22 255 0 0
23 20 255 0 0
18 21 255 0 0
24 25 255 0 0
25 31 255 0 0
31 26 255 0 0
26 24 255 0 0
27 30 255 0 0
30 28 255 0 0
28 29 255 0 0
29 27 255 0 0
24 27 255 0 0
25 30 255 0 0
31 28 255 0 0
26 29 255 0 0
32 33 255 0 0
33 39 255 0 0
39 34 255 0 0
34 32 255 0 0
35 38 255 0 0
38 36 255 0 0
36 37 255 0 0
37 35 255 0 0
32 35 255 0 0
33 38 255 0 0
39 36 255 0 0
34 37 255 0 0
40 41 255 0 0
41 47 255 0 0
47 42 255 0 0
42 40 255 0 0
43 46 255 0 0
46 44 255 0 0
44 45 255 0 0
45 43 255 0 0
40 43 255 0 0
41 46 255 0 0
47 44 255 0 0
42 45 255 0 0
48 49 255 0 0
49 55 255 0 0
55 50 255 0 0
50 48 255 0 0
51 54 255 0 0
54 52 255 0 0
52 53 255 0 0
53 51 255 0 0
48 51 255 0 0
49 54 255 0 0
55 52 255 0 0
50 53 255 0 0
56 57 255 0 0
57 63 255 0 0
63 58 255 0 0
58 56 255 0 0
59 62 255 0 0
62 60 255 0 0
60 61 255 0 0
61 59 255 0 0
56 59 255 0 0
57 62 255 0 0
63 60 255 0 0
58 61 255 0 0
64 65 255 0 0
65 71 255 0 0
71 66 255 0 0
66 64 255 0 0
67 70 255 0 0
70 68 255 0 0
68 69 255 0 0
69 67 255 0 0
64 67 255 0 0
65 70 255 0 0
71 68 255 0 0
66 69 255 0 0
72 73 255 0 0
73 79 255 0 0
79 74 255 0 0
74 72 255 0 0
75 78 255 0 0
78 76 255 0 0
76 77 255 0 0
77 75 255 0 0
72 75 255 0 0
73 78 255 0 0
79 76 255 0 0
74 77 255 0 0
80 81 255 0 0
81 87 255 0 0
87 82 255 0 0
82 80 255 0 0
83 86 255 0 0
86 84 255 0 0
84 85 255 0 0
85 83 255 0 0
80 83 255 0 0
81 86 255 0 0
87 84 255 0 0
82 85 255 0 0
88 89 255 0 0
89 95 255 0 0
95 90 255 0 0
90 88 255 0 0
91 94 255 0 0
94 92 255 0 0
92 93 255 0 0
93 91 255 0 0
88 91 255 0 0
89 94 255 0 0
95 92 255 0 0
90 93 255 0 0
96 97 255 0 0
97 103 255 0 0
103 98 255 0 0
98 96 255 0 0
99 102 255 0 0
102 100 255 0 0
100 101 255 0 0
101 99 255 0 0
96 99 255 0 0
97 102 255 0 0
103 100 255 0 0
98 101 255 0 0
104 105 255 0 0
105 111 255 0 0
111 106 255 0 0
106 104 255 0 0
107 110 255 0 0
110 108 255 0 0
108 109 255 0 0
109 107 255 0 0
104 107 255 0 0
105 110 255 0 0
111 108 255 0 0
106 109 255 0 0
