ply
format ascii 1.0
comment Created by Open3D
element vertex 104
property double x
property double y
property double z
element edge 156
property int vertex1
property int vertex2
property uchar red
property uchar green
property uchar blue
end_header
-0.721417 -1.19789 1.08176
1.82193 -1.19789 1.08176
-0.721417 -0.326733 1.08176
-0.721417 -1.19789 3.19119
1.82193 -0.326733 3.19119
-0.721417 -0.326733 3.19119
1.82193 -1.19789 3.19119
1.82193 -0.326733 1.08176
-1.48755 -1.16584 -0.672979
-0.0165556 -1.16584 -0.672979
-1.48755 -0.00139662 -0.672979
-1.48755 -1.16584 0.333036
-0.0165556 -0.00139662 0.333036
-1.48755 -0.00139662 0.333036
-0.0165556 -1.16584 0.333036
-0.0165556 -0.00139662 -0.672979
-0.782921 -1.21834 0.233834
-0.307675 -1.21834 0.233834
-0.782921 -0.167185 0.233834
-0.782921 -1.21834 0.865947
-0.307675 -0.167185 0.865947
-0.782921 -0.167185 0.865947
-0.307675 -1.21834 0.865947
-0.307675 -0.167185 0.233834
-1.7758 -1.24417 0.113774
-0.997288 -1.24417 0.113774
-1.7758 0.709978 0.113774
-1.7758 -1.24417 0.943611
-0.997288 0.709978 0.943611
-1.7758 0.709978 0.943611
-0.997288 -1.24417 0.943611
-0.997288 0.709978 0.113774
0.452754 -0.656236 -0.449527
1.29204 -0.656236 -0.449527
0.452754 0.735696 -0.449527
0.452754 -0.656236 0.274693
1.29204 0.735696 0.274693
0.452754 0.735696 0.274693
1.29204 -0.656236 0.274693
1.29204 0.735696 -0.449527
0.503608 0.898867 -0.126828
0.705318 0.898867 -0.126828
0.503608 1.03364 -0.126828
0.503608 0.898867 0.0257205
0.705318 1.03364 0.0257205
0.503608 1.03364 0.0257205
0.705318 0.898867 0.0257205
0.705318 1.03364 -0.126828
-0.897149 -0.473451 2.01399
-0.482826 -0.473451 2.01399
-0.897149 0.0766193 2.01399
-0.897149 -0.473451 2.51096
-0.482826 0.0766193 2.51096
-0.897149 0.0766193 2.51096
-0.482826 -0.473451 2.51096
-0.482826 0.0766193 2.01399
-1.20413 -1.27065 0.937132
-0.86887 -1.27065 0.937132
-1.20413 -0.562564 0.937132
-1.20413 -1.27065 1.33248
-0.86887 -0.562564 1.33248
-1.20413 -0.562564 1.33248
-0.86887 -1.27065 1.33248
-0.86887 -0.562564 0.937132
0.845763 -0.280695 2.55413
1.07284 -0.280695 2.55413
0.845763 -0.0307234 2.55413
0.845763 -0.280695 2.77407
1.07284 -0.0307234 2.77407
0.845763 -0.0307234 2.77407
1.07284 -0.280695 2.77407
1.07284 -0.0307234 2.55413
-1.21037 -1.27927 -0.174598
-0.774574 -1.27927 -0.174598
-1.21037 -0.987809 -0.174598
-1.21037 -1.27927 0.174498
-0.774574 -0.987809 0.174498
-1.21037 -0.987809 0.174498
-0.774574 -1.27927 0.174498
-0.774574 -0.987809 -0.174598
-0.716368 -0.217903 0.393124
-0.5763 -0.217903 0.393124
-0.716368 -0.147213 0.393124
-0.716368 -0.217903 0.533389
-0.5763 -0.147213 0.533389
-0.716368 -0.147213 0.533389
-0.5763 -0.217903 0.533389
-0.5763 -0.147213 0.393124
0.917556 0.670939 -0.431898
1.03879 0.670939 -0.431898
0.917556 0.804436 -0.431898
0.917556 0.670939 -0.226348
1.03879 0.804436 -0.226348
0.917556 0.804436 -0.226348
1.03879 0.670939 -0.226348
1.03879 0.804436 -0.431898
1.19971 -0.344941 2.43089
1.31206 -0.344941 2.43089
1.19971 -0.150553 2.43089
1.19971 -0.344941 2.5639
1.31206 -0.150553 2.5639
1.19971 -0.150553 2.5639
1.31206 -0.344941 2.5639
1.31206 -0.150553 2.43089
0 1 255 0 0
1 7 255 0 0
7 2 255 0 0
2 0 255 0 0
3 6 255 0 0
6 4 255 0 0
4 5 255 0 0
5 3 255 0 0
0 3 255 0 0
1 6 255 0 0
7 4 255 0 0
2 5 255 0 0
8 9 255 0 0
9 15 255 0 0
15 10 255 0 0
10 8 255 0 0
11 14 255 0 0
14 12 255 0 0
12 13 255 0 0
13 11 255 0 0
8 11 255 0 0
9 14 255 0 0
15 12 255 0 0
10 13 255 0 0
16 17 255 0 0
17 23 255 0 0
23 18 255 0 0
18 16 255 0 0
19 22 255 0 0
22 20 255 0 0
20 21 255 0 0
21 19 255 0 0
16 19 255 0 0
17 22 255 0 0
23 20 255 0 0
18 21 255 0 0
24 25 255 0 0
25 31 255 0 0
31 26 255 0 0
26 24 255 0 0
27 30 255 0 0
30 28 255 0 0
28 29 255 0 0
29 27 255 0 0
24 27 255 0 0
25 30 255 0 0
31 28 255 0 0
26 29 255 0 0
32 33 255 0 0
33 39 255 0 0
39 34 255 0 0
34 32 255 0 0
35 38 255 0 0
38 36 255 0 0
36 37 255 0 0
37 35 255 0 0
32 35 255 0 0
33 38 255 0 0
39 36 255 0 0
34 37 255 0 0
40 41 255 0 0
41 47 255 0 0
47 42 255 0 0
42 40 255 0 0
43 46 255 0 0
46 44 255 0 0
44 45 255 0 0
45 43 255 0 0
40 43 255 0 0
41 46 255 0 0
47 44 255 0 0
42 45 255 0 0
48 49 255 0 0
49 55 255 0 0
55 50 255 0 0
50 48 255 0 0
51 54 255 0 0
54 52 255 0 0
52 53 255 0 0
53 51 255 0 0
48 51 255 0 0
49 54 255 0 0
55 52 255 0 0
50 53 255 0 0
56 57 255 0 0
57 63 255 0 0
63 58 255 0 0
58 56 255 0 0
59 62 255 0 0
62 60 255 0 0
60 61 255 0 0
61 59 255 0 0
56 59 255 0 0
57 62 255 0 0
63 60 255 0 0
58 61 255 0 0
64 65 255 0 0
65 71 255 0 0
71 66 255 0 0
66 64 255 0 0
67 70 255 0 0
70 68 255 0 0
68 69 255 0 0
69 67 255 0 0
64 67 255 0 0
65 70 255 0 0
71 68 255 0 0
66 69 255 0 0
72 73 255 0 0
73 79 255 0 0
79 74 255 0 0
74 72 255 0 0
75 78 255 0 0
78 76 255 0 0
76 77 255 0 0
77 75 255 0 0
72 75 255 0 0
73 78 255 0 0
79 76 255 0 0
74 77 255 0 0
80 81 255 0 0
81 87 255 0 0
87 82 255 0 0
82 80 255 0 0
83 86 255 0 0
86 84 255 0 0
84 85 255 0 0
85 83 255 0 0
80 83 255 0 0
81 86 255 0 0
87 84 255 0 0
82 85 255 0 0
88 89 255 0 0
89 95 255 0 0
95 90 255 0 0
90 88 255 0 0
91 94 255 0 0
94 92 255 0 0
92 93 255 0 0
93 91 255 0 0
88 91 255 0 0
89 94 255 0 0
95 92 255 0 0
90 93 255 0 0
96 97 255 0 0
97 103 255 0 0
103 98 255 0 0
98 96 255 0 0
99 102 255 0 0
102 100 255 0 0
100 101 255 0 0
101 99 255 0 0
96 99 255 0 0
97 102 255 0 0
103 100 255 0 0
98 101 255 0 0
