ply
format ascii 1.0
comment Created by Open3D
element vertex 88
property double x
property double y
property double z
element edge 132
property int vertex1
property int vertex2
property uchar red
property uchar green
property uchar blue
end_header
1.08447 -1.12216 1.81321
1.8002 -1.12216 1.81321
1.08447 -0.491929 1.81321
1.08447 -1.12216 2.62494
1.8002 -0.491929 2.62494
1.08447 -0.491929 2.62494
1.8002 -1.12216 2.62494
1.8002 -0.491929 1.81321
-0.701653 -0.977615 1.21267
1.32677 -0.977615 1.21267
-0.701653 -0.326733 1.21267
-0.701653 -0.977615 3.18663
1.32677 -0.326733 3.18663
-0.701653 -0.326733 3.18663
1.32677 -0.977615 3.18663
1.32677 -0.326733 1.21267
-1.76522 -0.92254 0.131588
-1.02224 -0.92254 0.131588
-1.76522 0.696659 0.131588
-1.76522 -0.92254 0.856923
-1.02224 0.696659 0.856923
-1.76522 0.696659 0.856923
-1.02224 -0.92254 0.856923
-1.02224 0.696659 0.131588
-1.40439 -1.14622 -0.659287
-0.0533901 -1.14622 -0.659287
-1.40439 -0.0191297 -0.659287
-1.40439 -1.14622 0.295856
-0.0533901 -0.0191297 0.295856
-1.40439 -0.0191297 0.295856
-0.0533901 -1.14622 0.295856
-0.0533901 -0.0191297 -0.659287
0.478681 -0.636981 -0.43445
1.1759 -0.636981 -0.43445
0.478681 0.676625 -0.43445
0.478681 -0.636981 0.242892
1.1759 0.676625 0.242892
0.478681 0.676625 0.242892
1.1759 -0.636981 0.242892
1.1759 0.676625 -0.43445
-1.12461 -1.24315 0.958112
-0.86887 -1.24315 0.958112
-1.12461 -0.580983 0.958112
-1.12461 -1.24315 1.31557
-0.86887 -0.580983 1.31557
-1.12461 -0.580983 1.31557
-0.86887 -1.24315 1.31557
-0.86887 -0.580983 0.958112
-0.761704 -1.02401 0.316815
-0.348128 -1.02401 0.316815
-0.761704 -0.208949 0.316815
-0.761704 -1.02401 0.852943
-0.348128 -0.208949 0.852943
-0.761704 -0.208949 0.852943
-0.348128 -1.02401 0.852943
-0.348128 -0.208949 0.316815
-0.897015 -0.451745 2.03544
-0.502991 -0.451745 2.03544
-0.897015 -0.0232384 2.03544
-0.897015 -0.451745 2.50476
-0.502991 -0.0232384 2.50476
-0.897015 -0.0232384 2.50476
-0.502991 -0.451745 2.50476
-0.502991 -0.0232384 2.03544
0.946449 0.597012 -0.139632
1.10052 0.597012 -0.139632
0.946449 0.723324 -0.139632
0.946449 0.597012 -0.0156763
1.10052 0.723324 -0.0156763
0.946449 0.723324 -0.0156763
1.10052 0.597012 -0.0156763
1.10052 0.723324 -0.139632
-1.17348 -1.27927 -0.145793
-0.979445 -1.27927 -0.145793
-1.17348 -1.16275 -0.145793
-1.17348 -1.27927 0.00498288
-0.979445 -1.16275 0.00498288
-1.17348 -1.16275 0.00498288
-0.979445 -1.27927 0.00498288
-0.979445 -1.16275 -0.145793
1.10388 -0.282251 -0.0483119
1.25334 -0.282251 -0.0483119
1.10388 -0.11102 -0.0483119
1.10388 -0.282251 0.0764574
1.25334 -0.11102 0.0764574
1.10388 -0.11102 0.0764574
1.25334 -0.282251 0.0764574
1.25334 -0.11102 -0.0483119
0 1 255 0 0
1 7 255 0 0
7 2 255 0 0
2 0 255 0 0
3 6 255 0 0
6 4 255 0 0
4 5 255 0 0
5 3 255 0 0
0 3 255 0 0
1 6 255 0 0
7 4 255 0 0
2 5 255 0 0
8 9 255 0 0
9 15 255 0 0
15 10 255 0 0
10 8 255 0 0
11 14 255 0 0
14 12 255 0 0
12 13 255 0 0
13 11 255 0 0
8 11 255 0 0
9 14 255 0 0
15 12 255 0 0
10 13 255 0 0
16 17 255 0 0
17 23 255 0 0
23 18 255 0 0
18 16 255 0 0
19 22 255 0 0
22 20 255 0 0
20 21 255 0 0
21 19 255 0 0
16 19 255 0 0
17 22 255 0 0
23 20 255 0 0
18 21 255 0 0
24 25 255 0 0
25 31 255 0 0
31 26 255 0 0
26 24 255 0 0
27 30 255 0 0
30 28 255 0 0
28 29 255 0 0
29 27 255 0 0
24 27 255 0 0
25 30 255 0 0
31 28 255 0 0
26 29 255 0 0
32 33 255 0 0
33 39 255 0 0
39 34 255 0 0
34 32 255 0 0
35 38 255 0 0
38 36 255 0 0
36 37 255 0 0
37 35 255 0 0
32 35 255 0 0
33 38 255 0 0
39 36 255 0 0
34 37 255 0 0
40 41 255 0 0
41 47 255 0 0
47 42 255 0 0
42 40 255 0 0
43 46 255 0 0
46 44 255 0 0
44 45 255 0 0
45 43 255 0 0
40 43 255 0 0
41 46 255 0 0
47 44 255 0 0
42 45 255 0 0
48 49 255 0 0
49 55 255 0 0
55 50 255 0 0
50 48 255 0 0
51 54 255 0 0
54 52 255 0 0
52 53 255 0 0
53 51 255 0 0
48 51 255 0 0
49 54 255 0 0
55 52 255 0 0
50 53 255 0 0
56 57 255 0 0
57 63 255 0 0
63 58 255 0 0
58 56 255 0 0
59 62 255 0 0
62 60 255 0 0
60 61 255 0 0
61 59 255 0 0
56 59 255 0 0
57 62 255 0 0
63 60 255 0 0
58 61 255 0 0
64 65 255 0 0
65 71 255 0 0
71 66 255 0 0
66 64 255 0 0
67 70 255 0 0
70 68 255 0 0
68 69 255 0 0
69 67 255 0 0
64 67 255 0 0
65 70 255 0 0
71 68 255 0 0
66 69 255 0 0
72 73 255 0 0
73 79 255 0 0
79 74 255 0 0
74 72 255 0 0
75 78 255 0 0
78 76 255 0 0
76 77 255 0 0
77 75 255 0 0
72 75 255 0 0
73 78 255 0 0
79 76 255 0 0
74 77 255 0 0
80 81 255 0 0
81 87 255 0 0
87 82 255 0 0
82 80 255 0 0
83 86 255 0 0
86 84 255 0 0
84 85 255 0 0
85 83 255 0 0
80 83 255 0 0
81 86 255 0 0
87 84 255 0 0
82 85 255 0 0
