ply
format ascii 1.0
comment Created by Open3D
element vertex 168
property double x
property double y
property double z
element edge 252
property int vertex1
property int vertex2
property uchar red
property uchar green
property uchar blue
end_header
1.06282 -1.2499 1.81277
1.8002 -1.2499 1.81277
1.06282 -0.491929 1.81277
1.06282 -1.2499 2.63183
1.8002 -0.491929 2.63183
1.06282 -0.491929 2.63183
1.8002 -1.2499 2.63183
1.8002 -0.491929 1.81277
-0.721417 -1.02835 1.09617
1.33928 -1.02835 1.09617
-0.721417 -0.326733 1.09617
-0.721417 -1.02835 3.19119
1.33928 -0.326733 3.19119
-0.721417 -0.326733 3.19119
1.33928 -1.02835 3.19119
1.33928 -0.326733 1.09617
-1.79726 -1.00677 0.115518
-0.958733 -1.00677 0.115518
-1.79726 0.709978 0.115518
-1.79726 -1.00677 0.858718
-0.958733 0.709978 0.858718
-1.79726 0.709978 0.858718
-0.958733 -1.00677 0.858718
-0.958733 0.709978 0.115518
-1.41956 -1.18249 -0.678845
-0.0460092 -1.18249 -0.678845
-1.41956 -0.0030828 -0.678845
-1.41956 -1.18249 0.310023
-0.0460092 -0.0030828 0.310023
-1.41956 -0.0030828 0.310023
-0.0460092 -1.18249 0.310023
-0.0460092 -0.0030828 -0.678845
0.47293 -0.636981 -0.438078
1.18208 -0.636981 -0.438078
0.47293 0.718071 -0.438078
0.47293 -0.636981 0.251328
1.18208 0.718071 0.251328
0.47293 0.718071 0.251328
1.18208 -0.636981 0.251328
1.18208 0.718071 -0.438078
-1.14205 -1.26599 0.946206
-0.868315 -1.26599 0.946206
-1.14205 -0.54725 0.946206
-1.14205 -1.26599 1.33103
-0.868315 -0.54725 1.33103
-1.14205 -0.54725 1.33103
-0.868315 -1.26599 1.33103
-0.868315 -0.54725 0.946206
-0.834226 -1.24499 0.314988
-0.326694 -1.24499 0.314988
-0.834226 -0.149845 0.314988
-0.834226 -1.24499 0.869944
-0.326694 -0.149845 0.869944
-0.834226 -0.149845 0.869944
-0.326694 -1.24499 0.869944
-0.326694 -0.149845 0.314988
-0.897149 -0.456216 2.01242
-0.501148 -0.456216 2.01242
-0.897149 -0.0253132 2.01242
-0.897149 -0.456216 2.51096
-0.501148 -0.0253132 2.51096
-0.897149 -0.0253132 2.51096
-0.501148 -0.456216 2.51096
-0.501148 -0.0253132 2.01242
0.500416 0.913582 -0.129632
0.687016 0.913582 -0.129632
0.500416 1.03443 -0.129632
0.500416 0.913582 0.029675
0.687016 1.03443 0.029675
0.500416 1.03443 0.029675
0.687016 0.913582 0.029675
0.687016 1.03443 -0.129632
0.845763 -0.260104 2.55413
1.07284 -0.260104 2.55413
0.845763 -0.0263908 2.55413
0.845763 -0.260104 2.79049
1.07284 -0.0263908 2.79049
0.845763 -0.0263908 2.79049
1.07284 -0.260104 2.79049
1.07284 -0.0263908 2.55413
-1.01607 -1.14178 -0.00794595
-0.770471 -1.14178 -0.00794595
-1.01607 -0.999285 -0.00794595
-1.01607 -1.14178 0.146567
-0.770471 -0.999285 0.146567
-1.01607 -0.999285 0.146567
-0.770471 -1.14178 0.146567
-0.770471 -0.999285 -0.00794595
0.946449 0.597012 -0.159767
1.15572 0.597012 -0.159767
0.946449 0.730599 -0.159767
0.946449 0.597012 -0.0142801
1.15572 0.730599 -0.0142801
0.946449 0.730599 -0.0142801
1.15572 0.597012 -0.0142801
1.15572 0.730599 -0.159767
-0.144828 -1.1419 1.08176
0.180687 -1.1419 1.08176
-0.144828 -0.961007 1.08176
-0.144828 -1.1419 1.25255
0.180687 -0.961007 1.25255
-0.144828 -0.961007 1.25255
0.180687 -1.1419 1.25255
0.180687 -0.961007 1.08176
-0.775004 -0.222703 0.376774
-0.562594 -0.222703 0.376774
-0.775004 -0.148097 0.376774
-0.775004 -0.222703 0.552508
-0.562594 -0.148097 0.552508
-0.775004 -0.148097 0.552508
-0.562594 -0.222703 0.552508
-0.562594 -0.148097 0.376774
1.10388 -0.282251 -0.0483119
1.27457 -0.282251 -0.0483119
1.10388 -0.0653849 -0.0483119
1.10388 -0.282251 0.0918241
1.27457 -0.0653849 0.0918241
1.10388 -0.0653849 0.0918241
1.27457 -0.282251 0.0918241
1.27457 -0.0653849 -0.0483119
-0.603229 -1.08086 0.206469
-0.508053 -1.08086 0.206469
-0.603229 -0.861908 0.206469
-0.603229 -1.08086 0.310622
-0.508053 -0.861908 0.310622
-0.603229 -0.861908 0.310622
-0.508053 -1.08086 0.310622
-0.508053 -0.861908 0.206469
-1.19355 -1.27927 -0.211121
-0.959091 -1.27927 -0.211121
-1.19355 -1.14306 -0.211121
-1.19355 -1.27927 0.050749
-0.959091 -1.14306 0.050749
-1.19355 -1.14306 0.050749
-0.959091 -1.27927 0.050749
-0.959091 -1.14306 -0.211121
-1.15775 -1.22659 0.776186
-1.04865 -1.22659 0.776186
-1.15775 -1.06339 0.776186
-1.15775 -1.22659 0.912098
-1.04865 -1.06339 0.912098
-1.15775 -1.06339 0.912098
-1.04865 -1.22659 0.912098
-1.04865 -1.06339 0.776186
1.18515 -1.24818 2.03675
1.29521 -1.24818 2.03675
1.18515 -0.987701 2.03675
1.18515 -1.24818 2.12811
1.29521 -0.987701 2.12811
1.18515 -0.987701 2.12811
1.29521 -1.24818 2.12811
1.29521 -0.987701 2.03675
-0.473462 -1.12078 0.458964
-0.31992 -1.12078 0.458964
-0.473462 -0.944775 0.458964
-0.473462 -1.12078 0.624047
-0.31992 -0.944775 0.624047
-0.473462 -0.944775 0.624047
-0.31992 -1.12078 0.624047
-0.31992 -0.944775 0.458964
1.16342 -0.284476 2.39615
1.32215 -0.284476 2.39615
1.16342 -0.146497 2.39615
1.16342 -0.284476 2.56993
1.32215 -0.146497 2.56993
1.16342 -0.146497 2.56993
1.32215 -0.284476 2.56993
1.32215 -0.146497 2.39615
0 1 255 0 0
1 7 255 0 0
7 2 255 0 0
2 0 255 0 0
3 6 255 0 0
6 4 255 0 0
4 5 255 0 0
5 3 255 0 0
0 3 255 0 0
1 6 255 0 0
7 4 255 0 0
2 5 255 0 0
8 9 255 0 0
9 15 255 0 0
15 10 255 0 0
10 8 255 0 0
11 14 255 0 0
14 12 255 0 0
12 13 255 0 0
13 11 255 0 0
8 11 255 0 0
9 14 255 0 0
15 12 255 0 0
10 13 255 0 0
16 17 255 0 0
17 23 255 0 0
23 18 255 0 0
18 16 255 0 0
19 22 255 0 0
22 20 255 0 0
20 21 255 0 0
21 19 255 0 0
16 19 255 0 0
17 22 255 0 0
23 20 255 0 0
18 21 255 0 0
24 25 255 0 0
25 31 255 0 0
31 26 255 0 0
26 24 255 0 0
27 30 255 0 0
30 28 255 0 0
28 29 255 0 0
29 27 255 0 0
24 27 255 0 0
25 30 255 0 0
31 28 255 0 0
26 29 255 0 0
32 33 255 0 0
33 39 255 0 0
39 34 255 0 0
34 32 255 0 0
35 38 255 0 0
38 36 255 0 0
36 37 255 0 0
37 35 255 0 0
32 35 255 0 0
33 38 255 0 0
39 36 255 0 0
34 37 255 0 0
40 41 255 0 0
41 47 255 0 0
47 42 255 0 0
42 40 255 0 0
43 46 255 0 0
46 44 255 0 0
44 45 255 0 0
45 43 255 0 0
40 43 255 0 0
41 46 255 0 0
47 44 255 0 0
42 45 255 0 0
48 49 255 0 0
49 55 255 0 0
55 50 255 0 0
50 48 255 0 0
51 54 255 0 0
54 52 255 0 0
52 53 255 0 0
53 51 255 0 0
48 51 255 0 0
49 54 255 0 0
55 52 255 0 0
50 53 255 0 0
56 57 255 0 0
57 63 255 0 0
63 58 255 0 0
58 56 255 0 0
59 62 255 0 0
62 60 255 0 0
60 61 255 0 0
61 59 255 0 0
56 59 255 0 0
57 62 255 0 0
63 60 255 0 0
58 61 255 0 0
64 65 255 0 0
65 71 255 0 0
71 66 255 0 0
66 64 255 0 0
67 70 255 0 0
70 68 255 0 0
68 69 255 0 0
69 67 255 0 0
64 67 255 0 0
65 70 255 0 0
71 68 255 0 0
66 69 255 0 0
72 73 255 0 0
73 79 255 0 0
79 74 255 0 0
74 72 255 0 0
75 78 255 0 0
78 76 255 0 0
76 77 255 0 0
77 75 255 0 0
72 75 255 0 0
73 78 255 0 0
79 76 255 0 0
74 77 255 0 0
80 81 255 0 0
81 87 255 0 0
87 82 255 0 0
82 80 255 0 0
83 86 255 0 0
86 84 255 0 0
84 85 255 0 0
85 83 255 0 0
80 83 255 0 0
81 86 255 0 0
87 84 255 0 0
82 85 255 0 0
88 89 255 0 0
89 95 255 0 0
95 90 255 0 0
90 88 255 0 0
91 94 255 0 0
94 92 255 0 0
92 93 255 0 0
93 91 255 0 0
88 91 255 0 0
89 94 255 0 0
95 92 255 0 0
90 93 255 0 0
96 97 255 0 0
97 103 255 0 0
103 98 255 0 0
98 96 255 0 0
99 102 255 0 0
102 100 255 0 0
100 101 255 0 0
101 99 255 0 0
96 99 255 0 0
97 102 255 0 0
103 100 255 0 0
98 101 255 0 0
104 105 255 0 0
105 111 255 0 0
111 106 255 0 0
106 104 255 0 0
107 110 255 0 0
110 108 255 0 0
108 109 255 0 0
109 107 255 0 0
104 107 255 0 0
105 110 255 0 0
111 108 255 0 0
106 109 255 0 0
112 113 255 0 0
113 119 255 0 0
119 114 255 0 0
114 112 255 0 0
115 118 255 0 0
118 116 255 0 0
116 117 255 0 0
117 115 255 0 0
112 115 255 0 0
113 118 255 0 0
119 116 255 0 0
114 117 255 0 0
120 121 255 0 0
121 127 255 0 0
127 122 255 0 0
122 120 255 0 0
123 126 255 0 0
126 124 255 0 0
124 125 255 0 0
125 123 255 0 0
120 123 255 0 0
121 126 255 0 0
127 124 255 0 0
122 125 255 0 0
128 129 255 0 0
129 135 255 0 0
135 130 255 0 0
130 128 255 0 0
131 134 255 0 0
134 132 255 0 0
132 133 255 0 0
133 131 255 0 0
128 131 255 0 0
129 134 255 0 0
135 132 255 0 0
130 133 255 0 0
136 137 255 0 0
137 143 255 0 0
143 138 255 0 0
138 136 255 0 0
139 142 255 0 0
142 140 255 0 0
140 141 255 0 0
141 139 255 0 0
136 139 255 0 0
137 142 255 0 0
143 140 255 0 0
138 141 255 0 0
144 145 255 0 0
145 151 255 0 0
151 146 255 0 0
146 144 255 0 0
147 150 255 0 0
150 148 255 0 0
148 149 255 0 0
149 147 255 0 0
144 147 255 0 0
145 150 255 0 0
151 148 255 0 0
146 149 255 0 0
152 153 255 0 0
153 159 255 0 0
159 154 255 0 0
154 152 255 0 0
155 158 255 0 0
158 156 255 0 0
156 157 255 0 0
157 155 255 0 0
152 155 255 0 0
153 158 255 0 0
159 156 255 0 0
154 157 255 0 0
160 161 255 0 0
161 167 255 0 0
167 162 255 0 0
162 160 255 0 0
163 166 255 0 0
166 164 255 0 0
164 165 255 0 0
165 163 255 0 0
160 163 255 0 0
161 166 255 0 0
167 164 255 0 0
162 165 255 0 0
