ply
format ascii 1.0
comment Created by Open3D
element vertex 416
property double x
property double y
property double z
element edge 624
property int vertex1
property int vertex2
property uchar red
property uchar green
property uchar blue
end_header
-0.481285 -1.20772 -3.93413
3.90699 -1.20772 -3.93413
-0.481285 -0.255792 -3.93413
-0.481285 -1.20772 0.20636
3.90699 -0.255792 0.20636
-0.481285 -0.255792 0.20636
3.90699 -1.20772 0.20636
3.90699 -0.255792 -3.93413
-1.26294 -1.16558 -6.53012
2.01343 -1.16558 -6.53012
-1.26294 -0.0246611 -6.53012
-1.26294 -1.16558 -3.94729
2.01343 -0.0246611 -3.94729
-1.26294 -0.0246611 -3.94729
2.01343 -1.16558 -3.94729
2.01343 -0.0246611 -6.53012
2.12311 -1.18764 -4.65488
5.33884 -1.18764 -4.65488
2.12311 -0.288984 -4.65488
2.12311 -1.18764 -2.1585
5.33884 -0.288984 -2.1585
2.12311 -0.288984 -2.1585
5.33884 -1.18764 -2.1585
5.33884 -0.288984 -4.65488
1.65618 -1.16855 -7.56038
5.82056 -1.16855 -7.56038
1.65618 -0.184788 -7.56038
1.65618 -1.16855 -4.56789
5.82056 -0.184788 -4.56789
1.65618 -0.184788 -4.56789
5.82056 -1.16855 -4.56789
5.82056 -0.184788 -7.56038
-2.36318 -1.11501 -5.96322
-0.861918 -1.11501 -5.96322
-2.36318 1.25206 -5.96322
-2.36318 -1.11501 -4.64187
-0.861918 1.25206 -4.64187
-2.36318 1.25206 -4.64187
-0.861918 -1.11501 -4.64187
-0.861918 1.25206 -5.96322
5.01941 -0.669073 -2.1992
5.89819 -0.669073 -2.1992
5.01941 -0.262863 -2.1992
5.01941 -0.669073 -1.03486
5.89819 -0.262863 -1.03486
5.01941 -0.262863 -1.03486
5.89819 -0.669073 -1.03486
5.89819 -0.262863 -2.1992
6.63641 1.03834 -1.021
7.05165 1.03834 -1.021
6.63641 1.54371 -1.021
6.63641 1.03834 -0.806118
7.05165 1.54371 -0.806118
6.63641 1.54371 -0.806118
7.05165 1.03834 -0.806118
7.05165 1.54371 -1.021
4.0819 -0.650867 -1.43901
4.74654 -0.650867 -1.43901
4.0819 -0.327 -1.43901
4.0819 -0.650867 -0.817608
4.74654 -0.327 -0.817608
4.0819 -0.327 -0.817608
4.74654 -0.650867 -0.817608
4.74654 -0.327 -1.43901
-0.357512 1.31535 -3.23206
0.120583 1.31535 -3.23206
-0.357512 1.46518 -3.23206
-0.357512 1.31535 -2.81746
0.120583 1.46518 -2.81746
-0.357512 1.46518 -2.81746
0.120583 1.31535 -2.81746
0.120583 1.46518 -3.23206
0.407159 -1.22214 -5.08417
0.58014 -1.22214 -5.08417
0.407159 -1.09037 -5.08417
0.407159 -1.22214 -4.95729
0.58014 -1.09037 -4.95729
0.407159 -1.09037 -4.95729
0.58014 -1.22214 -4.95729
0.58014 -1.09037 -5.08417
-0.298682 -0.407738 -6.30971
0.317689 -0.407738 -6.30971
-0.298682 0.973196 -6.30971
-0.298682 -0.407738 -6.0703
0.317689 0.973196 -6.0703
-0.298682 0.973196 -6.0703
0.317689 -0.407738 -6.0703
0.317689 0.973196 -6.30971
1.25883 -0.624687 -6.65969
1.75964 -0.624687 -6.65969
1.25883 0.153535 -6.65969
1.25883 -0.624687 -6.42882
1.75964 0.153535 -6.42882
1.25883 0.153535 -6.42882
1.75964 -0.624687 -6.42882
1.75964 0.153535 -6.65969
1.83614 0.147528 -7.04272
2.21548 0.147528 -7.04272
1.83614 0.650674 -7.04272
1.83614 0.147528 -6.90499
2.21548 0.650674 -6.90499
1.83614 0.650674 -6.90499
2.21548 0.147528 -6.90499
2.21548 0.650674 -7.04272
-0.904987 1.2696 -6.00007
-0.614954 1.2696 -6.00007
-0.904987 1.64971 -6.00007
-0.904987 1.2696 -5.39528
-0.614954 1.64971 -5.39528
-0.904987 1.64971 -5.39528
-0.614954 1.2696 -5.39528
-0.614954 1.64971 -6.00007
1.19889 -0.331329 -6.63558
1.593 -0.331329 -6.63558
1.19889 0.334512 -6.63558
1.19889 -0.331329 -6.47939
1.593 0.334512 -6.47939
1.19889 0.334512 -6.47939
1.593 -0.331329 -6.47939
1.593 0.334512 -6.63558
2.17262 -0.249459 -7.07685
2.42043 -0.249459 -7.07685
2.17262 0.753151 -7.07685
2.17262 -0.249459 -6.88087
2.42043 0.753151 -6.88087
2.17262 0.753151 -6.88087
2.42043 -0.249459 -6.88087
2.42043 0.753151 -7.07685
2.72049 -0.866513 -0.379161
2.82465 -0.866513 -0.379161
2.72049 -0.768507 -0.379161
2.72049 -0.866513 -0.238521
2.82465 -0.768507 -0.238521
2.72049 -0.768507 -0.238521
2.82465 -0.866513 -0.238521
2.82465 -0.768507 -0.379161
-1.16073 -0.988139 -0.422945
-0.984631 -0.988139 -0.422945
-1.16073 -0.77588 -0.422945
-1.16073 -0.988139 -0.22464
-0.984631 -0.77588 -0.22464
-1.16073 -0.77588 -0.22464
-0.984631 -0.988139 -0.22464
-0.984631 -0.77588 -0.422945
2.40774 1.23566 -2.33461
2.97229 1.23566 -2.33461
2.40774 1.37664 -2.33461
2.40774 1.23566 -1.97669
2.97229 1.37664 -1.97669
2.40774 1.37664 -1.97669
2.97229 1.23566 -1.97669
2.97229 1.37664 -2.33461
3.98296 1.33081 -3.62337
4.81236 1.33081 -3.62337
3.98296 1.39 -3.62337
3.98296 1.33081 -3.28166
4.81236 1.39 -3.28166
3.98296 1.39 -3.28166
4.81236 1.33081 -3.28166
4.81236 1.39 -3.62337
1.73233 0.87804 -6.04235
2.06094 0.87804 -6.04235
1.73233 1.26042 -6.04235
1.73233 0.87804 -5.52441
2.06094 1.26042 -5.52441
1.73233 1.26042 -5.52441
2.06094 0.87804 -5.52441
2.06094 1.26042 -6.04235
-2.34482 -0.591479 -4.81261
-1.9959 -0.591479 -4.81261
-2.34482 -0.17582 -4.81261
-2.34482 -0.591479 -3.85849
-1.9959 -0.17582 -3.85849
-2.34482 -0.17582 -3.85849
-1.9959 -0.591479 -3.85849
-1.9959 -0.17582 -4.81261
1.69846 0.572208 -6.52105
1.99189 0.572208 -6.52105
1.69846 0.8826 -6.52105
1.69846 0.572208 -6.21961
1.99189 0.8826 -6.21961
1.69846 0.8826 -6.21961
1.99189 0.572208 -6.21961
1.99189 0.8826 -6.52105
1.43126 0.538577 -6.68231
1.72071 0.538577 -6.68231
1.43126 1.13042 -6.68231
1.43126 0.538577 -6.54654
1.72071 1.13042 -6.54654
1.43126 1.13042 -6.54654
1.72071 0.538577 -6.54654
1.72071 1.13042 -6.68231
2.81738 -1.32644 -0.816016
2.95973 -1.32644 -0.816016
2.81738 -1.23099 -0.816016
2.81738 -1.32644 -0.573124
2.95973 -1.23099 -0.573124
2.81738 -1.23099 -0.573124
2.95973 -1.32644 -0.573124
2.95973 -1.23099 -0.816016
4.84069 1.26643 -3.39558
5.19969 1.26643 -3.39558
4.84069 1.37069 -3.39558
4.84069 1.26643 -2.8963
5.19969 1.37069 -2.8963
4.84069 1.37069 -2.8963
5.19969 1.26643 -2.8963
5.19969 1.37069 -3.39558
3.59198 -1.16517 -3.87832
3.7512 -1.16517 -3.87832
3.59198 -0.974308 -3.87832
3.59198 -1.16517 -3.63694
3.7512 -0.974308 -3.63694
3.59198 -0.974308 -3.63694
3.7512 -1.16517 -3.63694
3.7512 -0.974308 -3.87832
1.55827 -0.933621 0.0205794
1.67916 -0.933621 0.0205794
1.55827 -0.813147 0.0205794
1.55827 -0.933621 0.194808
1.67916 -0.813147 0.194808
1.55827 -0.813147 0.194808
1.67916 -0.933621 0.194808
1.67916 -0.813147 0.0205794
2.20084 -0.0141574 -6.95792
2.39845 -0.0141574 -6.95792
2.20084 0.234914 -6.95792
2.20084 -0.0141574 -6.86368
2.39845 0.234914 -6.86368
2.20084 0.234914 -6.86368
2.39845 -0.0141574 -6.86368
2.39845 0.234914 -6.95792
-1.54792 0.610731 -1.80395
-1.3005 0.610731 -1.80395
-1.54792 1.01911 -1.80395
-1.54792 0.610731 -1.18333
-1.3005 1.01911 -1.18333
-1.54792 1.01911 -1.18333
-1.3005 0.610731 -1.18333
-1.3005 1.01911 -1.80395
2.23527 1.21341 -2.54225
2.49477 1.21341 -2.54225
2.23527 1.32638 -2.54225
2.23527 1.21341 -2.21474
2.49477 1.32638 -2.21474
2.23527 1.32638 -2.21474
2.49477 1.21341 -2.21474
2.49477 1.32638 -2.54225
1.75393 1.60628 -0.474494
2.17904 1.60628 -0.474494
1.75393 1.65066 -0.474494
1.75393 1.60628 -0.286128
2.17904 1.65066 -0.286128
1.75393 1.65066 -0.286128
2.17904 1.60628 -0.286128
2.17904 1.65066 -0.474494
-1.96394 -0.352332 -3.635
-1.80185 -0.352332 -3.635
-1.96394 -0.247201 -3.635
-1.96394 -0.352332 -3.23635
-1.80185 -0.247201 -3.23635
-1.96394 -0.247201 -3.23635
-1.80185 -0.352332 -3.23635
-1.80185 -0.247201 -3.635
6.45716 -1.10311 -1.33411
6.61827 -1.10311 -1.33411
6.45716 -0.983377 -1.33411
6.45716 -1.10311 -1.21924
6.61827 -0.983377 -1.21924
6.45716 -0.983377 -1.21924
6.61827 -1.10311 -1.21924
6.61827 -0.983377 -1.33411
-1.90475 -0.515367 -4.9153
-1.80689 -0.515367 -4.9153
-1.90475 -0.328273 -4.9153
-1.90475 -0.515367 -4.78094
-1.80689 -0.328273 -4.78094
-1.90475 -0.328273 -4.78094
-1.80689 -0.515367 -4.78094
-1.80689 -0.328273 -4.9153
2.39298 -0.87197 -3.74301
2.54887 -0.87197 -3.74301
2.39298 -0.778958 -3.74301
2.39298 -0.87197 -3.55585
2.54887 -0.778958 -3.55585
2.39298 -0.778958 -3.55585
2.54887 -0.87197 -3.55585
2.54887 -0.778958 -3.74301
-0.57187 1.45347 -6.16412
-0.229509 1.45347 -6.16412
-0.57187 1.58397 -6.16412
-0.57187 1.45347 -5.93594
-0.229509 1.58397 -5.93594
-0.57187 1.58397 -5.93594
-0.229509 1.45347 -5.93594
-0.229509 1.58397 -6.16412
2.11297 -0.544569 -3.82054
2.21366 -0.544569 -3.82054
2.11297 -0.435854 -3.82054
2.11297 -0.544569 -3.65756
2.21366 -0.435854 -3.65756
2.11297 -0.435854 -3.65756
2.21366 -0.544569 -3.65756
2.21366 -0.435854 -3.82054
0.874758 -1.25096 -2.53693
1.00099 -1.25096 -2.53693
0.874758 -1.19552 -2.53693
0.874758 -1.25096 -2.37472
1.00099 -1.19552 -2.37472
0.874758 -1.19552 -2.37472
1.00099 -1.25096 -2.37472
1.00099 -1.19552 -2.53693
3.46086 0.288545 -7.43122
3.59294 0.288545 -7.43122
3.46086 0.52057 -7.43122
3.46086 0.288545 -7.33368
3.59294 0.52057 -7.33368
3.46086 0.52057 -7.33368
3.59294 0.288545 -7.33368
3.59294 0.52057 -7.43122
3.79932 -1.23795 -3.46694
3.96451 -1.23795 -3.46694
3.79932 -1.13779 -3.46694
3.79932 -1.23795 -3.30155
3.96451 -1.13779 -3.30155
3.79932 -1.13779 -3.30155
3.96451 -1.23795 -3.30155
3.96451 -1.13779 -3.46694
2.25953 -0.849749 -3.21617
2.49213 -0.849749 -3.21617
2.25953 -0.737681 -3.21617
2.25953 -0.849749 -2.85925
2.49213 -0.737681 -2.85925
2.25953 -0.737681 -2.85925
2.49213 -0.849749 -2.85925
2.49213 -0.737681 -3.21617
-0.0739198 -0.589556 -5.3216
0.0375674 -0.589556 -5.3216
-0.0739198 -0.451543 -5.3216
-0.0739198 -0.589556 -5.16076
0.0375674 -0.451543 -5.16076
-0.0739198 -0.451543 -5.16076
0.0375674 -0.589556 -5.16076
0.0375674 -0.451543 -5.3216
2.70021 -1.21137 -3.12071
2.85579 -1.21137 -3.12071
2.70021 -1.05607 -3.12071
2.70021 -1.21137 -2.96763
2.85579 -1.05607 -2.96763
2.70021 -1.05607 -2.96763
2.85579 -1.21137 -2.96763
2.85579 -1.05607 -3.12071
1.93874 -0.873162 -3.1749
2.09964 -0.873162 -3.1749
1.93874 -0.732674 -3.1749
1.93874 -0.873162 -2.98025
2.09964 -0.732674 -2.98025
1.93874 -0.732674 -2.98025
2.09964 -0.873162 -2.98025
2.09964 -0.732674 -3.1749
1.99741 -0.734524 -3.15642
2.15733 -0.734524 -3.15642
1.99741 -0.630021 -3.15642
1.99741 -0.734524 -2.97421
2.15733 -0.630021 -2.97421
1.99741 -0.630021 -2.97421
2.15733 -0.734524 -2.97421
2.15733 -0.630021 -3.15642
-0.144064 -1.13165 -4.47121
-0.00780326 -1.13165 -4.47121
-0.144064 -1.00935 -4.47121
-0.144064 -1.13165 -4.32757
-0.00780326 -1.00935 -4.32757
-0.144064 -1.00935 -4.32757
-0.00780326 -1.13165 -4.32757
-0.00780326 -1.00935 -4.47121
1.07997 -1.09445 -3.14608
1.17532 -1.09445 -3.14608
1.07997 -0.971256 -3.14608
1.07997 -1.09445 -3.00662
1.17532 -0.971256 -3.00662
1.07997 -0.971256 -3.00662
1.17532 -1.09445 -3.00662
1.17532 -0.971256 -3.14608
1.89748 -0.791671 -3.21181
2.14068 -0.791671 -3.21181
1.89748 -0.678936 -3.21181
1.89748 -0.791671 -3.0939
2.14068 -0.678936 -3.0939
1.89748 -0.678936 -3.0939
2.14068 -0.791671 -3.0939
2.14068 -0.678936 -3.21181
1.06182 -1.25414 -5.79937
1.18107 -1.25414 -5.79937
1.06182 -1.1665 -5.79937
1.06182 -1.25414 -5.65866
1.18107 -1.1665 -5.65866
1.06182 -1.1665 -5.65866
1.18107 -1.25414 -5.65866
1.18107 -1.1665 -5.79937
2.80488 -1.26192 -3.03558
2.95046 -1.26192 -3.03558
2.80488 -1.11122 -3.03558
2.80488 -1.26192 -2.86227
2.95046 -1.11122 -2.86227
2.80488 -1.11122 -2.86227
2.95046 -1.26192 -2.86227
2.95046 -1.11122 -3.03558
2.76397 -0.886345 -3.6011
2.9591 -0.886345 -3.6011
2.76397 -0.770014 -3.6011
2.76397 -0.886345 -3.50186
2.9591 -0.770014 -3.50186
2.76397 -0.770014 -3.50186
2.9591 -0.886345 -3.50186
2.9591 -0.770014 -3.6011
0 1 255 0 0
1 7 255 0 0
7 2 255 0 0
2 0 255 0 0
3 6 255 0 0
6 4 255 0 0
4 5 255 0 0
5 3 255 0 0
0 3 255 0 0
1 6 255 0 0
7 4 255 0 0
2 5 255 0 0
8 9 255 0 0
9 15 255 0 0
15 10 255 0 0
10 8 255 0 0
11 14 255 0 0
14 12 255 0 0
12 13 255 0 0
13 11 255 0 0
8 11 255 0 0
9 14 255 0 0
15 12 255 0 0
10 13 255 0 0
16 17 255 0 0
17 23 255 0 0
23 18 255 0 0
18 16 255 0 0
19 22 255 0 0
22 20 255 0 0
20 21 255 0 0
21 19 255 0 0
16 19 255 0 0
17 22 255 0 0
23 20 255 0 0
18 21 255 0 0
24 25 255 0 0
25 31 255 0 0
31 26 255 0 0
26 24 255 0 0
27 30 255 0 0
30 28 255 0 0
28 29 255 0 0
29 27 255 0 0
24 27 255 0 0
25 30 255 0 0
31 28 255 0 0
26 29 255 0 0
32 33 255 0 0
33 39 255 0 0
39 34 255 0 0
34 32 255 0 0
35 38 255 0 0
38 36 255 0 0
36 37 255 0 0
37 35 255 0 0
32 35 255 0 0
33 38 255 0 0
39 36 255 0 0
34 37 255 0 0
40 41 255 0 0
41 47 255 0 0
47 42 255 0 0
42 40 255 0 0
43 46 255 0 0
46 44 255 0 0
44 45 255 0 0
45 43 255 0 0
40 43 255 0 0
41 46 255 0 0
47 44 255 0 0
42 45 255 0 0
48 49 255 0 0
49 55 255 0 0
55 50 255 0 0
50 48 255 0 0
51 54 255 0 0
54 52 255 0 0
52 53 255 0 0
53 51 255 0 0
48 51 255 0 0
49 54 255 0 0
55 52 255 0 0
50 53 255 0 0
56 57 255 0 0
57 63 255 0 0
63 58 255 0 0
58 56 255 0 0
59 62 255 0 0
62 60 255 0 0
60 61 255 0 0
61 59 255 0 0
56 59 255 0 0
57 62 255 0 0
63 60 255 0 0
58 61 255 0 0
64 65 255 0 0
65 71 255 0 0
71 66 255 0 0
66 64 255 0 0
67 70 255 0 0
70 68 255 0 0
68 69 255 0 0
69 67 255 0 0
64 67 255 0 0
65 70 255 0 0
71 68 255 0 0
66 69 255 0 0
72 73 255 0 0
73 79 255 0 0
79 74 255 0 0
74 72 255 0 0
75 78 255 0 0
78 76 255 0 0
76 77 255 0 0
77 75 255 0 0
72 75 255 0 0
73 78 255 0 0
79 76 255 0 0
74 77 255 0 0
80 81 255 0 0
81 87 255 0 0
87 82 255 0 0
82 80 255 0 0
83 86 255 0 0
86 84 255 0 0
84 85 255 0 0
85 83 255 0 0
80 83 255 0 0
81 86 255 0 0
87 84 255 0 0
82 85 255 0 0
88 89 255 0 0
89 95 255 0 0
95 90 255 0 0
90 88 255 0 0
91 94 255 0 0
94 92 255 0 0
92 93 255 0 0
93 91 255 0 0
88 91 255 0 0
89 94 255 0 0
95 92 255 0 0
90 93 255 0 0
96 97 255 0 0
97 103 255 0 0
103 98 255 0 0
98 96 255 0 0
99 102 255 0 0
102 100 255 0 0
100 101 255 0 0
101 99 255 0 0
96 99 255 0 0
97 102 255 0 0
103 100 255 0 0
98 101 255 0 0
104 105 255 0 0
105 111 255 0 0
111 106 255 0 0
106 104 255 0 0
107 110 255 0 0
110 108 255 0 0
108 109 255 0 0
109 107 255 0 0
104 107 255 0 0
105 110 255 0 0
111 108 255 0 0
106 109 255 0 0
112 113 255 0 0
113 119 255 0 0
119 114 255 0 0
114 112 255 0 0
115 118 255 0 0
118 116 255 0 0
116 117 255 0 0
117 115 255 0 0
112 115 255 0 0
113 118 255 0 0
119 116 255 0 0
114 117 255 0 0
120 121 255 0 0
121 127 255 0 0
127 122 255 0 0
122 120 255 0 0
123 126 255 0 0
126 124 255 0 0
124 125 255 0 0
125 123 255 0 0
120 123 255 0 0
121 126 255 0 0
127 124 255 0 0
122 125 255 0 0
128 129 255 0 0
129 135 255 0 0
135 130 255 0 0
130 128 255 0 0
131 134 255 0 0
134 132 255 0 0
132 133 255 0 0
133 131 255 0 0
128 131 255 0 0
129 134 255 0 0
135 132 255 0 0
130 133 255 0 0
136 137 255 0 0
137 143 255 0 0
143 138 255 0 0
138 136 255 0 0
139 142 255 0 0
142 140 255 0 0
140 141 255 0 0
141 139 255 0 0
136 139 255 0 0
137 142 255 0 0
143 140 255 0 0
138 141 255 0 0
144 145 255 0 0
145 151 255 0 0
151 146 255 0 0
146 144 255 0 0
147 150 255 0 0
150 148 255 0 0
148 149 255 0 0
149 147 255 0 0
144 147 255 0 0
145 150 255 0 0
151 148 255 0 0
146 149 255 0 0
152 153 255 0 0
153 159 255 0 0
159 154 255 0 0
154 152 255 0 0
155 158 255 0 0
158 156 255 0 0
156 157 255 0 0
157 155 255 0 0
152 155 255 0 0
153 158 255 0 0
159 156 255 0 0
154 157 255 0 0
160 161 255 0 0
161 167 255 0 0
167 162 255 0 0
162 160 255 0 0
163 166 255 0 0
166 164 255 0 0
164 165 255 0 0
165 163 255 0 0
160 163 255 0 0
161 166 255 0 0
167 164 255 0 0
162 165 255 0 0
168 169 255 0 0
169 175 255 0 0
175 170 255 0 0
170 168 255 0 0
171 174 255 0 0
174 172 255 0 0
172 173 255 0 0
173 171 255 0 0
168 171 255 0 0
169 174 255 0 0
175 172 255 0 0
170 173 255 0 0
176 177 255 0 0
177 183 255 0 0
183 178 255 0 0
178 176 255 0 0
179 182 255 0 0
182 180 255 0 0
180 181 255 0 0
181 179 255 0 0
176 179 255 0 0
177 182 255 0 0
183 180 255 0 0
178 181 255 0 0
184 185 255 0 0
185 191 255 0 0
191 186 255 0 0
186 184 255 0 0
187 190 255 0 0
190 188 255 0 0
188 189 255 0 0
189 187 255 0 0
184 187 255 0 0
185 190 255 0 0
191 188 255 0 0
186 189 255 0 0
192 193 255 0 0
193 199 255 0 0
199 194 255 0 0
194 192 255 0 0
195 198 255 0 0
198 196 255 0 0
196 197 255 0 0
197 195 255 0 0
192 195 255 0 0
193 198 255 0 0
199 196 255 0 0
194 197 255 0 0
200 201 255 0 0
201 207 255 0 0
207 202 255 0 0
202 200 255 0 0
203 206 255 0 0
206 204 255 0 0
204 205 255 0 0
205 203 255 0 0
200 203 255 0 0
201 206 255 0 0
207 204 255 0 0
202 205 255 0 0
208 209 255 0 0
209 215 255 0 0
215 210 255 0 0
210 208 255 0 0
211 214 255 0 0
214 212 255 0 0
212 213 255 0 0
213 211 255 0 0
208 211 255 0 0
209 214 255 0 0
215 212 255 0 0
210 213 255 0 0
216 217 255 0 0
217 223 255 0 0
223 218 255 0 0
218 216 255 0 0
219 222 255 0 0
222 220 255 0 0
220 221 255 0 0
221 219 255 0 0
216 219 255 0 0
217 222 255 0 0
223 220 255 0 0
218 221 255 0 0
224 225 255 0 0
225 231 255 0 0
231 226 255 0 0
226 224 255 0 0
227 230 255 0 0
230 228 255 0 0
228 229 255 0 0
229 227 255 0 0
224 227 255 0 0
225 230 255 0 0
231 228 255 0 0
226 229 255 0 0
232 233 255 0 0
233 239 255 0 0
239 234 255 0 0
234 232 255 0 0
235 238 255 0 0
238 236 255 0 0
236 237 255 0 0
237 235 255 0 0
232 235 255 0 0
233 238 255 0 0
239 236 255 0 0
234 237 255 0 0
240 241 255 0 0
241 247 255 0 0
247 242 255 0 0
242 240 255 0 0
243 246 255 0 0
246 244 255 0 0
244 245 255 0 0
245 243 255 0 0
240 243 255 0 0
241 246 255 0 0
247 244 255 0 0
242 245 255 0 0
248 249 255 0 0
249 255 255 0 0
255 250 255 0 0
250 248 255 0 0
251 254 255 0 0
254 252 255 0 0
252 253 255 0 0
253 251 255 0 0
248 251 255 0 0
249 254 255 0 0
255 252 255 0 0
250 253 255 0 0
256 257 255 0 0
257 263 255 0 0
263 258 255 0 0
258 256 255 0 0
259 262 255 0 0
262 260 255 0 0
260 261 255 0 0
261 259 255 0 0
256 259 255 0 0
257 262 255 0 0
263 260 255 0 0
258 261 255 0 0
264 265 255 0 0
265 271 255 0 0
271 266 255 0 0
266 264 255 0 0
267 270 255 0 0
270 268 255 0 0
268 269 255 0 0
269 267 255 0 0
264 267 255 0 0
265 270 255 0 0
271 268 255 0 0
266 269 255 0 0
272 273 255 0 0
273 279 255 0 0
279 274 255 0 0
274 272 255 0 0
275 278 255 0 0
278 276 255 0 0
276 277 255 0 0
277 275 255 0 0
272 275 255 0 0
273 278 255 0 0
279 276 255 0 0
274 277 255 0 0
280 281 255 0 0
281 287 255 0 0
287 282 255 0 0
282 280 255 0 0
283 286 255 0 0
286 284 255 0 0
284 285 255 0 0
285 283 255 0 0
280 283 255 0 0
281 286 255 0 0
287 284 255 0 0
282 285 255 0 0
288 289 255 0 0
289 295 255 0 0
295 290 255 0 0
290 288 255 0 0
291 294 255 0 0
294 292 255 0 0
292 293 255 0 0
293 291 255 0 0
288 291 255 0 0
289 294 255 0 0
295 292 255 0 0
290 293 255 0 0
296 297 255 0 0
297 303 255 0 0
303 298 255 0 0
298 296 255 0 0
299 302 255 0 0
302 300 255 0 0
300 301 255 0 0
301 299 255 0 0
296 299 255 0 0
297 302 255 0 0
303 300 255 0 0
298 301 255 0 0
304 305 255 0 0
305 311 255 0 0
311 306 255 0 0
306 304 255 0 0
307 310 255 0 0
310 308 255 0 0
308 309 255 0 0
309 307 255 0 0
304 307 255 0 0
305 310 255 0 0
311 308 255 0 0
306 309 255 0 0
312 313 255 0 0
313 319 255 0 0
319 314 255 0 0
314 312 255 0 0
315 318 255 0 0
318 316 255 0 0
316 317 255 0 0
317 315 255 0 0
312 315 255 0 0
313 318 255 0 0
319 316 255 0 0
314 317 255 0 0
320 321 255 0 0
321 327 255 0 0
327 322 255 0 0
322 320 255 0 0
323 326 255 0 0
326 324 255 0 0
324 325 255 0 0
325 323 255 0 0
320 323 255 0 0
321 326 255 0 0
327 324 255 0 0
322 325 255 0 0
328 329 255 0 0
329 335 255 0 0
335 330 255 0 0
330 328 255 0 0
331 334 255 0 0
334 332 255 0 0
332 333 255 0 0
333 331 255 0 0
328 331 255 0 0
329 334 255 0 0
335 332 255 0 0
330 333 255 0 0
336 337 255 0 0
337 343 255 0 0
343 338 255 0 0
338 336 255 0 0
339 342 255 0 0
342 340 255 0 0
340 341 255 0 0
341 339 255 0 0
336 339 255 0 0
337 342 255 0 0
343 340 255 0 0
338 341 255 0 0
344 345 255 0 0
345 351 255 0 0
351 346 255 0 0
346 344 255 0 0
347 350 255 0 0
350 348 255 0 0
348 349 255 0 0
349 347 255 0 0
344 347 255 0 0
345 350 255 0 0
351 348 255 0 0
346 349 255 0 0
352 353 255 0 0
353 359 255 0 0
359 354 255 0 0
354 352 255 0 0
355 358 255 0 0
358 356 255 0 0
356 357 255 0 0
357 355 255 0 0
352 355 255 0 0
353 358 255 0 0
359 356 255 0 0
354 357 255 0 0
360 361 255 0 0
361 367 255 0 0
367 362 255 0 0
362 360 255 0 0
363 366 255 0 0
366 364 255 0 0
364 365 255 0 0
365 363 255 0 0
360 363 255 0 0
361 366 255 0 0
367 364 255 0 0
362 365 255 0 0
368 369 255 0 0
369 375 255 0 0
375 370 255 0 0
370 368 255 0 0
371 374 255 0 0
374 372 255 0 0
372 373 255 0 0
373 371 255 0 0
368 371 255 0 0
369 374 255 0 0
375 372 255 0 0
370 373 255 0 0
376 377 255 0 0
377 383 255 0 0
383 378 255 0 0
378 376 255 0 0
379 382 255 0 0
382 380 255 0 0
380 381 255 0 0
381 379 255 0 0
376 379 255 0 0
377 382 255 0 0
383 380 255 0 0
378 381 255 0 0
384 385 255 0 0
385 391 255 0 0
391 386 255 0 0
386 384 255 0 0
387 390 255 0 0
390 388 255 0 0
388 389 255 0 0
389 387 255 0 0
384 387 255 0 0
385 390 255 0 0
391 388 255 0 0
386 389 255 0 0
392 393 255 0 0
393 399 255 0 0
399 394 255 0 0
394 392 255 0 0
395 398 255 0 0
398 396 255 0 0
396 397 255 0 0
397 395 255 0 0
392 395 255 0 0
393 398 255 0 0
399 396 255 0 0
394 397 255 0 0
400 401 255 0 0
401 407 255 0 0
407 402 255 0 0
402 400 255 0 0
403 406 255 0 0
406 404 255 0 0
404 405 255 0 0
405 403 255 0 0
400 403 255 0 0
401 406 255 0 0
407 404 255 0 0
402 405 255 0 0
408 409 255 0 0
409 415 255 0 0
415 410 255 0 0
410 408 255 0 0
411 414 255 0 0
414 412 255 0 0
412 413 255 0 0
413 411 255 0 0
408 411 255 0 0
409 414 255 0 0
415 412 255 0 0
410 413 255 0 0
