ply
format ascii 1.0
comment Created by Open3D
element vertex 320
property double x
property double y
property double z
element edge 480
property int vertex1
property int vertex2
property uchar red
property uchar green
property uchar blue
end_header
-1.25743 -1.05145 -5.34016
-0.344383 -1.05145 -5.34016
-1.25743 -0.0289476 -5.34016
-1.25743 -1.05145 -4.2018
-0.344383 -0.0289476 -4.2018
-1.25743 -0.0289476 -4.2018
-0.344383 -1.05145 -4.2018
-0.344383 -0.0289476 -5.34016
-0.460952 -1.10904 -3.92164
2.57024 -1.10904 -3.92164
-0.460952 -0.26602 -3.92164
-0.460952 -1.10904 -1.29895
2.57024 -0.26602 -1.29895
-0.460952 -0.26602 -1.29895
2.57024 -1.10904 -1.29895
2.57024 -0.26602 -3.92164
0.142759 -1.20695 -1.81408
3.86165 -1.20695 -1.81408
0.142759 -0.334364 -1.81408
0.142759 -1.20695 0.167832
3.86165 -0.334364 0.167832
0.142759 -0.334364 0.167832
3.86165 -1.20695 0.167832
3.86165 -0.334364 -1.81408
2.50687 -1.04984 -7.43956
5.07727 -1.04984 -7.43956
2.50687 -0.294729 -7.43956
2.50687 -1.04984 -4.76703
5.07727 -0.294729 -4.76703
2.50687 -0.294729 -4.76703
5.07727 -1.04984 -4.76703
5.07727 -0.294729 -7.43956
-0.538483 -1.15757 -6.5028
1.99768 -1.15757 -6.5028
-0.538483 -0.292746 -6.5028
-0.538483 -1.15757 -3.96809
1.99768 -0.292746 -3.96809
-0.538483 -0.292746 -3.96809
1.99768 -1.15757 -3.96809
1.99768 -0.292746 -6.5028
1.88216 -1.09481 -6.60266
2.94277 -1.09481 -6.60266
1.88216 -0.294705 -6.60266
1.88216 -1.09481 -4.56878
2.94277 -0.294705 -4.56878
1.88216 -0.294705 -4.56878
2.94277 -1.09481 -4.56878
2.94277 -0.294705 -6.60266
2.12311 -1.14773 -4.63112
5.32629 -1.14773 -4.63112
2.12311 -0.301285 -4.63112
2.12311 -1.14773 -2.18894
5.32629 -0.301285 -2.18894
2.12311 -0.301285 -2.18894
5.32629 -1.14773 -2.18894
5.32629 -0.301285 -4.63112
2.0381 -0.607906 -7.07138
2.53445 -0.607906 -7.07138
2.0381 -0.310662 -7.07138
2.0381 -0.607906 -6.73311
2.53445 -0.310662 -6.73311
2.0381 -0.310662 -6.73311
2.53445 -0.607906 -6.73311
2.53445 -0.310662 -7.07138
6.65747 1.08495 -1.00119
7.00507 1.08495 -1.00119
6.65747 1.50693 -1.00119
6.65747 1.08495 -0.815956
7.00507 1.50693 -0.815956
6.65747 1.50693 -0.815956
7.00507 1.08495 -0.815956
7.00507 1.50693 -1.00119
-2.34177 -1.09225 -5.94017
-0.869404 -1.09225 -5.94017
-2.34177 1.25172 -5.94017
-2.34177 -1.09225 -4.66952
-0.869404 1.25172 -4.66952
-2.34177 1.25172 -4.66952
-0.869404 -1.09225 -4.66952
-0.869404 1.25172 -5.94017
4.09766 -0.637618 -1.4165
4.72743 -0.637618 -1.4165
4.09766 -0.343464 -1.4165
4.09766 -0.637618 -0.821805
4.72743 -0.343464 -0.821805
4.09766 -0.343464 -0.821805
4.72743 -0.637618 -0.821805
4.72743 -0.343464 -1.4165
5.03522 -0.638216 -2.1992
5.88184 -0.638216 -2.1992
5.03522 -0.270682 -2.1992
5.03522 -0.638216 -1.04482
5.88184 -0.270682 -1.04482
5.03522 -0.270682 -1.04482
5.88184 -0.638216 -1.04482
5.88184 -0.270682 -2.1992
-0.335685 1.31701 -3.20029
0.0836895 1.31701 -3.20029
-0.335685 1.46357 -3.20029
-0.335685 1.31701 -2.84797
0.0836895 1.46357 -2.84797
-0.335685 1.46357 -2.84797
0.0836895 1.31701 -2.84797
0.0836895 1.46357 -3.20029
4.87906 -0.929176 -7.53533
5.8008 -0.929176 -7.53533
4.87906 -0.377212 -7.53533
4.87906 -0.929176 -6.36459
5.8008 -0.377212 -6.36459
4.87906 -0.377212 -6.36459
5.8008 -0.929176 -6.36459
5.8008 -0.377212 -7.53533
1.86007 0.192415 -7.03685
2.11663 0.192415 -7.03685
1.86007 0.642782 -7.03685
1.86007 0.192415 -6.90898
2.11663 0.642782 -6.90898
1.86007 0.642782 -6.90898
2.11663 0.192415 -6.90898
2.11663 0.642782 -7.03685
-0.866027 1.28658 -5.7972
-0.660252 1.28658 -5.7972
-0.866027 1.44877 -5.7972
-0.866027 1.28658 -5.43717
-0.660252 1.44877 -5.43717
-0.866027 1.44877 -5.43717
-0.660252 1.28658 -5.43717
-0.660252 1.44877 -5.7972
1.60665 -1.16849 -2.37062
1.9164 -1.16849 -2.37062
1.60665 -0.984405 -2.37062
1.60665 -1.16849 -2.15584
1.9164 -0.984405 -2.15584
1.60665 -0.984405 -2.15584
1.9164 -1.16849 -2.15584
1.9164 -0.984405 -2.37062
-0.281653 -0.332803 -6.2455
0.162092 -0.332803 -6.2455
-0.281653 0.669905 -6.2455
-0.281653 -0.332803 -6.07702
0.162092 0.669905 -6.07702
-0.281653 0.669905 -6.07702
0.162092 -0.332803 -6.07702
0.162092 0.669905 -6.2455
2.2012 -0.249459 -7.07414
2.40195 -0.249459 -7.07414
2.2012 0.733467 -7.07414
2.2012 -0.249459 -6.90277
2.40195 0.733467 -6.90277
2.2012 0.733467 -6.90277
2.40195 -0.249459 -6.90277
2.40195 0.733467 -7.07414
1.35706 -0.624687 -6.65298
1.73505 -0.624687 -6.65298
1.35706 -0.00691722 -6.65298
1.35706 -0.624687 -6.42882
1.73505 -0.00691722 -6.42882
1.35706 -0.00691722 -6.42882
1.73505 -0.624687 -6.42882
1.73505 -0.00691722 -6.65298
1.75666 0.889944 -6.02261
2.05087 0.889944 -6.02261
1.75666 1.2536 -6.02261
1.75666 0.889944 -5.53889
2.05087 1.2536 -5.53889
1.75666 1.2536 -5.53889
2.05087 0.889944 -5.53889
2.05087 1.2536 -6.02261
-2.24199 -0.454082 -4.51172
-2.07996 -0.454082 -4.51172
-2.24199 -0.241978 -4.51172
-2.24199 -0.454082 -4.09892
-2.07996 -0.241978 -4.09892
-2.24199 -0.241978 -4.09892
-2.07996 -0.454082 -4.09892
-2.07996 -0.241978 -4.51172
4.01068 1.33193 -3.59587
4.698 1.33193 -3.59587
4.01068 1.38752 -3.59587
4.01068 1.33193 -3.31666
4.698 1.38752 -3.31666
4.01068 1.38752 -3.31666
4.698 1.33193 -3.31666
4.698 1.38752 -3.59587
1.85897 -0.905447 -3.85993
2.14116 -0.905447 -3.85993
1.85897 -0.691168 -3.85993
1.85897 -0.905447 -3.25965
2.14116 -0.691168 -3.25965
1.85897 -0.691168 -3.25965
2.14116 -0.905447 -3.25965
2.14116 -0.691168 -3.85993
4.93336 1.26643 -3.35868
5.14914 1.26643 -3.35868
4.93336 1.35593 -3.35868
4.93336 1.26643 -3.03632
5.14914 1.35593 -3.03632
4.93336 1.35593 -3.03632
5.14914 1.26643 -3.03632
5.14914 1.35593 -3.35868
0.233658 -0.845098 -4.82801
0.352644 -0.845098 -4.82801
0.233658 -0.596511 -4.82801
0.233658 -0.845098 -4.66554
0.352644 -0.596511 -4.66554
0.233658 -0.596511 -4.66554
0.352644 -0.845098 -4.66554
0.352644 -0.596511 -4.82801
1.69846 0.577411 -6.5107
1.97282 0.577411 -6.5107
1.69846 0.855456 -6.5107
1.69846 0.577411 -6.24687
1.97282 0.855456 -6.24687
1.69846 0.855456 -6.24687
1.97282 0.577411 -6.24687
1.97282 0.855456 -6.5107
0.223394 -1.06083 -3.18227
0.442698 -1.06083 -3.18227
0.223394 -0.816467 -3.18227
0.223394 -1.06083 -2.94356
0.442698 -0.816467 -2.94356
0.223394 -0.816467 -2.94356
0.442698 -1.06083 -2.94356
0.442698 -0.816467 -3.18227
1.25635 0.0889296 -6.59679
1.39818 0.0889296 -6.59679
1.25635 0.270274 -6.59679
1.25635 0.0889296 -6.51815
1.39818 0.270274 -6.51815
1.25635 0.270274 -6.51815
1.39818 0.0889296 -6.51815
1.39818 0.270274 -6.59679
-0.880081 1.43578 -5.98796
-0.645582 1.43578 -5.98796
-0.880081 1.56756 -5.98796
-0.880081 1.43578 -5.79543
-0.645582 1.56756 -5.79543
-0.880081 1.56756 -5.79543
-0.645582 1.43578 -5.79543
-0.645582 1.56756 -5.98796
2.23676 -0.00877322 -6.96114
2.39916 -0.00877322 -6.96114
2.23676 0.23336 -6.96114
2.23676 -0.00877322 -6.87706
2.39916 0.23336 -6.87706
2.23676 0.23336 -6.87706
2.39916 -0.00877322 -6.87706
2.39916 0.23336 -6.96114
1.49678 0.827985 -6.66119
1.65651 0.827985 -6.66119
1.49678 1.10632 -6.66119
1.49678 0.827985 -6.55748
1.65651 1.10632 -6.55748
1.49678 1.10632 -6.55748
1.65651 0.827985 -6.55748
1.65651 1.10632 -6.66119
1.25439 -0.169149 -6.57541
1.35986 -0.169149 -6.57541
1.25439 0.0922788 -6.57541
1.25439 -0.169149 -6.48847
1.35986 0.0922788 -6.48847
1.25439 0.0922788 -6.48847
1.35986 -0.169149 -6.48847
1.35986 0.0922788 -6.57541
1.46171 0.591799 -6.67651
1.67732 0.591799 -6.67651
1.46171 0.773178 -6.67651
1.46171 0.591799 -6.5629
1.67732 0.773178 -6.5629
1.46171 0.773178 -6.5629
1.67732 0.591799 -6.5629
1.67732 0.773178 -6.67651
-2.29731 -0.354611 -4.69866
-2.19003 -0.354611 -4.69866
-2.29731 -0.226526 -4.69866
-2.29731 -0.354611 -4.50016
-2.19003 -0.226526 -4.50016
-2.29731 -0.226526 -4.50016
-2.19003 -0.354611 -4.50016
-2.19003 -0.226526 -4.69866
1.81298 -0.669269 -6.73313
2.00431 -0.669269 -6.73313
1.81298 -0.490189 -6.73313
1.81298 -0.669269 -6.51402
2.00431 -0.490189 -6.51402
1.81298 -0.490189 -6.51402
2.00431 -0.669269 -6.51402
2.00431 -0.490189 -6.73313
4.10602 -1.09458 -5.86151
4.23052 -1.09458 -5.86151
4.10602 -0.950518 -5.86151
4.10602 -1.09458 -5.73635
4.23052 -0.950518 -5.73635
4.10602 -0.950518 -5.73635
4.23052 -1.09458 -5.73635
4.23052 -0.950518 -5.86151
2.2431 1.2268 -2.51453
2.44893 1.2268 -2.51453
2.2431 1.32458 -2.51453
2.2431 1.2268 -2.2784
2.44893 1.32458 -2.2784
2.2431 1.32458 -2.2784
2.44893 1.2268 -2.2784
2.44893 1.32458 -2.51453
1.6924 -0.584602 -6.09962
1.88118 -0.584602 -6.09962
1.6924 -0.450098 -6.09962
1.6924 -0.584602 -5.95623
1.88118 -0.450098 -5.95623
1.6924 -0.450098 -5.95623
1.88118 -0.584602 -5.95623
1.88118 -0.450098 -6.09962
2.69629 1.30591 -2.24276
2.86306 1.30591 -2.24276
2.69629 1.37464 -2.24276
2.69629 1.30591 -2.10111
2.86306 1.37464 -2.10111
2.69629 1.37464 -2.10111
2.86306 1.30591 -2.10111
2.86306 1.37464 -2.24276
0 1 255 0 0
1 7 255 0 0
7 2 255 0 0
2 0 255 0 0
3 6 255 0 0
6 4 255 0 0
4 5 255 0 0
5 3 255 0 0
0 3 255 0 0
1 6 255 0 0
7 4 255 0 0
2 5 255 0 0
8 9 255 0 0
9 15 255 0 0
15 10 255 0 0
10 8 255 0 0
11 14 255 0 0
14 12 255 0 0
12 13 255 0 0
13 11 255 0 0
8 11 255 0 0
9 14 255 0 0
15 12 255 0 0
10 13 255 0 0
16 17 255 0 0
17 23 255 0 0
23 18 255 0 0
18 16 255 0 0
19 22 255 0 0
22 20 255 0 0
20 21 255 0 0
21 19 255 0 0
16 19 255 0 0
17 22 255 0 0
23 20 255 0 0
18 21 255 0 0
24 25 255 0 0
25 31 255 0 0
31 26 255 0 0
26 24 255 0 0
27 30 255 0 0
30 28 255 0 0
28 29 255 0 0
29 27 255 0 0
24 27 255 0 0
25 30 255 0 0
31 28 255 0 0
26 29 255 0 0
32 33 255 0 0
33 39 255 0 0
39 34 255 0 0
34 32 255 0 0
35 38 255 0 0
38 36 255 0 0
36 37 255 0 0
37 35 255 0 0
32 35 255 0 0
33 38 255 0 0
39 36 255 0 0
34 37 255 0 0
40 41 255 0 0
41 47 255 0 0
47 42 255 0 0
42 40 255 0 0
43 46 255 0 0
46 44 255 0 0
44 45 255 0 0
45 43 255 0 0
40 43 255 0 0
41 46 255 0 0
47 44 255 0 0
42 45 255 0 0
48 49 255 0 0
49 55 255 0 0
55 50 255 0 0
50 48 255 0 0
51 54 255 0 0
54 52 255 0 0
52 53 255 0 0
53 51 255 0 0
48 51 255 0 0
49 54 255 0 0
55 52 255 0 0
50 53 255 0 0
56 57 255 0 0
57 63 255 0 0
63 58 255 0 0
58 56 255 0 0
59 62 255 0 0
62 60 255 0 0
60 61 255 0 0
61 59 255 0 0
56 59 255 0 0
57 62 255 0 0
63 60 255 0 0
58 61 255 0 0
64 65 255 0 0
65 71 255 0 0
71 66 255 0 0
66 64 255 0 0
67 70 255 0 0
70 68 255 0 0
68 69 255 0 0
69 67 255 0 0
64 67 255 0 0
65 70 255 0 0
71 68 255 0 0
66 69 255 0 0
72 73 255 0 0
73 79 255 0 0
79 74 255 0 0
74 72 255 0 0
75 78 255 0 0
78 76 255 0 0
76 77 255 0 0
77 75 255 0 0
72 75 255 0 0
73 78 255 0 0
79 76 255 0 0
74 77 255 0 0
80 81 255 0 0
81 87 255 0 0
87 82 255 0 0
82 80 255 0 0
83 86 255 0 0
86 84 255 0 0
84 85 255 0 0
85 83 255 0 0
80 83 255 0 0
81 86 255 0 0
87 84 255 0 0
82 85 255 0 0
88 89 255 0 0
89 95 255 0 0
95 90 255 0 0
90 88 255 0 0
91 94 255 0 0
94 92 255 0 0
92 93 255 0 0
93 91 255 0 0
88 91 255 0 0
89 94 255 0 0
95 92 255 0 0
90 93 255 0 0
96 97 255 0 0
97 103 255 0 0
103 98 255 0 0
98 96 255 0 0
99 102 255 0 0
102 100 255 0 0
100 101 255 0 0
101 99 255 0 0
96 99 255 0 0
97 102 255 0 0
103 100 255 0 0
98 101 255 0 0
104 105 255 0 0
105 111 255 0 0
111 106 255 0 0
106 104 255 0 0
107 110 255 0 0
110 108 255 0 0
108 109 255 0 0
109 107 255 0 0
104 107 255 0 0
105 110 255 0 0
111 108 255 0 0
106 109 255 0 0
112 113 255 0 0
113 119 255 0 0
119 114 255 0 0
114 112 255 0 0
115 118 255 0 0
118 116 255 0 0
116 117 255 0 0
117 115 255 0 0
112 115 255 0 0
113 118 255 0 0
119 116 255 0 0
114 117 255 0 0
120 121 255 0 0
121 127 255 0 0
127 122 255 0 0
122 120 255 0 0
123 126 255 0 0
126 124 255 0 0
124 125 255 0 0
125 123 255 0 0
120 123 255 0 0
121 126 255 0 0
127 124 255 0 0
122 125 255 0 0
128 129 255 0 0
129 135 255 0 0
135 130 255 0 0
130 128 255 0 0
131 134 255 0 0
134 132 255 0 0
132 133 255 0 0
133 131 255 0 0
128 131 255 0 0
129 134 255 0 0
135 132 255 0 0
130 133 255 0 0
136 137 255 0 0
137 143 255 0 0
143 138 255 0 0
138 136 255 0 0
139 142 255 0 0
142 140 255 0 0
140 141 255 0 0
141 139 255 0 0
136 139 255 0 0
137 142 255 0 0
143 140 255 0 0
138 141 255 0 0
144 145 255 0 0
145 151 255 0 0
151 146 255 0 0
146 144 255 0 0
147 150 255 0 0
150 148 255 0 0
148 149 255 0 0
149 147 255 0 0
144 147 255 0 0
145 150 255 0 0
151 148 255 0 0
146 149 255 0 0
152 153 255 0 0
153 159 255 0 0
159 154 255 0 0
154 152 255 0 0
155 158 255 0 0
158 156 255 0 0
156 157 255 0 0
157 155 255 0 0
152 155 255 0 0
153 158 255 0 0
159 156 255 0 0
154 157 255 0 0
160 161 255 0 0
161 167 255 0 0
167 162 255 0 0
162 160 255 0 0
163 166 255 0 0
166 164 255 0 0
164 165 255 0 0
165 163 255 0 0
160 163 255 0 0
161 166 255 0 0
167 164 255 0 0
162 165 255 0 0
168 169 255 0 0
169 175 255 0 0
175 170 255 0 0
170 168 255 0 0
171 174 255 0 0
174 172 255 0 0
172 173 255 0 0
173 171 255 0 0
168 171 255 0 0
169 174 255 0 0
175 172 255 0 0
170 173 255 0 0
176 177 255 0 0
177 183 255 0 0
183 178 255 0 0
178 176 255 0 0
179 182 255 0 0
182 180 255 0 0
180 181 255 0 0
181 179 255 0 0
176 179 255 0 0
177 182 255 0 0
183 180 255 0 0
178 181 255 0 0
184 185 255 0 0
185 191 255 0 0
191 186 255 0 0
186 184 255 0 0
187 190 255 0 0
190 188 255 0 0
188 189 255 0 0
189 187 255 0 0
184 187 255 0 0
185 190 255 0 0
191 188 255 0 0
186 189 255 0 0
192 193 255 0 0
193 199 255 0 0
199 194 255 0 0
194 192 255 0 0
195 198 255 0 0
198 196 255 0 0
196 197 255 0 0
197 195 255 0 0
192 195 255 0 0
193 198 255 0 0
199 196 255 0 0
194 197 255 0 0
200 201 255 0 0
201 207 255 0 0
207 202 255 0 0
202 200 255 0 0
203 206 255 0 0
206 204 255 0 0
204 205 255 0 0
205 203 255 0 0
200 203 255 0 0
201 206 255 0 0
207 204 255 0 0
202 205 255 0 0
208 209 255 0 0
209 215 255 0 0
215 210 255 0 0
210 208 255 0 0
211 214 255 0 0
214 212 255 0 0
212 213 255 0 0
213 211 255 0 0
208 211 255 0 0
209 214 255 0 0
215 212 255 0 0
210 213 255 0 0
216 217 255 0 0
217 223 255 0 0
223 218 255 0 0
218 216 255 0 0
219 222 255 0 0
222 220 255 0 0
220 221 255 0 0
221 219 255 0 0
216 219 255 0 0
217 222 255 0 0
223 220 255 0 0
218 221 255 0 0
224 225 255 0 0
225 231 255 0 0
231 226 255 0 0
226 224 255 0 0
227 230 255 0 0
230 228 255 0 0
228 229 255 0 0
229 227 255 0 0
224 227 255 0 0
225 230 255 0 0
231 228 255 0 0
226 229 255 0 0
232 233 255 0 0
233 239 255 0 0
239 234 255 0 0
234 232 255 0 0
235 238 255 0 0
238 236 255 0 0
236 237 255 0 0
237 235 255 0 0
232 235 255 0 0
233 238 255 0 0
239 236 255 0 0
234 237 255 0 0
240 241 255 0 0
241 247 255 0 0
247 242 255 0 0
242 240 255 0 0
243 246 255 0 0
246 244 255 0 0
244 245 255 0 0
245 243 255 0 0
240 243 255 0 0
241 246 255 0 0
247 244 255 0 0
242 245 255 0 0
248 249 255 0 0
249 255 255 0 0
255 250 255 0 0
250 248 255 0 0
251 254 255 0 0
254 252 255 0 0
252 253 255 0 0
253 251 255 0 0
248 251 255 0 0
249 254 255 0 0
255 252 255 0 0
250 253 255 0 0
256 257 255 0 0
257 263 255 0 0
263 258 255 0 0
258 256 255 0 0
259 262 255 0 0
262 260 255 0 0
260 261 255 0 0
261 259 255 0 0
256 259 255 0 0
257 262 255 0 0
263 260 255 0 0
258 261 255 0 0
264 265 255 0 0
265 271 255 0 0
271 266 255 0 0
266 264 255 0 0
267 270 255 0 0
270 268 255 0 0
268 269 255 0 0
269 267 255 0 0
264 267 255 0 0
265 270 255 0 0
271 268 255 0 0
266 269 255 0 0
272 273 255 0 0
273 279 255 0 0
279 274 255 0 0
274 272 255 0 0
275 278 255 0 0
278 276 255 0 0
276 277 255 0 0
277 275 255 0 0
272 275 255 0 0
273 278 255 0 0
279 276 255 0 0
274 277 255 0 0
280 281 255 0 0
281 287 255 0 0
287 282 255 0 0
282 280 255 0 0
283 286 255 0 0
286 284 255 0 0
284 285 255 0 0
285 283 255 0 0
280 283 255 0 0
281 286 255 0 0
287 284 255 0 0
282 285 255 0 0
288 289 255 0 0
289 295 255 0 0
295 290 255 0 0
290 288 255 0 0
291 294 255 0 0
294 292 255 0 0
292 293 255 0 0
293 291 255 0 0
288 291 255 0 0
289 294 255 0 0
295 292 255 0 0
290 293 255 0 0
296 297 255 0 0
297 303 255 0 0
303 298 255 0 0
298 296 255 0 0
299 302 255 0 0
302 300 255 0 0
300 301 255 0 0
301 299 255 0 0
296 299 255 0 0
297 302 255 0 0
303 300 255 0 0
298 301 255 0 0
304 305 255 0 0
305 311 255 0 0
311 306 255 0 0
306 304 255 0 0
307 310 255 0 0
310 308 255 0 0
308 309 255 0 0
309 307 255 0 0
304 307 255 0 0
305 310 255 0 0
311 308 255 0 0
306 309 255 0 0
312 313 255 0 0
313 319 255 0 0
319 314 255 0 0
314 312 255 0 0
315 318 255 0 0
318 316 255 0 0
316 317 255 0 0
317 315 255 0 0
312 315 255 0 0
313 318 255 0 0
319 316 255 0 0
314 317 255 0 0
