ply
format ascii 1.0
comment Created by Open3D
element vertex 376
property double x
property double y
property double z
element edge 564
property int vertex1
property int vertex2
property uchar red
property uchar green
property uchar blue
end_header
-0.481285 -1.20772 -3.93421
3.92316 -1.20772 -3.93421
-0.481285 -0.24734 -3.93421
-0.481285 -1.20772 0.20636
3.92316 -0.24734 0.20636
-0.481285 -0.24734 0.20636
3.92316 -1.20772 0.20636
3.92316 -0.24734 -3.93421
-1.26294 -1.16558 -6.65969
2.01844 -1.16558 -6.65969
-1.26294 0.350716 -6.65969
-1.26294 -1.16558 -3.94545
2.01844 0.350716 -3.94545
-1.26294 0.350716 -3.94545
2.01844 -1.16558 -3.94545
2.01844 0.350716 -6.65969
2.11297 -1.18826 -4.65488
5.34961 -1.18826 -4.65488
2.11297 -0.288984 -4.65488
2.11297 -1.18826 -2.1585
5.34961 -0.288984 -2.1585
2.11297 -0.288984 -2.1585
5.34961 -1.18826 -2.1585
5.34961 -0.288984 -4.65488
1.65618 -1.21041 -7.56038
5.82056 -1.21041 -7.56038
1.65618 0.772785 -7.56038
1.65618 -1.21041 -4.56789
5.82056 0.772785 -4.56789
1.65618 0.772785 -4.56789
5.82056 -1.21041 -4.56789
5.82056 0.772785 -7.56038
2.81738 -1.32647 -0.821874
2.97384 -1.32647 -0.821874
2.81738 -1.23099 -0.821874
2.81738 -1.32647 -0.573124
2.97384 -1.23099 -0.573124
2.81738 -1.23099 -0.573124
2.97384 -1.32647 -0.573124
2.97384 -1.23099 -0.821874
-2.36318 -1.11501 -5.96322
-0.861918 -1.11501 -5.96322
-2.36318 1.25211 -5.96322
-2.36318 -1.11501 -4.6058
-0.861918 1.25211 -4.6058
-2.36318 1.25211 -4.6058
-0.861918 -1.11501 -4.6058
-0.861918 1.25211 -5.96322
-0.298682 -0.40986 -6.30971
0.317689 -0.40986 -6.30971
-0.298682 0.990921 -6.30971
-0.298682 -0.40986 -6.0703
0.317689 0.990921 -6.0703
-0.298682 0.990921 -6.0703
0.317689 -0.40986 -6.0703
0.317689 0.990921 -6.30971
5.01941 -0.671227 -2.1992
5.93324 -0.671227 -2.1992
5.01941 -0.262863 -2.1992
5.01941 -0.671227 -1.03486
5.93324 -0.262863 -1.03486
5.01941 -0.262863 -1.03486
5.93324 -0.671227 -1.03486
5.93324 -0.262863 -2.1992
6.63641 1.03834 -1.03309
7.05165 1.03834 -1.03309
6.63641 1.5534 -1.03309
6.63641 1.03834 -0.806118
7.05165 1.5534 -0.806118
6.63641 1.5534 -0.806118
7.05165 1.03834 -0.806118
7.05165 1.5534 -1.03309
4.0819 -0.650867 -1.43901
4.75183 -0.650867 -1.43901
4.0819 -0.327 -1.43901
4.0819 -0.650867 -0.806606
4.75183 -0.327 -0.806606
4.0819 -0.327 -0.806606
4.75183 -0.650867 -0.806606
4.75183 -0.327 -1.43901
2.99773 -1.1092 -0.961787
3.17424 -1.1092 -0.961787
2.99773 -0.976837 -0.961787
2.99773 -1.1092 -0.779237
3.17424 -0.976837 -0.779237
2.99773 -0.976837 -0.779237
3.17424 -1.1092 -0.779237
3.17424 -0.976837 -0.961787
-0.357512 1.31535 -3.23206
0.120583 1.31535 -3.23206
-0.357512 1.46518 -3.23206
-0.357512 1.31535 -2.81746
0.120583 1.46518 -2.81746
-0.357512 1.46518 -2.81746
0.120583 1.31535 -2.81746
0.120583 1.46518 -3.23206
0.400464 -1.22214 -5.10426
0.584383 -1.22214 -5.10426
0.400464 -1.09037 -5.10426
0.400464 -1.22214 -4.93974
0.584383 -1.09037 -4.93974
0.400464 -1.09037 -4.93974
0.584383 -1.22214 -4.93974
0.584383 -1.09037 -5.10426
-0.581656 1.41701 -6.16412
-0.203134 1.41701 -6.16412
-0.581656 1.58397 -6.16412
-0.581656 1.41701 -5.93594
-0.203134 1.58397 -5.93594
-0.581656 1.58397 -5.93594
-0.203134 1.41701 -5.93594
-0.203134 1.58397 -6.16412
-0.958698 1.2696 -6.01103
-0.614954 1.2696 -6.01103
-0.958698 1.6502 -6.01103
-0.958698 1.2696 -5.39528
-0.614954 1.6502 -5.39528
-0.958698 1.6502 -5.39528
-0.614954 1.2696 -5.39528
-0.614954 1.6502 -6.01103
-1.01932 0.809763 -6.34273
-0.824626 0.809763 -6.34273
-1.01932 0.929912 -6.34273
-1.01932 0.809763 -6.25436
-0.824626 0.929912 -6.25436
-1.01932 0.929912 -6.25436
-0.824626 0.809763 -6.25436
-0.824626 0.929912 -6.34273
2.24107 -0.849749 -3.21617
2.4945 -0.849749 -3.21617
2.24107 -0.737681 -3.21617
2.24107 -0.849749 -2.85925
2.4945 -0.737681 -2.85925
2.24107 -0.737681 -2.85925
2.4945 -0.849749 -2.85925
2.4945 -0.737681 -3.21617
1.42958 0.451416 -6.68231
1.72071 0.451416 -6.68231
1.42958 1.13042 -6.68231
1.42958 0.451416 -6.54654
1.72071 1.13042 -6.54654
1.42958 1.13042 -6.54654
1.72071 0.451416 -6.54654
1.72071 1.13042 -6.68231
-1.96394 -0.368427 -3.635
-1.80185 -0.368427 -3.635
-1.96394 -0.247201 -3.635
-1.96394 -0.368427 -3.23635
-1.80185 -0.247201 -3.23635
-1.96394 -0.247201 -3.23635
-1.80185 -0.368427 -3.23635
-1.80185 -0.247201 -3.635
2.2186 1.21341 -2.54225
2.98156 1.21341 -2.54225
2.2186 1.37664 -2.54225
2.2186 1.21341 -1.92177
2.98156 1.37664 -1.92177
2.2186 1.37664 -1.92177
2.98156 1.21341 -1.92177
2.98156 1.37664 -2.54225
1.15557 -1.14642 -5.35842
1.23145 -1.14642 -5.35842
1.15557 -0.947588 -5.35842
1.15557 -1.14642 -5.24175
1.23145 -0.947588 -5.24175
1.15557 -0.947588 -5.24175
1.23145 -1.14642 -5.24175
1.23145 -0.947588 -5.35842
-2.34482 -0.613259 -4.825
-1.96531 -0.613259 -4.825
-2.34482 -0.171176 -4.825
-2.34482 -0.613259 -3.70957
-1.96531 -0.171176 -3.70957
-2.34482 -0.171176 -3.70957
-1.96531 -0.613259 -3.70957
-1.96531 -0.171176 -4.825
1.83505 -1.26317 -2.93694
1.98301 -1.26317 -2.93694
1.83505 -1.15473 -2.93694
1.83505 -1.26317 -2.7163
1.98301 -1.15473 -2.7163
1.83505 -1.15473 -2.7163
1.98301 -1.26317 -2.7163
1.98301 -1.15473 -2.93694
2.72049 -0.871111 -0.41913
2.82465 -0.871111 -0.41913
2.72049 -0.768507 -0.41913
2.72049 -0.871111 -0.238521
2.82465 -0.768507 -0.238521
2.72049 -0.768507 -0.238521
2.82465 -0.871111 -0.238521
2.82465 -0.768507 -0.41913
-1.16073 -0.988139 -0.422945
-0.982757 -0.988139 -0.422945
-1.16073 -0.77588 -0.422945
-1.16073 -0.988139 -0.22464
-0.982757 -0.77588 -0.22464
-1.16073 -0.77588 -0.22464
-0.982757 -0.988139 -0.22464
-0.982757 -0.77588 -0.422945
1.75393 1.60545 -0.498601
2.18006 1.60545 -0.498601
1.75393 1.65066 -0.498601
1.75393 1.60545 -0.281065
2.18006 1.65066 -0.281065
1.75393 1.65066 -0.281065
2.18006 1.60545 -0.281065
2.18006 1.65066 -0.498601
3.46086 0.288545 -7.43122
3.5966 0.288545 -7.43122
3.46086 0.52057 -7.43122
3.46086 0.288545 -7.33368
3.5966 0.52057 -7.33368
3.46086 0.52057 -7.33368
3.5966 0.288545 -7.33368
3.5966 0.52057 -7.43122
3.96905 1.31151 -3.62337
4.81827 1.31151 -3.62337
3.96905 1.39 -3.62337
3.96905 1.31151 -3.2809
4.81827 1.39 -3.2809
3.96905 1.39 -3.2809
4.81827 1.31151 -3.2809
4.81827 1.39 -3.62337
1.91748 1.07457 -7.1816
2.23723 1.07457 -7.1816
1.91748 1.24572 -7.1816
1.91748 1.07457 -7.04046
2.23723 1.24572 -7.04046
1.91748 1.24572 -7.04046
2.23723 1.07457 -7.04046
2.23723 1.24572 -7.1816
1.72241 0.877497 -6.04235
2.06094 0.877497 -6.04235
1.72241 1.27017 -6.04235
1.72241 0.877497 -5.52441
2.06094 1.27017 -5.52441
1.72241 1.27017 -5.52441
2.06094 0.877497 -5.52441
2.06094 1.27017 -6.04235
1.69846 0.572208 -6.53568
1.9988 0.572208 -6.53568
1.69846 0.887572 -6.53568
1.69846 0.572208 -6.17779
1.9988 0.887572 -6.17779
1.69846 0.887572 -6.17779
1.9988 0.572208 -6.17779
1.9988 0.887572 -6.53568
4.84069 1.26643 -3.39792
5.20012 1.26643 -3.39792
4.84069 1.37069 -3.39792
4.84069 1.26643 -2.87695
5.20012 1.37069 -2.87695
4.84069 1.37069 -2.87695
5.20012 1.26643 -2.87695
5.20012 1.37069 -3.39792
-1.54792 0.610731 -1.80395
-1.3005 0.610731 -1.80395
-1.54792 1.05189 -1.80395
-1.54792 0.610731 -1.15316
-1.3005 1.05189 -1.15316
-1.54792 1.05189 -1.15316
-1.3005 0.610731 -1.15316
-1.3005 1.05189 -1.80395
2.47543 1.23983 -1.94103
2.62058 1.23983 -1.94103
2.47543 1.35199 -1.94103
2.47543 1.23983 -1.77554
2.62058 1.35199 -1.77554
2.47543 1.35199 -1.77554
2.62058 1.23983 -1.77554
2.62058 1.35199 -1.94103
3.59198 -1.16517 -3.87832
3.7574 -1.16517 -3.87832
3.59198 -0.973324 -3.87832
3.59198 -1.16517 -3.60227
3.7574 -0.973324 -3.60227
3.59198 -0.973324 -3.60227
3.7574 -1.16517 -3.60227
3.7574 -0.973324 -3.87832
1.55827 -0.949484 0.0205794
1.67916 -0.949484 0.0205794
1.55827 -0.793371 0.0205794
1.55827 -0.949484 0.199131
1.67916 -0.793371 0.199131
1.55827 -0.793371 0.199131
1.67916 -0.949484 0.199131
1.67916 -0.793371 0.0205794
1.07997 -1.09445 -3.14608
1.17532 -1.09445 -3.14608
1.07997 -0.971256 -3.14608
1.07997 -1.09445 -2.99937
1.17532 -0.971256 -2.99937
1.07997 -0.971256 -2.99937
1.17532 -1.09445 -2.99937
1.17532 -0.971256 -3.14608
6.45716 -1.10311 -1.33411
6.61827 -1.10311 -1.33411
6.45716 -0.983377 -1.33411
6.45716 -1.10311 -1.21924
6.61827 -0.983377 -1.21924
6.45716 -0.983377 -1.21924
6.61827 -1.10311 -1.21924
6.61827 -0.983377 -1.33411
-1.90475 -0.515367 -4.9153
-1.80689 -0.515367 -4.9153
-1.90475 -0.328273 -4.9153
-1.90475 -0.515367 -4.78094
-1.80689 -0.328273 -4.78094
-1.90475 -0.328273 -4.78094
-1.80689 -0.515367 -4.78094
-1.80689 -0.328273 -4.9153
3.59998 -0.809337 -7.20829
3.79714 -0.809337 -7.20829
3.59998 -0.665223 -7.20829
3.59998 -0.809337 -7.10405
3.79714 -0.665223 -7.10405
3.59998 -0.665223 -7.10405
3.79714 -0.809337 -7.10405
3.79714 -0.665223 -7.20829
1.62434 -1.12615 -3.2762
1.80016 -1.12615 -3.2762
1.62434 -1.00925 -3.2762
1.62434 -1.12615 -3.07841
1.80016 -1.00925 -3.07841
1.62434 -1.00925 -3.07841
1.80016 -1.12615 -3.07841
1.80016 -1.00925 -3.2762
2.69892 -1.26341 -3.13933
2.95046 -1.26341 -3.13933
2.69892 -1.05585 -3.13933
2.69892 -1.26341 -2.77955
2.95046 -1.05585 -2.77955
2.69892 -1.05585 -2.77955
2.95046 -1.26341 -2.77955
2.95046 -1.05585 -3.13933
0.874758 -1.25096 -2.53693
1.01939 -1.25096 -2.53693
0.874758 -1.19552 -2.53693
0.874758 -1.25096 -2.37472
1.01939 -1.19552 -2.37472
0.874758 -1.19552 -2.37472
1.01939 -1.25096 -2.37472
1.01939 -1.19552 -2.53693
3.79595 -1.23896 -3.48176
4.02009 -1.23896 -3.48176
3.79595 -1.13779 -3.48176
3.79595 -1.23896 -3.27842
4.02009 -1.13779 -3.27842
3.79595 -1.13779 -3.27842
4.02009 -1.23896 -3.27842
4.02009 -1.13779 -3.48176
1.06182 -1.26003 -5.80062
1.18682 -1.26003 -5.80062
1.06182 -1.1665 -5.80062
1.06182 -1.26003 -5.63756
1.18682 -1.1665 -5.63756
1.06182 -1.1665 -5.63756
1.18682 -1.26003 -5.63756
1.18682 -1.1665 -5.80062
1.92268 -1.27305 -2.14648
2.04688 -1.27305 -2.14648
1.92268 -1.15731 -2.14648
1.92268 -1.27305 -1.97843
2.04688 -1.15731 -1.97843
1.92268 -1.15731 -1.97843
2.04688 -1.27305 -1.97843
2.04688 -1.15731 -2.14648
2.66054 -0.889633 -3.61993
2.9591 -0.889633 -3.61993
2.66054 -0.733775 -3.61993
2.66054 -0.889633 -3.47614
2.9591 -0.733775 -3.47614
2.66054 -0.733775 -3.47614
2.9591 -0.889633 -3.47614
2.9591 -0.733775 -3.61993
0 1 255 0 0
1 7 255 0 0
7 2 255 0 0
2 0 255 0 0
3 6 255 0 0
6 4 255 0 0
4 5 255 0 0
5 3 255 0 0
0 3 255 0 0
1 6 255 0 0
7 4 255 0 0
2 5 255 0 0
8 9 255 0 0
9 15 255 0 0
15 10 255 0 0
10 8 255 0 0
11 14 255 0 0
14 12 255 0 0
12 13 255 0 0
13 11 255 0 0
8 11 255 0 0
9 14 255 0 0
15 12 255 0 0
10 13 255 0 0
16 17 255 0 0
17 23 255 0 0
23 18 255 0 0
18 16 255 0 0
19 22 255 0 0
22 20 255 0 0
20 21 255 0 0
21 19 255 0 0
16 19 255 0 0
17 22 255 0 0
23 20 255 0 0
18 21 255 0 0
24 25 255 0 0
25 31 255 0 0
31 26 255 0 0
26 24 255 0 0
27 30 255 0 0
30 28 255 0 0
28 29 255 0 0
29 27 255 0 0
24 27 255 0 0
25 30 255 0 0
31 28 255 0 0
26 29 255 0 0
32 33 255 0 0
33 39 255 0 0
39 34 255 0 0
34 32 255 0 0
35 38 255 0 0
38 36 255 0 0
36 37 255 0 0
37 35 255 0 0
32 35 255 0 0
33 38 255 0 0
39 36 255 0 0
34 37 255 0 0
40 41 255 0 0
41 47 255 0 0
47 42 255 0 0
42 40 255 0 0
43 46 255 0 0
46 44 255 0 0
44 45 255 0 0
45 43 255 0 0
40 43 255 0 0
41 46 255 0 0
47 44 255 0 0
42 45 255 0 0
48 49 255 0 0
49 55 255 0 0
55 50 255 0 0
50 48 255 0 0
51 54 255 0 0
54 52 255 0 0
52 53 255 0 0
53 51 255 0 0
48 51 255 0 0
49 54 255 0 0
55 52 255 0 0
50 53 255 0 0
56 57 255 0 0
57 63 255 0 0
63 58 255 0 0
58 56 255 0 0
59 62 255 0 0
62 60 255 0 0
60 61 255 0 0
61 59 255 0 0
56 59 255 0 0
57 62 255 0 0
63 60 255 0 0
58 61 255 0 0
64 65 255 0 0
65 71 255 0 0
71 66 255 0 0
66 64 255 0 0
67 70 255 0 0
70 68 255 0 0
68 69 255 0 0
69 67 255 0 0
64 67 255 0 0
65 70 255 0 0
71 68 255 0 0
66 69 255 0 0
72 73 255 0 0
73 79 255 0 0
79 74 255 0 0
74 72 255 0 0
75 78 255 0 0
78 76 255 0 0
76 77 255 0 0
77 75 255 0 0
72 75 255 0 0
73 78 255 0 0
79 76 255 0 0
74 77 255 0 0
80 81 255 0 0
81 87 255 0 0
87 82 255 0 0
82 80 255 0 0
83 86 255 0 0
86 84 255 0 0
84 85 255 0 0
85 83 255 0 0
80 83 255 0 0
81 86 255 0 0
87 84 255 0 0
82 85 255 0 0
88 89 255 0 0
89 95 255 0 0
95 90 255 0 0
90 88 255 0 0
91 94 255 0 0
94 92 255 0 0
92 93 255 0 0
93 91 255 0 0
88 91 255 0 0
89 94 255 0 0
95 92 255 0 0
90 93 255 0 0
96 97 255 0 0
97 103 255 0 0
103 98 255 0 0
98 96 255 0 0
99 102 255 0 0
102 100 255 0 0
100 101 255 0 0
101 99 255 0 0
96 99 255 0 0
97 102 255 0 0
103 100 255 0 0
98 101 255 0 0
104 105 255 0 0
105 111 255 0 0
111 106 255 0 0
106 104 255 0 0
107 110 255 0 0
110 108 255 0 0
108 109 255 0 0
109 107 255 0 0
104 107 255 0 0
105 110 255 0 0
111 108 255 0 0
106 109 255 0 0
112 113 255 0 0
113 119 255 0 0
119 114 255 0 0
114 112 255 0 0
115 118 255 0 0
118 116 255 0 0
116 117 255 0 0
117 115 255 0 0
112 115 255 0 0
113 118 255 0 0
119 116 255 0 0
114 117 255 0 0
120 121 255 0 0
121 127 255 0 0
127 122 255 0 0
122 120 255 0 0
123 126 255 0 0
126 124 255 0 0
124 125 255 0 0
125 123 255 0 0
120 123 255 0 0
121 126 255 0 0
127 124 255 0 0
122 125 255 0 0
128 129 255 0 0
129 135 255 0 0
135 130 255 0 0
130 128 255 0 0
131 134 255 0 0
134 132 255 0 0
132 133 255 0 0
133 131 255 0 0
128 131 255 0 0
129 134 255 0 0
135 132 255 0 0
130 133 255 0 0
136 137 255 0 0
137 143 255 0 0
143 138 255 0 0
138 136 255 0 0
139 142 255 0 0
142 140 255 0 0
140 141 255 0 0
141 139 255 0 0
136 139 255 0 0
137 142 255 0 0
143 140 255 0 0
138 141 255 0 0
144 145 255 0 0
145 151 255 0 0
151 146 255 0 0
146 144 255 0 0
147 150 255 0 0
150 148 255 0 0
148 149 255 0 0
149 147 255 0 0
144 147 255 0 0
145 150 255 0 0
151 148 255 0 0
146 149 255 0 0
152 153 255 0 0
153 159 255 0 0
159 154 255 0 0
154 152 255 0 0
155 158 255 0 0
158 156 255 0 0
156 157 255 0 0
157 155 255 0 0
152 155 255 0 0
153 158 255 0 0
159 156 255 0 0
154 157 255 0 0
160 161 255 0 0
161 167 255 0 0
167 162 255 0 0
162 160 255 0 0
163 166 255 0 0
166 164 255 0 0
164 165 255 0 0
165 163 255 0 0
160 163 255 0 0
161 166 255 0 0
167 164 255 0 0
162 165 255 0 0
168 169 255 0 0
169 175 255 0 0
175 170 255 0 0
170 168 255 0 0
171 174 255 0 0
174 172 255 0 0
172 173 255 0 0
173 171 255 0 0
168 171 255 0 0
169 174 255 0 0
175 172 255 0 0
170 173 255 0 0
176 177 255 0 0
177 183 255 0 0
183 178 255 0 0
178 176 255 0 0
179 182 255 0 0
182 180 255 0 0
180 181 255 0 0
181 179 255 0 0
176 179 255 0 0
177 182 255 0 0
183 180 255 0 0
178 181 255 0 0
184 185 255 0 0
185 191 255 0 0
191 186 255 0 0
186 184 255 0 0
187 190 255 0 0
190 188 255 0 0
188 189 255 0 0
189 187 255 0 0
184 187 255 0 0
185 190 255 0 0
191 188 255 0 0
186 189 255 0 0
192 193 255 0 0
193 199 255 0 0
199 194 255 0 0
194 192 255 0 0
195 198 255 0 0
198 196 255 0 0
196 197 255 0 0
197 195 255 0 0
192 195 255 0 0
193 198 255 0 0
199 196 255 0 0
194 197 255 0 0
200 201 255 0 0
201 207 255 0 0
207 202 255 0 0
202 200 255 0 0
203 206 255 0 0
206 204 255 0 0
204 205 255 0 0
205 203 255 0 0
200 203 255 0 0
201 206 255 0 0
207 204 255 0 0
202 205 255 0 0
208 209 255 0 0
209 215 255 0 0
215 210 255 0 0
210 208 255 0 0
211 214 255 0 0
214 212 255 0 0
212 213 255 0 0
213 211 255 0 0
208 211 255 0 0
209 214 255 0 0
215 212 255 0 0
210 213 255 0 0
216 217 255 0 0
217 223 255 0 0
223 218 255 0 0
218 216 255 0 0
219 222 255 0 0
222 220 255 0 0
220 221 255 0 0
221 219 255 0 0
216 219 255 0 0
217 222 255 0 0
223 220 255 0 0
218 221 255 0 0
224 225 255 0 0
225 231 255 0 0
231 226 255 0 0
226 224 255 0 0
227 230 255 0 0
230 228 255 0 0
228 229 255 0 0
229 227 255 0 0
224 227 255 0 0
225 230 255 0 0
231 228 255 0 0
226 229 255 0 0
232 233 255 0 0
233 239 255 0 0
239 234 255 0 0
234 232 255 0 0
235 238 255 0 0
238 236 255 0 0
236 237 255 0 0
237 235 255 0 0
232 235 255 0 0
233 238 255 0 0
239 236 255 0 0
234 237 255 0 0
240 241 255 0 0
241 247 255 0 0
247 242 255 0 0
242 240 255 0 0
243 246 255 0 0
246 244 255 0 0
244 245 255 0 0
245 243 255 0 0
240 243 255 0 0
241 246 255 0 0
247 244 255 0 0
242 245 255 0 0
248 249 255 0 0
249 255 255 0 0
255 250 255 0 0
250 248 255 0 0
251 254 255 0 0
254 252 255 0 0
252 253 255 0 0
253 251 255 0 0
248 251 255 0 0
249 254 255 0 0
255 252 255 0 0
250 253 255 0 0
256 257 255 0 0
257 263 255 0 0
263 258 255 0 0
258 256 255 0 0
259 262 255 0 0
262 260 255 0 0
260 261 255 0 0
261 259 255 0 0
256 259 255 0 0
257 262 255 0 0
263 260 255 0 0
258 261 255 0 0
264 265 255 0 0
265 271 255 0 0
271 266 255 0 0
266 264 255 0 0
267 270 255 0 0
270 268 255 0 0
268 269 255 0 0
269 267 255 0 0
264 267 255 0 0
265 270 255 0 0
271 268 255 0 0
266 269 255 0 0
272 273 255 0 0
273 279 255 0 0
279 274 255 0 0
274 272 255 0 0
275 278 255 0 0
278 276 255 0 0
276 277 255 0 0
277 275 255 0 0
272 275 255 0 0
273 278 255 0 0
279 276 255 0 0
274 277 255 0 0
280 281 255 0 0
281 287 255 0 0
287 282 255 0 0
282 280 255 0 0
283 286 255 0 0
286 284 255 0 0
284 285 255 0 0
285 283 255 0 0
280 283 255 0 0
281 286 255 0 0
287 284 255 0 0
282 285 255 0 0
288 289 255 0 0
289 295 255 0 0
295 290 255 0 0
290 288 255 0 0
291 294 255 0 0
294 292 255 0 0
292 293 255 0 0
293 291 255 0 0
288 291 255 0 0
289 294 255 0 0
295 292 255 0 0
290 293 255 0 0
296 297 255 0 0
297 303 255 0 0
303 298 255 0 0
298 296 255 0 0
299 302 255 0 0
302 300 255 0 0
300 301 255 0 0
301 299 255 0 0
296 299 255 0 0
297 302 255 0 0
303 300 255 0 0
298 301 255 0 0
304 305 255 0 0
305 311 255 0 0
311 306 255 0 0
306 304 255 0 0
307 310 255 0 0
310 308 255 0 0
308 309 255 0 0
309 307 255 0 0
304 307 255 0 0
305 310 255 0 0
311 308 255 0 0
306 309 255 0 0
312 313 255 0 0
313 319 255 0 0
319 314 255 0 0
314 312 255 0 0
315 318 255 0 0
318 316 255 0 0
316 317 255 0 0
317 315 255 0 0
312 315 255 0 0
313 318 255 0 0
319 316 255 0 0
314 317 255 0 0
320 321 255 0 0
321 327 255 0 0
327 322 255 0 0
322 320 255 0 0
323 326 255 0 0
326 324 255 0 0
324 325 255 0 0
325 323 255 0 0
320 323 255 0 0
321 326 255 0 0
327 324 255 0 0
322 325 255 0 0
328 329 255 0 0
329 335 255 0 0
335 330 255 0 0
330 328 255 0 0
331 334 255 0 0
334 332 255 0 0
332 333 255 0 0
333 331 255 0 0
328 331 255 0 0
329 334 255 0 0
335 332 255 0 0
330 333 255 0 0
336 337 255 0 0
337 343 255 0 0
343 338 255 0 0
338 336 255 0 0
339 342 255 0 0
342 340 255 0 0
340 341 255 0 0
341 339 255 0 0
336 339 255 0 0
337 342 255 0 0
343 340 255 0 0
338 341 255 0 0
344 345 255 0 0
345 351 255 0 0
351 346 255 0 0
346 344 255 0 0
347 350 255 0 0
350 348 255 0 0
348 349 255 0 0
349 347 255 0 0
344 347 255 0 0
345 350 255 0 0
351 348 255 0 0
346 349 255 0 0
352 353 255 0 0
353 359 255 0 0
359 354 255 0 0
354 352 255 0 0
355 358 255 0 0
358 356 255 0 0
356 357 255 0 0
357 355 255 0 0
352 355 255 0 0
353 358 255 0 0
359 356 255 0 0
354 357 255 0 0
360 361 255 0 0
361 367 255 0 0
367 362 255 0 0
362 360 255 0 0
363 366 255 0 0
366 364 255 0 0
364 365 255 0 0
365 363 255 0 0
360 363 255 0 0
361 366 255 0 0
367 364 255 0 0
362 365 255 0 0
368 369 255 0 0
369 375 255 0 0
375 370 255 0 0
370 368 255 0 0
371 374 255 0 0
374 372 255 0 0
372 373 255 0 0
373 371 255 0 0
368 371 255 0 0
369 374 255 0 0
375 372 255 0 0
370 373 255 0 0
