ply
format ascii 1.0
comment Created by Open3D
element vertex 120
property double x
property double y
property double z
element edge 180
property int vertex1
property int vertex2
property uchar red
property uchar green
property uchar blue
end_header
-0.470507 -1.18572 1.22878
0.649093 -1.18572 1.22878
-0.470507 -0.235254 1.22878
-0.470507 -1.18572 2.52933
0.649093 -0.235254 2.52933
-0.470507 -0.235254 2.52933
0.649093 -1.18572 2.52933
0.649093 -0.235254 1.22878
0.768907 -1.334 2.72626
3.02763 -1.334 2.72626
0.768907 -0.0587545 2.72626
0.768907 -1.334 4.46623
3.02763 -0.0587545 4.46623
0.768907 -0.0587545 4.46623
3.02763 -1.334 4.46623
3.02763 -0.0587545 2.72626
0.370914 -1.35045 -1.05462
1.78554 -1.35045 -1.05462
0.370914 0.48538 -1.05462
0.370914 -1.35045 0.677089
1.78554 0.48538 0.677089
0.370914 0.48538 0.677089
1.78554 -1.35045 0.677089
1.78554 0.48538 -1.05462
2.47073 -1.33162 1.39216
4.36739 -1.33162 1.39216
2.47073 -0.169314 1.39216
2.47073 -1.33162 3.18353
4.36739 -0.169314 3.18353
2.47073 -0.169314 3.18353
4.36739 -1.33162 3.18353
4.36739 -0.169314 1.39216
1.25272 -1.3542 0.445438
2.44586 -1.3542 0.445438
1.25272 0.719781 0.445438
1.25272 -1.3542 1.27849
2.44586 0.719781 1.27849
1.25272 0.719781 1.27849
2.44586 -1.3542 1.27849
2.44586 0.719781 0.445438
-1.52611 -1.27452 -0.413709
-0.652556 -1.27452 -0.413709
-1.52611 -0.572077 -0.413709
-1.52611 -1.27452 0.257866
-0.652556 -0.572077 0.257866
-1.52611 -0.572077 0.257866
-0.652556 -1.27452 0.257866
-0.652556 -0.572077 -0.413709
-1.1505 -1.23091 0.663262
0.144385 -1.23091 0.663262
-1.1505 -0.12708 0.663262
-1.1505 -1.23091 1.88212
0.144385 -0.12708 1.88212
-1.1505 -0.12708 1.88212
0.144385 -1.23091 1.88212
0.144385 -0.12708 0.663262
0.312299 -1.19318 -1.17798
0.446762 -1.19318 -1.17798
0.312299 -1.02976 -1.17798
0.312299 -1.19318 -1.05501
0.446762 -1.02976 -1.05501
0.312299 -1.02976 -1.05501
0.446762 -1.19318 -1.05501
0.446762 -1.02976 -1.17798
0.951105 -1.33089 -0.0766852
1.47241 -1.33089 -0.0766852
0.951105 -1.06692 -0.0766852
0.951105 -1.33089 0.349074
1.47241 -1.06692 0.349074
0.951105 -1.06692 0.349074
1.47241 -1.33089 0.349074
1.47241 -1.06692 -0.0766852
0.07483 -1.23807 -0.213188
0.882933 -1.23807 -0.213188
0.07483 -0.653416 -0.213188
0.07483 -1.23807 0.431687
0.882933 -0.653416 0.431687
0.07483 -0.653416 0.431687
0.882933 -1.23807 0.431687
0.882933 -0.653416 -0.213188
3.46244 -1.2695 3.52954
3.95705 -1.2695 3.52954
3.46244 -0.825556 3.52954
3.46244 -1.2695 4.06676
3.95705 -0.825556 4.06676
3.46244 -0.825556 4.06676
3.95705 -1.2695 4.06676
3.95705 -0.825556 3.52954
1.55998 -1.19371 0.469718
1.84806 -1.19371 0.469718
1.55998 -0.649758 0.469718
1.55998 -1.19371 0.840928
1.84806 -0.649758 0.840928
1.55998 -0.649758 0.840928
1.84806 -1.19371 0.840928
1.84806 -0.649758 0.469718
1.63446 -0.689595 0.563695
1.81121 -0.689595 0.563695
1.63446 -0.56876 0.563695
1.63446 -0.689595 0.765559
1.81121 -0.56876 0.765559
1.63446 -0.56876 0.765559
1.81121 -0.689595 0.765559
1.81121 -0.56876 0.563695
4.70907 -1.40307 2.70563
4.87347 -1.40307 2.70563
4.70907 -1.28915 2.70563
4.70907 -1.40307 2.93168
4.87347 -1.28915 2.93168
4.70907 -1.28915 2.93168
4.87347 -1.40307 2.93168
4.87347 -1.28915 2.70563
-0.36823 -0.394018 1.84782
-0.129351 -0.394018 1.84782
-0.36823 -0.232174 1.84782
-0.36823 -0.394018 1.98768
-0.129351 -0.232174 1.98768
-0.36823 -0.232174 1.98768
-0.129351 -0.394018 1.98768
-0.129351 -0.232174 1.84782
0 1 255 0 0
1 7 255 0 0
7 2 255 0 0
2 0 255 0 0
3 6 255 0 0
6 4 255 0 0
4 5 255 0 0
5 3 255 0 0
0 3 255 0 0
1 6 255 0 0
7 4 255 0 0
2 5 255 0 0
8 9 255 0 0
9 15 255 0 0
15 10 255 0 0
10 8 255 0 0
11 14 255 0 0
14 12 255 0 0
12 13 255 0 0
13 11 255 0 0
8 11 255 0 0
9 14 255 0 0
15 12 255 0 0
10 13 255 0 0
16 17 255 0 0
17 23 255 0 0
23 18 255 0 0
18 16 255 0 0
19 22 255 0 0
22 20 255 0 0
20 21 255 0 0
21 19 255 0 0
16 19 255 0 0
17 22 255 0 0
23 20 255 0 0
18 21 255 0 0
24 25 255 0 0
25 31 255 0 0
31 26 255 0 0
26 24 255 0 0
27 30 255 0 0
30 28 255 0 0
28 29 255 0 0
29 27 255 0 0
24 27 255 0 0
25 30 255 0 0
31 28 255 0 0
26 29 255 0 0
32 33 255 0 0
33 39 255 0 0
39 34 255 0 0
34 32 255 0 0
35 38 255 0 0
38 36 255 0 0
36 37 255 0 0
37 35 255 0 0
32 35 255 0 0
33 38 255 0 0
39 36 255 0 0
34 37 255 0 0
40 41 255 0 0
41 47 255 0 0
47 42 255 0 0
42 40 255 0 0
43 46 255 0 0
46 44 255 0 0
44 45 255 0 0
45 43 255 0 0
40 43 255 0 0
41 46 255 0 0
47 44 255 0 0
42 45 255 0 0
48 49 255 0 0
49 55 255 0 0
55 50 255 0 0
50 48 255 0 0
51 54 255 0 0
54 52 255 0 0
52 53 255 0 0
53 51 255 0 0
48 51 255 0 0
49 54 255 0 0
55 52 255 0 0
50 53 255 0 0
56 57 255 0 0
57 63 255 0 0
63 58 255 0 0
58 56 255 0 0
59 62 255 0 0
62 60 255 0 0
60 61 255 0 0
61 59 255 0 0
56 59 255 0 0
57 62 255 0 0
63 60 255 0 0
58 61 255 0 0
64 65 255 0 0
65 71 255 0 0
71 66 255 0 0
66 64 255 0 0
67 70 255 0 0
70 68 255 0 0
68 69 255 0 0
69 67 255 0 0
64 67 255 0 0
65 70 255 0 0
71 68 255 0 0
66 69 255 0 0
72 73 255 0 0
73 79 255 0 0
79 74 255 0 0
74 72 255 0 0
75 78 255 0 0
78 76 255 0 0
76 77 255 0 0
77 75 255 0 0
72 75 255 0 0
73 78 255 0 0
79 76 255 0 0
74 77 255 0 0
80 81 255 0 0
81 87 255 0 0
87 82 255 0 0
82 80 255 0 0
83 86 255 0 0
86 84 255 0 0
84 85 255 0 0
85 83 255 0 0
80 83 255 0 0
81 86 255 0 0
87 84 255 0 0
82 85 255 0 0
88 89 255 0 0
89 95 255 0 0
95 90 255 0 0
90 88 255 0 0
91 94 255 0 0
94 92 255 0 0
92 93 255 0 0
93 91 255 0 0
88 91 255 0 0
89 94 255 0 0
95 92 255 0 0
90 93 255 0 0
96 97 255 0 0
97 103 255 0 0
103 98 255 0 0
98 96 255 0 0
99 102 255 0 0
102 100 255 0 0
100 101 255 0 0
101 99 255 0 0
96 99 255 0 0
97 102 255 0 0
103 100 255 0 0
98 101 255 0 0
104 105 255 0 0
105 111 255 0 0
111 106 255 0 0
106 104 255 0 0
107 110 255 0 0
110 108 255 0 0
108 109 255 0 0
109 107 255 0 0
104 107 255 0 0
105 110 255 0 0
111 108 255 0 0
106 109 255 0 0
112 113 255 0 0
113 119 255 0 0
119 114 255 0 0
114 112 255 0 0
115 118 255 0 0
118 116 255 0 0
116 117 255 0 0
117 115 255 0 0
112 115 255 0 0
113 118 255 0 0
119 116 255 0 0
114 117 255 0 0
