ply
format ascii 1.0
comment Created by Open3D
element vertex 160
property double x
property double y
property double z
element edge 240
property int vertex1
property int vertex2
property uchar red
property uchar green
property uchar blue
end_header
-0.486725 -1.27276 1.18583
0.664915 -1.27276 1.18583
-0.486725 -0.232227 1.18583
-0.486725 -1.27276 2.56462
0.664915 -0.232227 2.56462
-0.486725 -0.232227 2.56462
0.664915 -1.27276 2.56462
0.664915 -0.232227 1.18583
0.736772 -1.35331 2.71216
3.04714 -1.35331 2.71216
0.736772 -0.0585539 2.71216
0.736772 -1.35331 4.52143
3.04714 -0.0585539 4.52143
0.736772 -0.0585539 4.52143
3.04714 -1.35331 4.52143
3.04714 -0.0585539 2.71216
0.369831 -1.36609 -1.07743
1.79195 -1.36609 -1.07743
0.369831 0.487144 -1.07743
0.369831 -1.36609 0.677089
1.79195 0.487144 0.677089
0.369831 0.487144 0.677089
1.79195 -1.36609 0.677089
1.79195 0.487144 -1.07743
2.4559 -1.35428 1.38065
4.39244 -1.35428 1.38065
2.4559 -0.169314 1.38065
2.4559 -1.35428 3.19961
4.39244 -0.169314 3.19961
2.4559 -0.169314 3.19961
4.39244 -1.35428 3.19961
4.39244 -0.169314 1.38065
1.25272 -1.37517 0.425801
2.44586 -1.37517 0.425801
1.25272 0.729669 0.425801
1.25272 -1.37517 1.29751
2.44586 0.729669 1.29751
1.25272 0.729669 1.29751
2.44586 -1.37517 1.29751
2.44586 0.729669 0.425801
-1.54655 -1.29275 -0.434114
-0.64972 -1.29275 -0.434114
-1.54655 -0.572077 -0.434114
-1.54655 -1.29275 0.262459
-0.64972 -0.572077 0.262459
-1.54655 -0.572077 0.262459
-0.64972 -1.29275 0.262459
-0.64972 -0.572077 -0.434114
-1.17113 -1.27031 0.649382
0.148305 -1.27031 0.649382
-1.17113 -0.111366 0.649382
-1.17113 -1.27031 1.90303
0.148305 -0.111366 1.90303
-1.17113 -0.111366 1.90303
0.148305 -1.27031 1.90303
0.148305 -0.111366 0.649382
0.299866 -1.21344 -1.21395
0.463151 -1.21344 -1.21395
0.299866 -1.01023 -1.21395
0.299866 -1.21344 -1.05501
0.463151 -1.01023 -1.05501
0.299866 -1.01023 -1.05501
0.463151 -1.21344 -1.05501
0.463151 -1.01023 -1.21395
-0.36474 -0.283245 1.71386
-0.193971 -0.283245 1.71386
-0.36474 -0.187316 1.71386
-0.36474 -0.283245 1.89689
-0.193971 -0.187316 1.89689
-0.36474 -0.187316 1.89689
-0.193971 -0.283245 1.89689
-0.193971 -0.187316 1.71386
0.0369714 -1.22984 -1.49238
0.288001 -1.22984 -1.49238
0.0369714 -1.05428 -1.49238
0.0369714 -1.22984 -1.25222
0.288001 -1.05428 -1.25222
0.0369714 -1.05428 -1.25222
0.288001 -1.22984 -1.25222
0.288001 -1.05428 -1.49238
-1.47028 -0.10452 0.0704269
-1.19768 -0.10452 0.0704269
-1.47028 0.226892 0.0704269
-1.47028 -0.10452 0.321727
-1.19768 0.226892 0.321727
-1.47028 0.226892 0.321727
-1.19768 -0.10452 0.321727
-1.19768 0.226892 0.0704269
-0.863766 0.748422 -1.41247
-0.506326 0.748422 -1.41247
-0.863766 1.00694 -1.41247
-0.863766 0.748422 -0.960772
-0.506326 1.00694 -0.960772
-0.863766 1.00694 -0.960772
-0.506326 0.748422 -0.960772
-0.506326 1.00694 -1.41247
4.67639 -1.40946 2.66346
4.89304 -1.40946 2.66346
4.67639 -1.27852 2.66346
4.67639 -1.40946 2.96576
4.89304 -1.27852 2.96576
4.67639 -1.27852 2.96576
4.89304 -1.40946 2.96576
4.89304 -1.27852 2.66346
0.951105 -1.33196 -0.0889531
1.50295 -1.33196 -0.0889531
0.951105 -1.05425 -0.0889531
0.951105 -1.33196 0.367842
1.50295 -1.05425 0.367842
0.951105 -1.05425 0.367842
1.50295 -1.33196 0.367842
1.50295 -1.05425 -0.0889531
0.0648287 -1.27244 -0.248927
0.926171 -1.27244 -0.248927
0.0648287 -0.604628 -0.248927
0.0648287 -1.27244 0.457127
0.926171 -0.604628 0.457127
0.0648287 -0.604628 0.457127
0.926171 -1.27244 0.457127
0.926171 -0.604628 -0.248927
3.46244 -1.2941 3.52684
3.98864 -1.2941 3.52684
3.46244 -0.81458 3.52684
3.46244 -1.2941 4.0863
3.98864 -0.81458 4.0863
3.46244 -0.81458 4.0863
3.98864 -1.2941 4.0863
3.98864 -0.81458 3.52684
1.62591 -0.690528 0.563338
1.82877 -0.690528 0.563338
1.62591 -0.531484 0.563338
1.62591 -0.690528 0.796201
1.82877 -0.531484 0.796201
1.62591 -0.531484 0.796201
1.82877 -0.690528 0.796201
1.82877 -0.531484 0.563338
0.910135 -1.27311 0.196311
1.03035 -1.27311 0.196311
0.910135 -1.16711 0.196311
0.910135 -1.27311 0.403759
1.03035 -1.16711 0.403759
0.910135 -1.16711 0.403759
1.03035 -1.27311 0.403759
1.03035 -1.16711 0.196311
2.49861 -1.33214 1.00477
2.62855 -1.33214 1.00477
2.49861 -1.21985 1.00477
2.49861 -1.33214 1.16771
2.62855 -1.21985 1.16771
2.49861 -1.21985 1.16771
2.62855 -1.33214 1.16771
2.62855 -1.21985 1.00477
-0.38451 -0.410494 1.84782
-0.1107 -0.410494 1.84782
-0.38451 -0.214563 1.84782
-0.38451 -0.410494 1.98768
-0.1107 -0.214563 1.98768
-0.38451 -0.214563 1.98768
-0.1107 -0.410494 1.98768
-0.1107 -0.214563 1.84782
0 1 255 0 0
1 7 255 0 0
7 2 255 0 0
2 0 255 0 0
3 6 255 0 0
6 4 255 0 0
4 5 255 0 0
5 3 255 0 0
0 3 255 0 0
1 6 255 0 0
7 4 255 0 0
2 5 255 0 0
8 9 255 0 0
9 15 255 0 0
15 10 255 0 0
10 8 255 0 0
11 14 255 0 0
14 12 255 0 0
12 13 255 0 0
13 11 255 0 0
8 11 255 0 0
9 14 255 0 0
15 12 255 0 0
10 13 255 0 0
16 17 255 0 0
17 23 255 0 0
23 18 255 0 0
18 16 255 0 0
19 22 255 0 0
22 20 255 0 0
20 21 255 0 0
21 19 255 0 0
16 19 255 0 0
17 22 255 0 0
23 20 255 0 0
18 21 255 0 0
24 25 255 0 0
25 31 255 0 0
31 26 255 0 0
26 24 255 0 0
27 30 255 0 0
30 28 255 0 0
28 29 255 0 0
29 27 255 0 0
24 27 255 0 0
25 30 255 0 0
31 28 255 0 0
26 29 255 0 0
32 33 255 0 0
33 39 255 0 0
39 34 255 0 0
34 32 255 0 0
35 38 255 0 0
38 36 255 0 0
36 37 255 0 0
37 35 255 0 0
32 35 255 0 0
33 38 255 0 0
39 36 255 0 0
34 37 255 0 0
40 41 255 0 0
41 47 255 0 0
47 42 255 0 0
42 40 255 0 0
43 46 255 0 0
46 44 255 0 0
44 45 255 0 0
45 43 255 0 0
40 43 255 0 0
41 46 255 0 0
47 44 255 0 0
42 45 255 0 0
48 49 255 0 0
49 55 255 0 0
55 50 255 0 0
50 48 255 0 0
51 54 255 0 0
54 52 255 0 0
52 53 255 0 0
53 51 255 0 0
48 51 255 0 0
49 54 255 0 0
55 52 255 0 0
50 53 255 0 0
56 57 255 0 0
57 63 255 0 0
63 58 255 0 0
58 56 255 0 0
59 62 255 0 0
62 60 255 0 0
60 61 255 0 0
61 59 255 0 0
56 59 255 0 0
57 62 255 0 0
63 60 255 0 0
58 61 255 0 0
64 65 255 0 0
65 71 255 0 0
71 66 255 0 0
66 64 255 0 0
67 70 255 0 0
70 68 255 0 0
68 69 255 0 0
69 67 255 0 0
64 67 255 0 0
65 70 255 0 0
71 68 255 0 0
66 69 255 0 0
72 73 255 0 0
73 79 255 0 0
79 74 255 0 0
74 72 255 0 0
75 78 255 0 0
78 76 255 0 0
76 77 255 0 0
77 75 255 0 0
72 75 255 0 0
73 78 255 0 0
79 76 255 0 0
74 77 255 0 0
80 81 255 0 0
81 87 255 0 0
87 82 255 0 0
82 80 255 0 0
83 86 255 0 0
86 84 255 0 0
84 85 255 0 0
85 83 255 0 0
80 83 255 0 0
81 86 255 0 0
87 84 255 0 0
82 85 255 0 0
88 89 255 0 0
89 95 255 0 0
95 90 255 0 0
90 88 255 0 0
91 94 255 0 0
94 92 255 0 0
92 93 255 0 0
93 91 255 0 0
88 91 255 0 0
89 94 255 0 0
95 92 255 0 0
90 93 255 0 0
96 97 255 0 0
97 103 255 0 0
103 98 255 0 0
98 96 255 0 0
99 102 255 0 0
102 100 255 0 0
100 101 255 0 0
101 99 255 0 0
96 99 255 0 0
97 102 255 0 0
103 100 255 0 0
98 101 255 0 0
104 105 255 0 0
105 111 255 0 0
111 106 255 0 0
106 104 255 0 0
107 110 255 0 0
110 108 255 0 0
108 109 255 0 0
109 107 255 0 0
104 107 255 0 0
105 110 255 0 0
111 108 255 0 0
106 109 255 0 0
112 113 255 0 0
113 119 255 0 0
119 114 255 0 0
114 112 255 0 0
115 118 255 0 0
118 116 255 0 0
116 117 255 0 0
117 115 255 0 0
112 115 255 0 0
113 118 255 0 0
119 116 255 0 0
114 117 255 0 0
120 121 255 0 0
121 127 255 0 0
127 122 255 0 0
122 120 255 0 0
123 126 255 0 0
126 124 255 0 0
124 125 255 0 0
125 123 255 0 0
120 123 255 0 0
121 126 255 0 0
127 124 255 0 0
122 125 255 0 0
128 129 255 0 0
129 135 255 0 0
135 130 255 0 0
130 128 255 0 0
131 134 255 0 0
134 132 255 0 0
132 133 255 0 0
133 131 255 0 0
128 131 255 0 0
129 134 255 0 0
135 132 255 0 0
130 133 255 0 0
136 137 255 0 0
137 143 255 0 0
143 138 255 0 0
138 136 255 0 0
139 142 255 0 0
142 140 255 0 0
140 141 255 0 0
141 139 255 0 0
136 139 255 0 0
137 142 255 0 0
143 140 255 0 0
138 141 255 0 0
144 145 255 0 0
145 151 255 0 0
151 146 255 0 0
146 144 255 0 0
147 150 255 0 0
150 148 255 0 0
148 149 255 0 0
149 147 255 0 0
144 147 255 0 0
145 150 255 0 0
151 148 255 0 0
146 149 255 0 0
152 153 255 0 0
153 159 255 0 0
159 154 255 0 0
154 152 255 0 0
155 158 255 0 0
158 156 255 0 0
156 157 255 0 0
157 155 255 0 0
152 155 255 0 0
153 158 255 0 0
159 156 255 0 0
154 157 255 0 0
