ply
format ascii 1.0
comment Created by Open3D
element vertex 1261
property double x
property double y
property double z
property uchar red
property uchar green
property uchar blue
end_header
-1.35011 0.0692249 0.262667 180 185 221
-1.34293 0.0714577 0.127098 107 121 166
-1.30866 -0.00456788 0.30485 161 161 163
-1.32717 0.0493146 0.288292 174 177 199
-1.32098 -0.00336453 0.0730271 70 80 115
-1.31518 0.165615 0.128801 187 190 198
-1.27032 0.0489504 0.185237 232 237 245
-1.40622 0.152687 0.106176 191 195 201
-1.309 0.0481724 0.085906 76 87 122
-1.3312 0.204632 0.167803 129 135 138
-1.35071 0.148874 0.225031 123 129 176
-1.38647 0.169619 0.242104 147 147 154
-1.28629 -0.0103286 0.224239 155 157 164
-1.34649 0.0495747 0.205481 179 186 206
-1.46081 0.101975 0.254045 175 181 241
-1.40972 0.204272 0.186028 149 154 184
-1.44585 0.1499 0.241074 195 195 195
-1.44384 0.0307542 0.283671 161 161 173
-1.27346 0.107433 0.126639 69 84 133
-1.37936 0.118596 0.119868 202 204 203
-1.23203 -0.0307108 0.145597 147 155 180
-1.32737 0.0295407 0.30545 162 164 179
-1.26814 0.0295109 0.247071 159 165 201
-1.35027 0.149195 0.165649 150 156 167
-1.34825 0.207633 0.246038 159 162 194
-1.37421 0.223012 0.25852 203 201 199
-1.23902 0.0227916 0.113754 65 79 122
-1.40895 0.0461738 0.285312 180 180 190
-1.28963 0.127012 0.18496 225 227 232
-1.25522 0.00793454 0.108944 78 88 126
-1.21635 0.00814951 0.173621 225 229 237
-1.2719 0.0661425 0.283732 181 186 218
-1.25201 0.0286897 0.185652 227 232 241
-1.30837 0.0295883 0.286879 171 174 195
-1.38789 0.150819 0.245631 159 160 167
-1.28811 0.168152 0.204341 86 97 117
-1.21471 -0.0100282 0.221476 225 229 237
-1.4426 0.0483944 0.288218 156 160 180
-1.25466 0.10664 0.165917 186 195 215
-1.28701 -0.071591 0.147153 232 237 243
-1.36437 -0.00615122 0.261019 106 113 152
-1.27017 0.0125636 0.265715 148 153 180
-1.34935 0.128938 0.243581 147 152 201
-1.25421 0.0314761 0.284291 191 191 193
-1.40917 0.0869938 0.28468 199 197 207
-1.26686 0.127639 0.205718 141 146 166
-1.33182 0.16811 0.127802 164 168 177
-1.30898 0.00945493 0.225076 144 149 175
-1.36676 0.0710626 0.248926 181 185 225
-1.3114 -0.0508469 0.217871 128 130 133
-1.39185 0.203401 0.112709 102 108 123
-1.28709 0.0695449 0.106212 71 85 130
-1.3502 0.206448 0.131128 113 119 139
-1.28676 0.0873868 0.284107 154 158 195
-1.30833 0.187289 0.185185 87 95 109
-1.34925 0.207049 0.145766 133 137 147
-1.21374 -0.0122468 0.171706 225 230 236
-1.3309 0.187289 0.164246 115 123 131
-1.22604 0.0706214 0.226274 236 242 250
-1.26883 -0.0705227 0.165499 199 201 204
-1.32427 -0.0105546 0.123774 89 104 150
-1.40878 0.165195 0.117189 219 223 226
-1.39301 0.0276274 0.299363 127 126 133
-1.3535 -0.0162637 0.100043 96 107 149
-1.34612 0.0090411 0.188624 228 233 241
-1.36302 -0.0720005 0.172889 172 173 171
-1.27215 0.069244 0.223339 198 202 221
-1.41017 0.109427 0.24576 172 175 183
-1.32805 0.127747 0.26469 163 165 182
-1.32455 0.0674026 0.301088 191 190 211
-1.32554 -0.0905061 0.167478 237 242 248
-1.25142 0.00890425 0.165959 225 229 237
-1.30845 0.0662061 0.303919 189 188 204
-1.289 0.00941681 0.246016 130 137 175
-1.22165 0.0298515 0.210305 232 238 246
-1.34955 0.00992932 0.224319 155 162 195
-1.33294 0.0292156 0.0899874 90 101 136
-1.30809 0.108526 0.20635 197 203 219
-1.27224 0.148226 0.238754 139 151 217
-1.23171 -0.0490162 0.164025 219 222 228
-1.34398 0.0310061 0.0905719 86 102 144
-1.33036 0.129655 0.206245 174 181 213
-1.29439 0.0804162 0.299722 176 174 203
-1.25213 0.00879639 0.184871 227 232 240
-1.28901 0.0101395 0.285355 145 148 164
-1.31113 -0.0521837 0.166526 237 241 248
-1.27452 -0.0842268 0.110586 139 139 143
-1.38643 0.209767 0.207593 141 148 195
-1.34995 0.0111185 0.243544 149 155 191
-1.25046 -0.0503663 0.124964 118 127 150
-1.30849 -0.0520359 0.144493 233 238 245
-1.25154 0.0288138 0.146892 104 118 159
-1.25254 -0.0700984 0.202068 142 144 150
-1.32962 0.028459 0.209559 145 149 166
-1.30904 -0.00477276 0.284322 165 166 171
-1.28997 0.0887343 0.223632 196 202 222
-1.32281 -0.031519 0.104005 104 115 149
-1.34661 0.0501335 0.105043 74 93 147
-1.3508 0.0282092 0.105295 71 87 144
-1.41466 0.222 0.149165 90 96 108
-1.30748 0.089797 0.245159 164 172 221
-1.2938 0.166262 0.241019 157 164 206
-1.30972 0.128977 0.261915 127 130 159
-1.29058 0.0298925 0.265429 147 153 194
-1.35205 0.0887051 0.262127 169 173 204
-1.30722 -0.0521114 0.188137 219 223 231
-1.36702 0.187896 0.166044 60 71 90
-1.26692 0.0291477 0.26554 140 146 182
-1.38966 0.203952 0.241034 159 160 167
-1.25032 0.00963951 0.126135 68 83 132
-1.28947 -0.0490858 0.143964 223 228 238
-1.28741 0.0898902 0.106729 72 86 129
-1.25206 0.0479499 0.124897 61 77 130
-1.31187 0.125188 0.106618 92 104 141
-1.27028 0.0294251 0.185211 228 233 242
-1.24719 0.109861 0.225435 162 171 190
-1.36968 0.189525 0.205537 137 146 203
-1.31138 0.144947 0.109438 192 196 205
-1.30882 0.0700008 0.0867307 77 87 123
-1.2358 0.00838317 0.146864 125 136 168
-1.347 0.127841 0.261664 141 144 159
-1.34775 -0.0500475 0.201727 119 124 130
-1.40686 0.0319426 0.267318 172 173 194
-1.3519 0.16808 0.185557 102 109 135
-1.32962 0.129674 0.164903 202 205 211
-1.36841 0.168419 0.16551 91 100 116
-1.27073 0.107126 0.165265 219 225 237
-1.34893 0.168341 0.246202 159 163 183
-1.32933 0.129984 0.145781 181 187 202
-1.38336 0.116997 0.0866588 131 139 165
-1.35067 0.0305827 0.242778 154 159 190
-1.40571 0.209032 0.164607 93 100 116
-1.34988 0.147751 0.243905 148 153 189
-1.26954 0.00947775 0.184786 226 230 238
-1.26698 -0.0881968 0.18528 195 196 199
-1.36917 0.00787371 0.20391 115 121 141
-1.25883 -0.0347088 0.0908162 80 87 117
-1.28979 0.0280305 0.12545 62 83 139
-1.45045 0.0694224 0.222668 185 191 223
-1.23029 0.0892872 0.206043 239 245 253
-1.32986 0.127985 0.225437 126 135 190
-1.30578 -0.0116597 0.126119 111 127 168
-1.26864 0.0283029 0.285979 161 165 192
-1.24967 0.0691123 0.144499 60 79 135
-1.46373 0.0861516 0.226225 157 160 188
-1.40334 0.102643 0.278537 200 196 199
-1.31172 0.204911 0.186589 76 82 98
-1.3899 0.130333 0.225136 127 137 187
-1.22979 -0.0301038 0.113501 87 95 116
-1.2902 0.0491075 0.0896529 81 91 123
-1.36415 0.153115 0.207072 148 157 215
-1.3645 0.13018 0.226847 127 135 181
-1.29283 0.128 0.263843 126 131 174
-1.28848 -0.0106119 0.204421 197 201 211
-1.37026 0.204256 0.22469 139 143 173
-1.38835 0.0692388 0.285076 186 186 214
-1.23348 0.00933237 0.184575 227 230 238
-1.29494 0.147719 0.132229 201 202 212
-1.25556 0.030392 0.246167 146 151 168
-1.2549 0.130005 0.16752 166 170 189
-1.26704 0.049747 0.145189 103 119 161
-1.32882 0.10676 0.262843 162 167 199
-1.34526 0.0706121 0.104894 77 95 147
-1.38684 0.0491908 0.267659 179 181 207
-1.30746 0.0686202 0.225328 166 173 205
-1.30607 0.0895029 0.144828 114 129 172
-1.36879 0.206402 0.144694 136 141 148
-1.25528 0.0689408 0.127006 60 76 132
-1.32953 0.00871892 0.183378 228 233 241
-1.34556 0.050237 0.0873025 87 98 137
-1.2711 0.124982 0.147235 104 118 156
-1.30629 0.0899432 0.225859 174 182 216
-1.36627 -0.0621789 0.19597 139 139 137
-1.27126 0.00871391 0.106862 75 87 127
-1.28832 0.0700761 0.245529 177 183 225
-1.32812 0.129393 0.12631 130 139 167
-1.29109 0.0870696 0.244543 157 165 216
-1.33164 0.148145 0.243388 163 169 203
-1.28816 -0.0509346 0.202896 155 160 169
-1.26815 -0.0110506 0.221513 137 141 151
-1.22758 -0.0712201 0.185686 235 238 244
-1.30617 0.18775 0.166599 114 122 136
-1.29067 -0.0511364 0.186236 232 237 244
-1.25185 -0.0121212 0.107742 83 92 126
-1.27161 0.0281265 0.305038 158 161 170
-1.3081 0.0296866 0.224688 136 142 171
-1.3501 0.130755 0.144649 198 201 210
-1.33043 0.0500943 0.0892694 96 106 139
-1.28908 0.029446 0.285472 151 156 193
-1.32626 0.0903924 0.245414 151 160 206
-1.26787 -0.0504062 0.165102 225 229 234
-1.38247 0.0246764 0.20747 177 182 216
-1.36771 0.029669 0.246176 171 173 198
-1.36256 0.0276675 0.319569 174 173 174
-1.38627 0.191288 0.227455 154 156 182
-1.42915 0.0696417 0.245068 174 180 223
-1.31189 0.203208 0.206333 110 116 138
-1.36234 0.0951374 0.186027 242 245 255
-1.4043 0.208767 0.144942 135 139 146
-1.40748 0.188612 0.206562 120 127 171
-1.42815 0.13148 0.244539 188 189 190
-1.25008 -0.010835 0.184249 229 234 241
-1.37909 0.21942 0.18631 61 70 90
-1.26807 0.0685307 0.145658 88 106 153
-1.27035 0.0689396 0.184791 236 240 249
-1.3451 0.0486068 0.124641 108 121 157
-1.24894 0.110269 0.205774 221 224 232
-1.32932 0.18978 0.244951 117 122 158
-1.32997 0.168517 0.244823 154 158 182
-1.39251 0.150003 0.203814 149 157 214
-1.37349 0.225733 0.146273 217 215 216
-1.42441 0.0650644 0.300659 203 202 204
-1.31056 0.167887 0.224801 165 170 215
-1.29142 0.167418 0.186442 109 115 124
-1.3085 -0.0921621 0.167702 221 225 230
-1.3479 0.089345 0.226142 163 170 211
-1.28823 0.00986122 0.144671 177 186 210
-1.26861 -0.0311927 0.105618 118 127 149
-1.27393 0.00837214 0.091606 79 87 121
-1.23234 0.0692819 0.186316 238 243 250
-1.28757 -0.0291739 0.220364 135 137 142
-1.38353 0.170482 0.164957 68 79 100
-1.4263 0.188441 0.242207 172 173 174
-1.36614 0.0887528 0.279323 162 168 187
-1.26728 0.0893491 0.165746 216 223 236
-1.28803 0.109219 0.165954 221 226 235
-1.33339 0.222473 0.224763 210 210 222
-1.36672 0.111745 0.10806 90 104 152
-1.27049 -0.0478593 0.221848 112 118 127
-1.25138 -0.0311031 0.146366 187 193 209
-1.34822 0.18938 0.12734 111 118 135
-1.40947 0.168564 0.24331 180 181 183
-1.3671 0.112099 0.165453 189 195 206
-1.26834 -0.0306461 0.145064 196 203 216
-1.29027 0.0701064 0.22493 186 191 208
-1.34634 0.0899209 0.104153 77 96 147
-1.33125 -0.0508368 0.163224 233 238 245
-1.32911 0.0474154 0.205591 170 176 194
-1.30951 -0.10452 0.183424 142 143 146
-1.30876 0.0693103 0.28346 171 175 207
-1.26844 -0.0508786 0.106781 113 119 137
-1.40873 0.189701 0.225301 131 135 171
-1.31023 0.167371 0.167201 193 196 198
-1.36778 0.109015 0.247188 156 161 203
-1.34902 0.16832 0.110778 169 172 181
-1.31715 -0.0868776 0.119972 136 134 131
-1.32757 0.0303304 0.124068 68 86 142
-1.34956 -0.00756486 0.302697 158 159 158
-1.25135 0.0688552 0.227728 236 240 249
-1.29044 -0.00515318 0.246108 141 143 157
-1.34952 0.188702 0.145322 114 120 133
-1.4093 0.190431 0.243939 161 161 163
-1.26737 -0.0304545 0.186313 229 233 240
-1.27714 0.0746247 0.0952533 98 101 126
-1.31422 -0.0297407 0.166134 234 239 247
-1.3531 0.0494636 0.245446 157 162 200
-1.25097 0.0491962 0.243062 122 129 169
-1.30427 -0.0302726 0.189529 233 238 246
-1.40928 0.209048 0.226015 130 133 161
-1.33514 0.226892 0.209349 220 218 217
-1.28915 0.108862 0.244785 134 142 195
-1.32556 0.0104871 0.145352 231 236 244
-1.23627 0.10316 0.205963 239 244 251
-1.32849 0.110353 0.245825 148 155 201
-1.34816 0.13014 0.186121 152 160 180
-1.26686 -0.00962318 0.125206 93 106 147
-1.31 0.108202 0.224681 158 168 217
-1.43229 0.0902789 0.226486 168 176 237
-1.2891 -0.0453513 0.218102 118 122 128
-1.39136 0.011749 0.243588 148 153 187
-1.3934 0.222159 0.204629 127 132 175
-1.36626 0.0688606 0.223338 172 179 209
-1.32865 -0.0701436 0.146711 210 211 215
-1.23569 -0.0454575 0.110269 150 153 157
-1.4068 0.208085 0.240617 131 131 139
-1.23321 0.00899855 0.164731 222 228 237
-1.37114 0.0673746 0.280158 188 190 215
-1.36516 0.14909 0.183761 122 131 156
-1.38855 0.0502426 0.287482 158 158 186
-1.27191 0.107893 0.22489 229 232 245
-1.28824 0.00936035 0.124767 75 94 147
-1.34879 0.0890494 0.244918 162 168 215
-1.25162 -0.0319075 0.183642 229 233 240
-1.40282 0.0250843 0.227025 195 196 223
-1.30726 -0.0315503 0.221026 156 157 159
-1.26705 0.00923229 0.124977 65 82 133
-1.28444 -0.0909829 0.124783 188 192 197
-1.37467 0.219419 0.200562 105 117 164
-1.26978 -0.0705999 0.146395 179 181 184
-1.28875 0.0700132 0.266275 183 187 224
-1.30934 0.00983151 0.304538 147 148 164
-1.27274 0.0873479 0.264475 155 162 203
-1.27289 0.0651776 0.265107 174 180 223
-1.34922 0.129923 0.0881672 122 130 153
-1.40908 0.206423 0.209325 143 147 180
-1.43984 0.0524246 0.245593 155 153 154
-1.32584 -0.00706431 0.246057 126 130 153
-1.38086 0.0712891 0.213901 159 168 227
-1.27295 -0.0115627 0.0914914 88 96 125
-1.34606 -0.00845254 0.288816 131 133 142
-1.38919 0.164272 0.0910462 182 183 191
-1.40657 0.0131996 0.283763 176 176 190
-1.32631 0.0077313 0.320215 169 170 168
-1.21337 -0.0367202 0.153085 152 162 171
-1.33032 -0.0066985 0.265475 131 135 154
-1.28862 -0.0716654 0.185673 212 215 220
-1.30907 0.150141 0.206949 131 139 164
-1.33274 0.0702291 0.203123 215 221 238
-1.38877 0.0294189 0.247853 155 161 199
-1.26878 -0.0105459 0.185422 227 232 239
-1.24853 0.0908746 0.24336 163 172 209
-1.21425 0.00926453 0.203454 224 230 238
-1.42659 0.189162 0.227237 163 167 184
-1.30975 -0.0495247 0.106783 156 162 183
-1.29185 0.14865 0.146152 195 196 201
-1.23784 0.0616261 0.16866 234 239 247
-1.42519 0.193759 0.205553 94 101 140
-1.31358 0.148407 0.146255 181 185 195
-1.28713 0.00956268 0.166274 231 235 243
-1.21798 -0.0540112 0.165082 221 224 232
-1.30801 0.0306344 0.105603 79 94 138
-1.3298 -0.0514473 0.204291 96 102 112
-1.27433 0.087851 0.109529 72 85 129
-1.26705 0.00927619 0.145252 150 161 189
-1.29179 -0.0567542 0.073937 79 85 111
-1.3495 0.144395 0.0927665 159 163 175
-1.40634 0.110663 0.230819 153 159 197
-1.3473 0.0887173 0.207903 192 199 224
-1.45035 0.0139417 0.262356 166 168 167
-1.3701 0.130346 0.259842 159 159 162
-1.36764 0.0695673 0.265839 177 179 214
-1.32862 0.06883 0.104533 82 97 143
-1.32569 0.0110208 0.102328 75 92 142
-1.26698 0.0691313 0.166221 226 232 242
-1.26778 -0.0518013 0.124879 119 128 152
-1.40797 0.0307823 0.283067 152 153 173
-1.31592 0.202784 0.222616 173 178 228
-1.32798 0.110803 0.106436 101 112 145
-1.30895 0.127723 0.124439 122 132 163
-1.4253 0.142981 0.212072 133 139 187
-1.33763 0.140737 0.0930434 63 74 116
-1.28928 0.109315 0.10679 71 85 129
-1.32202 -0.0427179 0.221515 163 161 159
-1.34755 0.130512 0.167472 163 169 179
-1.25599 0.139275 0.158811 205 203 204
-1.26962 0.0300846 0.224661 167 170 185
-1.30996 -0.0683974 0.0850994 137 142 152
-1.28726 0.0105208 0.104669 75 88 130
-1.3474 0.149023 0.126341 168 174 189
-1.23599 -0.0680004 0.130937 81 91 120
-1.28665 -0.00985396 0.144634 199 206 225
-1.38762 0.012991 0.268273 186 188 203
-1.3473 0.0486126 0.226589 166 173 220
-1.2701 -0.0312977 0.203211 185 190 199
-1.44795 0.187702 0.232133 153 154 157
-1.42835 0.0623673 0.288412 186 186 207
-1.39133 0.0890309 0.280668 194 191 199
-1.42914 0.0741516 0.210576 131 142 190
-1.25025 -0.0117238 0.126004 89 102 141
-1.27231 0.0880678 0.204165 236 240 249
-1.27715 0.16118 0.217444 46 60 82
-1.429 0.131146 0.208927 153 157 211
-1.38503 0.149235 0.104023 150 154 166
-1.34899 0.129383 0.205112 167 174 210
-1.32464 0.0514286 0.164858 239 244 252
-1.27113 0.0993521 0.281034 126 130 184
-1.42832 0.0310616 0.284039 168 168 179
-1.29733 0.181687 0.187221 56 66 90
-1.36861 0.149701 0.243164 144 146 175
-1.30979 0.147886 0.263423 167 168 195
-1.45976 0.0773994 0.273497 197 200 225
-1.28858 -0.00257137 0.286555 164 165 172
-1.2686 -0.0879909 0.165131 175 174 175
-1.35 0.187785 0.24563 128 133 161
-1.28913 0.00938747 0.186564 229 233 241
-1.2709 0.0687233 0.126004 65 83 135
-1.31135 0.187837 0.22558 126 132 185
-1.25079 -0.0303756 0.166091 228 231 238
-1.43546 0.0369384 0.250058 121 127 173
-1.273 0.107216 0.245324 133 143 200
-1.25484 0.0886833 0.145096 63 81 137
-1.32239 -0.0714786 0.105227 117 127 150
-1.33326 0.184338 0.132381 178 181 193
-1.32101 -0.102506 0.185786 110 112 115
-1.31037 0.148625 0.163787 221 222 222
-1.25031 0.0896888 0.206464 240 243 251
-1.44643 0.0168538 0.27836 198 201 195
-1.25367 0.0686808 0.184123 234 238 246
-1.42503 0.172195 0.244746 191 191 190
-1.31053 -0.0710354 0.14557 238 243 249
-1.25149 -0.0309759 0.108754 119 126 149
-1.34381 -0.0719542 0.147693 153 151 149
-1.27186 0.106743 0.184684 236 241 248
-1.37099 0.205955 0.128538 148 153 164
-1.22433 0.0518025 0.206082 235 240 248
-1.29208 0.145942 0.204216 117 122 141
-1.26907 0.0293054 0.125438 62 79 134
-1.27285 -0.0299296 0.0911267 96 104 131
-1.38435 0.169182 0.14526 176 180 183
-1.3298 0.148788 0.165705 178 181 185
-1.32538 0.0889855 0.0870975 85 94 128
-1.2881 0.127066 0.165623 225 229 236
-1.27026 0.069837 0.204754 234 238 248
-1.26687 0.128344 0.225154 127 135 172
-1.27302 0.0145445 0.304305 162 163 178
-1.30949 -0.0118401 0.105373 88 102 141
-1.34592 0.06553 0.299982 207 204 207
-1.28985 0.0282824 0.225218 141 145 167
-1.33349 -0.031205 0.162449 232 238 245
-1.38881 0.205579 0.145398 138 142 148
-1.27879 0.123481 0.133857 58 75 134
-1.30909 0.126401 0.205113 162 170 189
-1.26841 0.00935591 0.166267 225 230 238
-1.3305 0.0283934 0.2663 130 137 180
-1.28683 0.109317 0.145573 93 108 154
-1.27291 -0.0667931 0.0919035 116 120 132
-1.37191 0.168828 0.124522 187 190 195
-1.26756 0.0491353 0.166564 229 234 243
-1.31216 0.0297016 0.0745587 81 89 119
-1.25087 -0.0114305 0.165383 226 229 237
-1.40275 0.0288636 0.25293 172 176 218
-1.21429 0.0081928 0.185216 224 229 237
-1.39035 0.0120034 0.206097 163 168 198
-1.32813 -0.0515117 0.186487 184 190 200
-1.27004 0.146792 0.186153 187 188 191
-1.31306 0.16696 0.260209 169 169 186
-1.23252 0.0291375 0.183879 231 236 243
-1.28963 0.0100362 0.265725 130 137 169
-1.39485 0.222549 0.221609 110 113 155
-1.28945 -0.0115328 0.105646 91 102 137
-1.28997 -0.0827562 0.0916967 140 141 145
-1.33071 0.149153 0.1855 110 118 139
-1.25063 0.0871583 0.227601 239 243 252
-1.34117 -0.0706519 0.133857 193 192 195
-1.37169 0.167661 0.242801 161 164 182
-1.33069 0.14922 0.204457 133 141 184
-1.3708 0.187798 0.126227 143 148 157
-1.29059 0.124893 0.126549 102 113 145
-1.28749 -0.0304196 0.14282 202 208 221
-1.30878 0.00953658 0.319553 167 168 166
-1.33086 0.0679594 0.243935 167 175 224
-1.27666 0.103085 0.112446 66 81 129
-1.3072 0.0497556 0.265194 169 175 214
-1.38666 0.223927 0.16597 163 163 169
-1.42865 0.20883 0.24114 151 151 154
-1.31052 0.147929 0.246449 159 164 197
-1.33247 0.145221 0.10829 143 148 165
-1.38453 0.170943 0.104814 159 162 174
-1.22912 -0.0708178 0.16363 236 239 244
-1.25642 0.0101733 0.217382 228 233 241
-1.36948 -0.0723959 0.185402 105 111 118
-1.40711 0.127869 0.208398 127 137 192
-1.2886 0.0693299 0.14554 132 146 182
-1.38867 0.10953 0.224202 126 135 183
-1.27547 0.0424164 0.0933944 93 100 130
-1.38931 0.0888938 0.245 166 173 219
-1.32684 0.00904252 0.166056 227 232 239
-1.26982 0.0491727 0.247186 141 148 193
-1.36709 0.0885858 0.248138 166 171 213
-1.21539 0.0279619 0.204728 229 235 243
-1.34718 0.0311253 0.290393 185 187 203
-1.39099 0.222459 0.18725 172 174 194
-1.43165 0.0819585 0.255745 202 201 203
-1.24971 0.0879393 0.182341 236 240 248
-1.32913 0.0490324 0.244518 172 179 224
-1.40498 0.0717251 0.287842 196 196 210
-1.26974 -0.0502753 0.202652 162 167 176
-1.3275 0.0886374 0.2262 151 161 212
-1.35014 0.0461998 0.30305 191 191 205
-1.39999 0.176053 0.136017 48 57 73
-1.30827 -0.0309813 0.106104 114 125 157
-1.40338 0.195201 0.167088 67 79 99
-1.31061 0.167907 0.206119 117 125 152
-1.28887 0.148072 0.18542 177 178 181
-1.40347 0.173351 0.185723 129 139 200
-1.33332 -0.0218281 0.219022 201 199 196
-1.36516 0.110631 0.184624 177 183 204
-1.28648 0.0298943 0.106363 70 85 129
-1.3252 0.0677134 0.188945 233 238 248
-1.3481 0.223201 0.227663 212 211 221
-1.47028 0.135368 0.226741 191 191 199
-1.2679 0.0288648 0.166662 230 235 243
-1.25131 -0.0846043 0.130054 175 181 192
-1.32862 0.188475 0.2253 133 141 192
-1.2868 -0.00424676 0.263589 146 149 161
-1.33308 0.205016 0.257165 90 95 120
-1.38179 0.0517681 0.253167 191 193 224
-1.28826 0.0877842 0.14517 116 131 173
-1.31094 0.146355 0.126879 151 156 169
-1.41026 0.0683038 0.26613 193 194 208
-1.38689 0.0705652 0.249921 181 184 228
-1.3904 -0.0113445 0.191184 157 161 169
-1.31258 -0.0851233 0.201651 106 112 121
-1.30851 0.00966932 0.0858137 78 88 122
-1.30922 -0.0740637 0.167108 220 223 228
-1.23583 -0.0838783 0.204918 224 225 226
-1.32652 -0.0688421 0.201791 109 115 122
-1.43387 0.0883599 0.243657 176 181 219
-1.32589 -0.0502542 0.0834881 116 123 144
-1.23358 -0.0320529 0.163012 230 234 241
-1.40557 0.221554 0.207778 156 159 186
-1.28804 -0.0305592 0.106383 107 117 144
-1.40815 0.148701 0.207353 147 152 200
-1.30725 0.050716 0.244559 151 159 210
-1.41085 0.0921888 0.205687 151 163 227
-1.40469 0.170332 0.208119 152 160 200
-1.36634 0.0479482 0.24721 169 172 209
-1.33285 0.188119 0.145452 138 144 154
-1.36853 0.0878982 0.26502 168 169 202
-1.27486 0.148444 0.225903 137 145 186
-1.40684 0.0305338 0.305504 157 154 162
-1.37077 0.188225 0.225159 150 154 189
-1.25295 -0.0499782 0.183648 222 225 231
-1.34128 -0.0189955 0.175428 237 242 249
-1.32815 0.0282588 0.225934 140 147 181
-1.3114 0.107144 0.244438 141 150 199
-1.39279 0.168386 0.207283 147 154 205
-1.31157 0.0270023 0.319138 145 144 147
-1.23696 0.0286645 0.150057 128 139 173
-1.32569 0.00853263 0.246415 162 165 174
-1.37995 0.0954709 0.203849 236 245 255
-1.25162 0.0667129 0.202751 233 237 246
-1.23114 -0.0504077 0.146237 145 151 168
-1.30684 0.0707034 0.245444 173 181 226
-1.36455 0.0075149 0.194447 120 125 142
-1.28777 0.0894912 0.123897 66 83 136
-1.31969 0.0508579 0.317127 140 147 181
-1.36873 0.0492171 0.264615 151 154 190
-1.31115 -0.0287169 0.0705067 69 80 109
-1.32864 0.110546 0.225952 147 157 212
-1.32864 0.208027 0.228074 156 161 208
-1.33566 0.207601 0.148256 109 115 132
-1.25071 0.00940004 0.20462 229 232 241
-1.37201 0.205786 0.165756 87 93 109
-1.32699 0.0808709 0.296556 188 189 201
-1.22596 0.0484705 0.226933 228 234 243
-1.30779 0.0899387 0.205834 239 243 251
-1.27024 -0.0111982 0.106537 90 100 132
-1.25 -0.0313471 0.125393 122 131 156
-1.30769 -0.0895585 0.187232 163 167 172
-1.27088 0.0282581 0.10753 76 88 128
-1.35066 0.0666959 0.0858199 96 108 144
-1.28622 0.0493294 0.105607 73 87 129
-1.26993 0.0493269 0.126131 64 81 134
-1.25098 0.0292385 0.127233 62 79 132
-1.25125 -0.0501333 0.145724 194 199 211
-1.27181 0.0882663 0.127146 64 82 134
-1.25041 0.0087095 0.146319 128 140 174
-1.25024 -0.0110766 0.145988 152 161 187
-1.23497 -0.0131941 0.146411 128 139 170
-1.26889 -0.0509761 0.145662 213 217 225
-1.25824 0.0852536 0.131195 66 82 135
-1.25198 0.0472442 0.146288 83 99 147
-1.25714 0.107905 0.148216 65 81 136
-1.27092 0.107897 0.144973 65 83 139
-1.23223 -0.0120227 0.163089 224 229 238
-1.25027 -0.0510362 0.166075 221 224 229
-1.25563 0.12673 0.149984 86 93 135
-1.24971 0.068434 0.165635 214 220 234
-1.25267 0.0490861 0.165467 220 226 237
-1.25242 0.0293051 0.165 224 229 237
-1.25043 0.0889787 0.165932 189 197 217
-1.23673 0.047496 0.16681 221 227 236
-1.23459 0.0291354 0.166175 220 226 236
-1.23214 -0.0113664 0.185838 228 230 238
-1.22766 -0.0315619 0.184793 230 233 240
-1.22816 0.04795 0.185845 236 241 249
-1.2699 0.148781 0.166703 215 215 218
-1.34687 -0.052127 0.16806 233 238 244
-1.25204 0.127592 0.184983 225 226 232
-1.24708 0.108249 0.184964 237 239 247
-1.25091 -0.0119178 0.205338 222 226 235
-1.25242 -0.0309569 0.20371 218 222 231
-1.25444 -0.049663 0.203061 194 198 206
-1.33976 -0.0603475 0.155097 227 230 233
-1.27148 0.127539 0.185628 209 212 219
-1.22571 0.0697843 0.205214 238 244 251
-1.2534 0.0479645 0.203624 230 234 243
-1.25154 0.0296552 0.204162 229 233 242
-1.25286 0.127108 0.203475 191 197 202
-1.27198 0.14595 0.206298 88 96 117
-1.25748 0.0269717 0.221835 204 209 222
-1.269 0.00910632 0.225202 158 162 180
-1.27094 -0.0318767 0.220953 123 128 134
-1.30683 -0.0509516 0.203729 142 148 157
-1.25798 0.0511205 0.225478 235 239 249
-1.27083 0.0486238 0.224549 148 151 175
-1.27178 0.0886616 0.223673 215 219 236
-1.28801 0.0118616 0.225153 151 153 166
-1.28964 0.12902 0.225976 159 166 208
-1.32958 -0.00919862 0.225688 152 154 167
-1.34702 -0.00648379 0.221998 160 164 193
-1.30929 0.147966 0.225668 150 156 207
-1.28984 0.050796 0.225805 148 152 178
-1.34796 0.0291084 0.225514 144 151 194
-1.3277 0.149965 0.226152 150 157 206
-1.31002 0.129641 0.225252 128 139 200
-1.29029 0.108339 0.224457 185 191 221
-1.27413 0.0871269 0.244851 148 157 211
-1.30903 0.0492167 0.224186 142 147 173
-1.32843 0.0485313 0.226924 142 148 184
-1.28992 0.128276 0.246357 118 128 180
-1.32994 0.0692373 0.226265 171 178 215
-1.30806 0.126632 0.244049 127 134 183
-1.35064 0.0686774 0.244671 181 186 226
-1.33043 0.128671 0.244853 129 137 184
-1.34976 0.109763 0.244865 146 154 202
-1.36783 0.129913 0.244975 145 149 190
-1.34911 0.0526644 0.263487 183 188 228
-1.36753 0.106393 0.261025 175 176 192
-1.3471 0.108272 0.261627 164 168 193
-1.40634 0.150046 0.244421 178 178 181
-1.38691 0.150223 0.258909 212 210 209
-1.38792 0.12924 0.26164 212 208 209
-1.38858 0.108802 0.264725 191 188 202
-1.37211 0.0505446 0.283069 158 159 182
-1.39115 0.0452142 0.298514 175 175 177
-1.40907 0.0488121 0.301888 158 156 170
-1.40801 0.0653981 0.297306 203 199 201
-1.42664 0.0521459 0.30488 148 147 167
-1.35493 0.0424031 0.193899 234 239 250
-1.27104 0.125284 0.165681 222 226 231
-1.30893 0.0688867 0.104866 78 93 135
-1.30799 0.109426 0.105473 80 93 131
-1.28647 0.0705873 0.123277 66 84 138
-1.28772 0.109522 0.12529 66 82 132
-1.2663 0.0290202 0.145225 123 137 173
-1.2669 -0.010229 0.145602 176 185 206
-1.3695 0.167387 0.107626 177 180 188
-1.28852 0.126374 0.145644 123 134 167
-1.43298 0.109055 0.2255 151 159 210
-1.3075 0.169422 0.146731 166 170 179
-1.27029 0.0887952 0.145563 73 92 145
-1.26855 -0.0310402 0.1656 229 233 240
-1.30993 0.186874 0.149513 119 125 140
-1.297 0.164772 0.148722 151 156 163
-1.26827 -0.0515023 0.185692 224 227 233
-1.28772 -0.05126 0.166156 234 238 245
-1.29506 0.166579 0.166854 222 221 220
-1.29037 0.149578 0.165879 212 213 213
-1.31202 0.203143 0.166299 80 85 99
-1.27077 0.088485 0.184857 236 241 249
-1.27051 0.0289073 0.204538 222 227 237
-1.2716 0.00957966 0.203719 206 210 220
-1.27169 -0.0105717 0.203197 205 209 218
-1.27122 0.0494896 0.205583 228 233 243
-1.34748 -0.0706782 0.188603 109 115 126
-1.28797 0.128117 0.205063 175 180 197
-1.27541 0.106685 0.20403 238 242 251
-1.30764 -0.0695701 0.201842 120 126 135
-1.30938 0.167109 0.186334 115 122 134
-1.35007 -0.0707687 0.202399 113 117 122
-1.31063 0.188496 0.206551 90 99 122
-1.2894 0.107328 0.205674 222 228 238
-1.32739 0.212289 0.206432 158 162 187
-1.31021 -0.00713104 0.223657 141 146 164
-1.34801 -0.0308523 0.203021 125 128 134
-1.33046 0.168246 0.225004 155 163 213
-1.34809 0.129882 0.226131 128 137 188
-1.34876 0.10885 0.226034 144 155 210
-1.35182 0.223975 0.242467 213 211 220
-1.33186 0.205891 0.243334 136 142 179
-1.36212 0.223344 0.248911 208 205 215
-1.37077 0.214288 0.260697 174 172 173
-1.35374 0.20716 0.259506 140 138 153
-1.36863 0.187694 0.257306 139 140 146
-1.37029 0.1696 0.25792 173 174 176
-1.44934 0.0292126 0.246554 152 154 169
-1.38428 0.205864 0.25924 111 111 114
-1.38804 0.0887795 0.264559 179 180 205
-1.4049 0.105973 0.262481 189 188 210
-1.27326 0.14318 0.150762 65 73 95
-1.34696 0.110628 0.166854 165 170 181
-1.28999 -0.0703743 0.0853688 133 136 145
-1.2746 0.167241 0.206163 59 71 95
-1.28794 0.0691016 0.164801 238 243 250
-1.3281 0.0690349 0.284088 180 183 206
-1.3443 -0.00562965 0.0796825 91 101 136
-1.33166 -0.0115852 0.0853263 90 101 134
-1.32813 -0.0329388 0.0843162 100 109 137
-1.3324 0.00917137 0.0892121 95 108 141
-1.32482 -0.0123072 0.101777 84 99 143
-1.32155 -0.0522141 0.101333 111 119 139
-1.37089 0.107329 0.0877721 83 94 138
-1.35059 0.0873632 0.0906768 87 99 141
-1.32921 0.048646 0.106708 75 93 144
-1.32946 0.0296832 0.105571 77 96 146
-1.30946 0.00714208 0.105866 79 94 138
-1.37039 0.145553 0.0912314 180 186 196
-1.34905 0.129303 0.105983 136 142 161
-1.3491 0.111493 0.102857 91 102 139
-1.32795 0.0904337 0.103888 77 92 137
-1.30792 0.0500048 0.105828 80 95 137
-1.30546 0.0298002 0.12467 66 86 141
-1.30786 0.00955463 0.125515 68 86 140
-1.28848 -0.0308837 0.125967 117 130 166
-1.30815 -0.0507696 0.124817 143 151 176
-1.36758 0.149823 0.105677 135 141 160
-1.34733 0.148804 0.105573 175 178 187
-1.32794 0.0892564 0.124872 71 89 145
-1.33192 0.0659161 0.126996 69 88 144
-1.30812 0.0689907 0.126468 72 90 144
-1.30539 0.0504441 0.126964 69 87 142
-1.28783 -0.0102186 0.125001 86 103 150
-1.35086 0.129447 0.124809 162 168 187
-1.3289 0.113252 0.12562 125 135 166
-1.3044 0.0293623 0.146014 189 199 218
-1.39052 0.186703 0.109496 137 141 154
-1.37249 0.18734 0.112069 176 178 188
-1.34897 0.168997 0.125727 174 176 185
-1.32983 0.0886546 0.145742 192 200 219
-1.30527 0.0687056 0.144671 133 147 184
-1.3065 0.0502209 0.146266 175 185 209
-1.28811 0.0286463 0.144803 165 176 203
-1.28623 -0.0106667 0.16646 230 235 243
-1.28671 -0.031056 0.167246 231 236 243
-1.38994 0.205702 0.126873 133 138 148
-1.34716 0.150454 0.146932 207 210 214
-1.33064 0.147967 0.145124 196 198 204
-1.32722 0.111497 0.147002 189 195 211
-1.31019 0.110199 0.145547 145 156 184
-1.2875 0.0499451 0.165989 234 239 247
-1.28854 0.029027 0.165129 236 240 249
-1.34967 0.168525 0.145915 208 209 208
-1.30931 0.109305 0.165952 233 236 243
-1.30966 0.089488 0.16603 239 243 251
-1.38867 0.221402 0.127867 117 116 126
-1.37007 0.187365 0.145211 135 140 147
-1.31076 0.127374 0.16521 223 225 230
-1.2901 0.0889142 0.166643 233 239 247
-1.2868 0.0502024 0.187613 233 238 247
-1.28934 0.028663 0.186964 231 235 245
-1.28974 -0.0108841 0.18622 229 234 242
-1.29105 -0.0311895 0.185788 231 236 243
-1.32789 -0.0706853 0.167615 237 242 249
-1.38369 0.220504 0.144677 141 143 150
-1.35311 0.168552 0.166603 120 127 138
-1.32999 0.16981 0.166006 130 135 143
-1.30981 0.0894082 0.183883 239 244 252
-1.28561 0.0696953 0.187069 236 241 249
-1.3289 -0.0708325 0.185371 173 178 187
-1.34826 0.18972 0.165949 80 88 101
-1.33049 0.129257 0.185801 175 180 195
-1.31004 0.127044 0.18564 177 183 193
-1.3077 0.108892 0.186424 225 229 238
-1.30882 0.0708111 0.184517 238 242 250
-1.30566 0.0694176 0.206147 233 238 247
-1.28802 0.0692509 0.205988 234 239 248
-1.28916 0.0492463 0.205974 223 228 239
-1.28929 0.0291567 0.205196 218 222 233
-1.28933 0.00960224 0.204893 211 215 225
-1.30695 -0.0103163 0.204738 176 181 192
-1.30806 -0.0311349 0.203944 137 142 154
-1.36932 0.189179 0.185831 118 127 152
-1.34812 0.188618 0.18575 116 123 144
-1.30702 0.0492259 0.207636 201 206 220
-1.30782 0.0277252 0.207715 180 184 200
-1.3087 0.0101331 0.205943 184 189 202
-1.3877 0.208224 0.185657 130 138 168
-1.37103 0.206508 0.186536 119 128 155
-1.35093 0.148947 0.185926 130 138 160
-1.32902 0.109977 0.20453 190 197 220
-1.32901 -0.0310686 0.204251 118 124 134
-1.35066 0.168103 0.205177 141 149 205
-1.35061 0.14875 0.205708 139 147 200
-1.32793 0.00927589 0.223984 154 158 174
-1.32815 -0.0103614 0.206179 136 141 150
-1.34691 -0.0102479 0.203964 165 168 177
-1.36971 -0.0276392 0.199067 152 154 156
-1.37175 0.204878 0.205467 139 147 196
-1.36977 0.0285934 0.207656 157 162 177
-1.36895 0.0294392 0.225447 170 176 208
-1.36735 0.169845 0.226972 141 145 185
-1.35086 0.168972 0.224365 142 146 191
-1.34927 0.0703235 0.227891 175 180 219
-1.38873 0.207537 0.226137 136 139 168
-1.40894 0.22329 0.226089 129 131 162
-1.36499 0.150295 0.2269 135 140 184
-1.38841 0.189123 0.241394 155 155 163
-1.38636 0.13041 0.245983 156 159 185
-1.39839 0.0173155 0.300974 205 203 202
-1.39038 0.108851 0.247745 151 155 196
-1.41398 0.221451 0.238703 147 146 168
-1.38838 0.0698934 0.266549 180 182 203
-1.38904 0.0290722 0.267456 193 197 220
-1.42655 0.148698 0.243955 199 199 198
-1.40659 0.089041 0.266353 192 190 218
-1.44518 0.0258485 0.265186 168 168 177
-1.43538 0.0505891 0.282775 158 160 186
-1.43 0.0505698 0.246161 134 140 192
-1.29649 -0.101742 0.154213 136 134 133
-1.35089 0.00920903 0.0852126 80 94 137
-1.35539 -0.030695 0.0918241 191 197 220
-1.23389 -0.0310867 0.128175 101 110 132
-1.38942 0.147876 0.0870617 147 154 174
-1.36888 0.132832 0.089172 98 110 141
-1.35321 0.0178481 0.1018 71 86 140
-1.3538 -0.031415 0.103491 141 149 180
-1.3504 -0.0470044 0.104406 96 106 136
-1.36415 0.132437 0.107359 116 126 157
-1.35031 0.110568 0.123971 120 131 168
-1.34798 0.0881438 0.124076 77 95 150
-1.36829 0.150103 0.124858 184 187 198
-1.36606 0.130572 0.125307 155 161 181
-1.33245 0.0480611 0.129227 115 129 172
-1.32624 0.0286104 0.142985 235 241 250
-1.324 -0.0118846 0.146586 229 234 241
-1.32645 -0.0314569 0.147889 232 236 243
-1.32954 -0.051721 0.145609 236 239 245
-1.34846 0.110599 0.143129 198 203 216
-1.3445 0.0920193 0.143125 213 220 236
-1.33095 0.0679086 0.145625 217 224 239
-1.32984 0.0469677 0.145634 234 239 250
-1.30999 0.00817297 0.145792 201 208 222
-1.3107 -0.0110271 0.147483 224 230 239
-1.32528 0.0679022 0.161636 240 243 252
-1.31104 0.0485429 0.167223 231 235 243
-1.312 0.0292648 0.164501 229 234 242
-1.31253 0.0101859 0.164644 230 234 242
-1.31235 -0.01153 0.166589 233 237 245
-1.32714 0.109997 0.167294 216 221 228
-1.30985 0.0689519 0.16761 237 242 249
-1.34903 -0.0696957 0.163614 172 172 171
-1.349 0.207072 0.165149 92 99 111
-1.30781 0.0488411 0.185469 237 241 250
-1.30909 0.0286041 0.186473 235 240 249
-1.30552 0.00831135 0.186633 230 234 243
-1.30608 -0.0103955 0.187092 228 233 242
-1.369 0.225384 0.165751 183 183 183
-1.34862 0.205024 0.185148 107 115 129
-1.33044 0.169544 0.1855 76 86 107
-1.30946 0.149054 0.185479 136 142 151
-1.28899 -0.0310499 0.204293 170 174 183
-1.33075 0.205023 0.185577 125 133 140
-1.33146 0.187713 0.185528 78 88 105
-1.33062 0.188689 0.206512 129 138 172
-1.33019 0.169715 0.204659 131 139 174
-1.28856 0.0890627 0.205626 236 241 250
-1.34922 0.220782 0.204986 214 210 228
-1.28993 0.0500384 0.244405 161 168 208
-1.29029 0.0306039 0.243865 133 140 187
-1.30999 0.169308 0.245538 154 161 195
-1.30965 0.0285079 0.247693 130 137 178
-1.29284 0.0854843 0.263695 164 169 209
-1.28977 0.0484207 0.266636 181 186 220
-1.30896 0.0290934 0.265558 151 157 189
-1.30914 0.108038 0.264288 158 164 196
-1.30966 0.0888395 0.264805 168 173 209
-1.33194 0.185768 0.258442 123 125 145
-1.3293 0.170117 0.261911 160 161 167
-1.32711 0.148394 0.262648 153 154 159
-1.3474 0.190262 0.259714 136 137 148
-1.3463 0.169816 0.258851 168 170 175
-1.30831 0.0862508 0.280824 170 173 208
-1.31009 0.0490326 0.284594 175 179 210
-1.33043 0.0283096 0.286513 156 159 186
-1.3937 0.161684 0.257459 216 217 215
-1.36525 0.149838 0.260685 158 158 161
-1.32811 0.105847 0.278965 195 193 200
-1.32803 0.0862318 0.280978 173 176 203
-1.34814 0.068711 0.285545 175 177 195
-1.32765 0.0483319 0.30277 179 180 199
-1.37278 0.0283839 0.285524 172 173 186
-1.39161 0.0275868 0.286668 184 184 190
-1.35202 0.026734 0.306036 150 153 168
-1.36774 0.0289504 0.305258 155 155 171
-1.4404 0.126161 0.207979 161 164 240
-1.44888 0.147501 0.230307 141 145 189
-1.42791 0.0911344 0.211547 130 138 182
-1.30749 -0.00856132 0.0862153 85 94 123
-1.30772 -0.0312955 0.0853046 106 115 139
-1.31093 -0.050403 0.0868668 108 115 137
-1.30969 0.0274173 0.0867529 75 87 122
-1.34681 0.110457 0.0884659 94 104 133
-1.37041 0.164915 0.0934742 166 170 175
-1.3285 0.129771 0.106709 122 130 155
-1.30775 0.0894393 0.106985 75 90 136
-1.31034 -0.0320141 0.125839 130 144 177
-1.28497 -0.0505683 0.127945 155 163 183
-1.31074 0.0887152 0.12518 72 91 145
-1.32419 -0.0598005 0.11914 234 247 255
-1.32884 0.149205 0.125044 165 170 180
-1.30878 0.110767 0.124479 87 101 140
-1.31046 0.128165 0.145667 175 181 198
-1.28981 0.0486057 0.145842 145 159 191
-1.32773 0.169023 0.146601 188 190 195
-1.28855 0.107068 0.186014 231 235 242
-1.28655 0.089744 0.187001 237 242 250
-1.30703 -0.0712172 0.187544 199 204 212
-1.35015 0.205069 0.20412 143 150 191
-1.29362 0.147807 0.226066 168 175 220
-1.29044 0.148146 0.244435 149 155 205
-1.27427 0.0667409 0.246652 168 175 219
-1.31386 0.18716 0.242024 125 133 170
-1.27606 0.102883 0.26318 138 144 193
-1.267 0.0486936 0.265713 146 153 197
-1.2962 0.145149 0.258568 155 156 196
-1.28836 0.108227 0.264667 147 153 194
-1.27048 0.0490734 0.283913 159 164 200
-1.2905 0.108006 0.280787 167 167 195
-1.27189 0.0866301 0.280482 167 170 211
-1.30339 0.12519 0.278562 187 187 191
-1.2895 0.0669434 0.301575 189 189 210
-1.27587 0.0611672 0.303446 170 170 196
-1.27171 0.0478743 0.302883 133 138 168
-1.28945 0.0295231 0.304759 159 162 185
-1.288 0.0499606 0.30464 175 178 196
-1.30963 0.0282641 0.303518 155 157 186
-1.29181 0.0470534 0.32031 132 133 154
-1.28897 0.0284002 0.321727 149 151 157
-1.30765 0.0472627 0.321089 133 132 138
-1.28794 0.00920015 0.0876162 75 85 119
-1.3997 0.000743339 0.189854 96 99 133
-1.38823 0.130447 0.104025 156 162 179
-1.32794 0.0102576 0.122035 81 99 151
-1.32124 -0.027438 0.122054 129 143 175
-1.36904 0.114432 0.126135 172 177 190
-1.25599 -0.0123181 0.218124 236 238 247
-1.25737 -0.0256225 0.221063 173 178 190
-1.28922 -0.0694347 0.200155 137 142 151
-1.38737 -0.0094261 0.199741 148 149 161
-1.31841 0.200433 0.236551 130 138 189
-1.31278 0.10311 0.278723 170 170 210
-1.28953 0.068848 0.284342 176 181 217
-1.28863 0.0505008 0.286438 178 183 217
-1.33437 0.119342 0.276203 214 213 212
-1.30885 0.0473987 0.30273 177 179 206
-1.38958 0.00763004 0.284244 159 162 191
-1.36952 0.0177886 0.302688 163 163 166
-1.19768 -0.0375281 0.184066 224 227 235
-1.3118 -0.0702096 0.126041 166 174 192
-1.30943 -0.0300228 0.145402 231 237 245
-1.38704 0.189365 0.125588 127 133 145
-1.38306 0.149069 0.126006 214 214 213
-1.38265 0.130449 0.125521 205 207 207
-1.36911 0.168954 0.146318 171 174 178
-1.21686 0.0271964 0.219619 227 232 241
-1.34926 0.188023 0.205142 139 149 201
-1.36533 -0.0517726 0.198433 115 119 122
-1.35012 0.00843673 0.205849 140 144 159
-1.35012 0.203693 0.222575 157 163 194
-1.34989 0.189001 0.225088 140 147 187
-1.3285 0.0287627 0.244333 143 151 200
-1.3706 0.203011 0.24468 156 159 179
-1.30828 0.0694696 0.266152 178 184 219
-1.37031 0.188507 0.244268 147 151 165
-1.34824 0.147811 0.25911 190 191 193
-1.32743 0.0895679 0.266317 165 170 208
-1.35055 0.0289061 0.263381 178 182 215
-1.34894 0.087108 0.281383 172 175 196
-1.37076 0.0308746 0.265955 178 181 200
-1.34915 0.0478467 0.286739 179 182 208
-1.34825 0.0686457 0.208562 182 189 216
-1.23066 -0.0520276 0.20468 227 231 238
-1.28664 -0.0505273 0.104723 125 133 153
-1.28556 -0.0712242 0.104163 125 130 143
-1.28992 -0.0695197 0.127125 142 148 163
-1.2912 0.0493823 0.125639 64 84 140
-1.28832 -0.0703814 0.167109 224 228 233
-1.37816 0.219174 0.131147 163 163 163
-1.39229 0.207138 0.166403 77 86 106
-1.32881 0.109598 0.185723 197 202 214
-1.34984 -0.0862172 0.187006 129 134 141
-1.41115 0.221915 0.16638 89 95 115
-1.36727 0.17026 0.184857 124 131 154
-1.33041 0.0902179 0.204557 225 230 242
-1.36512 0.170887 0.205496 139 148 207
-1.39108 0.00736484 0.19442 152 156 168
-1.3895 0.190958 0.207009 124 132 182
-1.36782 0.10752 0.227091 131 141 191
-1.39026 0.1709 0.225052 167 171 199
-1.38876 0.150994 0.22682 157 163 198
-1.37038 0.0874368 0.225628 129 140 195
-1.36495 0.0499325 0.225807 141 146 188
-1.38549 0.0259547 0.224603 180 185 204
-1.42938 0.223357 0.226448 145 147 176
-1.40965 0.16937 0.224117 135 141 173
-1.4083 0.129749 0.241984 128 131 152
-1.4054 0.0511866 0.268729 181 182 209
-1.44559 0.0726797 0.266165 194 194 222
-1.42805 0.110149 0.213132 150 157 215
-1.33275 0.0486229 0.264568 183 189 224
-1.32548 -0.0666443 0.0839907 132 138 151
-1.38419 0.170197 0.126884 194 197 200
-1.34111 0.0740019 0.144513 240 248 255
-1.36908 0.150042 0.145244 195 197 199
-1.36993 0.130631 0.144416 199 201 204
-1.3309 -0.0106694 0.16518 229 235 242
-1.33103 -0.086357 0.152458 210 212 216
-1.38833 0.189347 0.145678 118 124 132
-1.35233 -0.0833159 0.166151 198 199 202
-1.36928 0.149742 0.16686 131 140 154
-1.36906 0.130772 0.166286 126 134 147
-1.38804 0.19018 0.165048 60 71 92
-1.35549 0.0949822 0.17416 244 245 255
-1.34628 0.0273504 0.190907 228 233 243
-1.34827 -0.0106046 0.18687 222 227 235
-1.32937 -0.0112481 0.186443 230 235 244
-1.32748 -0.030159 0.185265 232 238 246
-1.38133 0.151751 0.165781 77 89 109
-1.36753 0.128905 0.185193 103 112 143
-1.35129 -0.0315184 0.185521 190 195 205
-1.34937 -0.0481794 0.188498 159 165 175
-1.40612 0.189407 0.186079 108 118 164
-1.38503 0.190736 0.183112 137 147 174
-1.38985 0.168432 0.187165 134 143 183
-1.38633 0.14919 0.187832 142 150 184
-1.36826 -0.052021 0.186124 137 142 154
-1.42309 0.209463 0.187063 197 196 213
-1.38342 0.130453 0.190736 110 118 166
-1.3702 0.106702 0.206238 153 165 223
-1.3691 0.0900289 0.20878 144 154 207
-1.3686 0.0668175 0.210028 191 194 210
-1.36884 0.0495192 0.207205 144 150 184
-1.36913 -0.00925237 0.198084 140 143 154
-1.37977 -0.0277993 0.195994 143 144 143
-1.38785 0.130108 0.20449 119 131 191
-1.38307 0.112944 0.206626 118 130 184
-1.42878 0.206463 0.205664 172 175 199
-1.4091 0.108527 0.206272 132 144 199
-1.44535 0.204697 0.20994 172 173 209
-1.44061 0.195436 0.211581 141 147 191
-1.44646 0.0712948 0.212619 162 167 211
-1.4451 0.108423 0.222756 147 154 193
-1.44637 0.0911562 0.223521 165 171 204
-1.22528 0.0690752 0.239393 196 202 217
-1.46624 0.147672 0.230594 161 161 165
-1.23465 0.0874508 0.186439 238 243 251
-1.36264 0.0990558 0.0831794 69 80 123
-1.31168 -0.0672214 0.107518 161 169 183
-1.32122 0.0279756 0.16764 232 238 246
-1.3279 0.0287193 0.184582 229 235 243
-1.34727 0.110645 0.185753 145 153 172
-1.32721 0.0484734 0.186941 228 233 242
-1.34203 0.0906203 0.188442 240 246 253
-1.32335 0.0913156 0.18941 235 240 248
-1.32887 0.00913696 0.207287 128 132 146
-1.34612 0.110435 0.207024 188 196 223
-1.3473 0.0285988 0.205595 147 153 172
-1.41071 0.151107 0.22167 158 163 193
-1.38623 0.089503 0.224355 124 133 176
-1.38805 0.0134187 0.225313 151 157 187
-1.42609 0.205664 0.227803 156 160 186
-1.40741 0.131489 0.227558 135 140 175
-1.40769 0.0089398 0.227414 148 156 196
-1.44569 0.203603 0.227549 157 159 169
-1.42964 0.169126 0.229387 154 157 174
-1.41495 0.0127883 0.242497 164 167 201
-1.45094 0.128108 0.237478 172 177 212
-1.44853 0.110054 0.244746 160 166 213
-1.43505 0.10616 0.239731 165 171 198
-1.41571 0.0673413 0.243338 177 183 216
-1.4045 0.0456869 0.254572 193 195 222
-1.42519 0.00782441 0.247006 181 186 197
-1.44576 0.092262 0.251652 189 191 213
-1.43342 0.0668157 0.263403 188 189 221
-1.43093 0.049069 0.267145 170 172 197
-1.43261 0.0357398 0.269134 127 131 162
-1.40524 0.00786936 0.270822 146 149 177
-1.44304 0.0542854 0.27234 211 213 211
-1.42864 0.015116 0.281284 181 182 194
-1.32489 0.0796709 0.0750632 89 97 121
-1.2519 -0.0834653 0.144561 180 183 187
-1.32808 0.1128 0.0848982 81 91 124
-1.32877 -0.0835352 0.106405 88 98 130
-1.26785 -0.0106092 0.165763 226 230 238
-1.32817 0.0720474 0.268127 169 175 214
-1.35469 0.0124034 0.263309 162 167 204
-1.36878 0.0132217 0.283661 186 189 218
-1.23642 -0.0674634 0.216905 170 176 183
-1.24982 -0.0703122 0.166373 204 206 208
-1.23268 -0.0698997 0.203209 232 236 243
-1.26889 -0.0707123 0.125362 139 144 154
-1.26908 -0.0305817 0.125172 107 119 150
-1.38105 0.153041 0.147781 179 181 185
-1.36503 0.128574 0.208401 153 167 217
-1.40259 0.092194 0.250327 166 167 178
-1.3272 0.0713973 0.0809831 90 98 127
-1.32875 -0.0901959 0.186039 142 146 155
-1.25498 -0.0702057 0.182948 183 184 184
-1.36568 0.00657632 0.227321 143 154 213
-1.29908 0.128167 0.279058 86 89 90
-1.30759 0.0103231 0.284827 144 148 170
-1.35158 0.00487556 0.0750342 101 108 126
-1.32728 -0.0911778 0.200186 115 120 125
-1.31073 -0.0657759 0.216907 83 90 96
-1.30873 0.0111178 0.265692 137 143 182
-1.32638 0.00665081 0.265769 156 160 172
-1.37168 0.0103312 0.264811 144 149 187
-1.32995 0.0066889 0.286427 164 166 177
-1.32932 0.0093501 0.305663 150 151 159
-1.38626 -0.00567925 0.266673 126 131 164
-1.32089 0.0744874 0.0751501 74 77 96
-1.27215 0.127763 0.239846 106 119 188
-1.43216 0.128928 0.223117 139 144 182
-1.4297 0.149081 0.225109 132 136 176
-1.43328 0.0730672 0.228569 177 181 243
-1.44572 0.129338 0.23075 151 156 209
-1.36719 0.00936227 0.246757 152 158 199
-1.21751 -0.050103 0.186227 228 233 240
-1.25024 0.0497529 0.113064 65 79 124
-1.25344 -0.0678305 0.109935 97 103 122
-1.28741 -0.0879793 0.106655 110 116 135
-1.28876 -0.0510316 0.0851989 98 104 125
-1.26996 -0.0701091 0.106315 128 131 140
-1.25099 -0.0693824 0.126601 101 109 130
-1.25006 -0.0703782 0.145727 186 189 197
-1.28613 -0.0911036 0.145405 213 216 219
-1.28717 -0.0897358 0.166979 193 195 196
-1.26725 -0.0700374 0.185798 196 197 200
-1.28996 -0.0896098 0.184837 170 171 172
-1.36675 -0.0312055 0.189542 135 141 152
-1.3676 -0.00841352 0.227462 119 127 172
-1.39015 -0.00773773 0.28142 118 123 155
-1.23637 0.00906466 0.113201 98 108 141
-1.30956 0.0101036 0.245454 144 152 191
-1.30659 -0.00439442 0.266924 143 145 160
-1.3263 -0.00457818 0.304533 119 121 130
-1.2868 0.00925545 0.306597 140 142 156
-1.27087 -0.0863482 0.126372 147 151 161
-1.29544 0.124116 0.110289 106 115 148
-1.23292 -0.0685055 0.145517 157 165 183
-1.25348 -0.0846546 0.164737 185 186 187
-1.21288 -0.0316479 0.168694 223 228 237
-1.2385 -0.0830603 0.167626 241 247 254
-1.21007 -0.011361 0.186735 225 229 237
-1.20786 -0.0303099 0.187778 226 230 237
-1.21542 0.0274976 0.189052 228 233 241
-1.21319 -0.0101477 0.204033 225 230 238
-1.20936 -0.0317039 0.204299 229 234 241
-1.23749 0.102461 0.193642 239 244 252
-1.22967 -0.0118754 0.204382 226 230 238
-1.22889 -0.031803 0.206285 229 234 241
-1.22956 0.0112322 0.204287 225 231 239
-1.29727 0.200466 0.186761 208 213 211
-1.25895 0.145227 0.199317 221 223 221
-1.22584 0.0286485 0.227406 205 210 221
-1.22712 0.00993372 0.226775 198 203 214
-1.22715 -0.0102748 0.225751 193 199 209
-1.23142 -0.0310524 0.222712 171 176 187
-1.23458 -0.0467855 0.219416 198 203 212
-1.24293 -0.0689568 0.218737 147 152 161
-1.23497 0.102482 0.223319 239 244 252
-1.23026 0.0902272 0.224686 238 244 252
-1.24651 -0.0494321 0.219518 126 131 144
-1.29762 0.200781 0.199741 131 139 146
-1.29323 0.186704 0.205929 74 87 103
-1.25609 0.122608 0.218222 75 89 111
-1.28626 0.168736 0.225455 146 155 198
-1.23521 0.0466887 0.237711 158 164 181
-1.23827 0.0332611 0.236638 238 243 254
-1.2955 0.18674 0.221768 92 105 149
-1.25345 0.107056 0.240875 134 147 197
-1.24953 0.069594 0.243694 187 195 231
-1.25795 0.0164869 0.242905 89 98 120
-1.27054 0.0112251 0.248096 140 146 178
-1.37158 -0.0051567 0.245201 119 127 174
-1.36019 -0.0297157 0.1013 64 83 135
-1.27003 -0.0696586 0.200178 144 148 155
-1.28824 -0.0899085 0.198371 114 119 128
-1.25402 0.0675663 0.26667 173 181 228
-1.25538 0.047261 0.265246 125 133 180
-1.25728 0.0300919 0.266436 180 182 189
-1.25614 0.0848825 0.270455 62 73 99
-1.38036 0.113724 0.193627 94 108 183
-1.2891 -0.0309018 0.0847127 95 102 129
-1.32924 0.126109 0.0911771 92 102 135
-1.27029 -0.0874763 0.146978 165 165 164
-1.29614 -0.102848 0.161932 169 170 170
-1.30416 -0.103567 0.169499 159 159 159
-1.34929 -0.0129041 0.24427 158 160 165
-1.33171 -0.00533267 0.287317 125 127 152
-1.34707 0.0121559 0.305376 177 178 178
-1.28621 -0.0104382 0.0875289 84 93 124
-1.27139 0.0487216 0.107243 76 87 127
-1.29954 -0.0972695 0.152447 225 230 237
-1.23451 -0.0501384 0.127315 142 145 153
-1.27126 -0.0507853 0.0917627 87 94 118
-1.25343 -0.051652 0.107696 129 134 150
-1.27208 0.0683925 0.107294 75 87 128
-1.25032 0.0480719 0.184791 228 233 242
-1.27127 -0.0860241 0.198923 146 150 157
-1.27726 -0.00557582 0.243178 120 122 142
-1.34733 -0.0250852 0.216363 127 133 141
-1.27313 0.0110361 0.284841 144 147 165
-1.29166 -0.00293121 0.304042 127 127 135
-1.29891 -0.101754 0.176773 125 125 123
-1.36851 0.113636 0.148048 201 203 207
-1.38568 0.126528 0.149454 156 161 171
-1.38475 0.114531 0.152649 173 179 189
-1.38743 0.115082 0.161072 190 197 208
-1.38529 0.128017 0.163427 148 156 172
-1.38263 0.0469684 0.213604 185 192 226
-1.41637 0.0731222 0.234567 165 172 227
-1.21553 -0.0500204 0.146981 64 78 110
-1.19871 -0.0415635 0.173952 222 224 232
-1.24511 -0.0843653 0.198297 203 203 204
-1.21692 0.0441444 0.204813 233 239 246
-1.21338 -0.0302275 0.221013 220 225 234
-1.21408 -0.0473221 0.218256 228 233 239
-1.21615 0.0083102 0.218709 224 229 237
-1.21842 0.0426866 0.21716 229 235 243
-1.22919 0.0913049 0.237789 238 243 252
-1.23856 0.103614 0.237744 241 246 253
-1.28984 0.0287678 0.0880725 80 90 123
-1.3112 0.0885654 0.0871738 77 87 123
-1.31 0.108794 0.0894611 75 85 122
-1.40266 0.195834 0.146348 70 80 97
-1.21829 -0.0635213 0.167434 236 239 247
-1.22718 -0.0520944 0.186824 229 233 240
-1.25293 -0.0849723 0.184753 164 163 162
-1.30755 -0.00480808 0.24564 141 143 153
-1.28927 0.0694631 0.0906414 86 94 125
-1.2772 0.0244975 0.0917941 85 92 124
-1.25008 0.0272836 0.114036 70 83 125
-1.23382 -0.0121214 0.125439 155 162 180
-1.37926 -0.011376 0.246688 104 112 160
-1.29503 0.105426 0.0915261 81 90 122
-1.28931 0.0891709 0.0921176 86 94 127
-1.31075 0.122898 0.0939399 87 99 135
-1.31173 -0.0529211 0.0704269 94 99 120
-1.30972 0.0156872 0.0741986 80 89 120
-1.33647 0.165606 0.111484 196 198 201
-1.27891 -0.00571179 0.276135 167 167 163
-1.31052 -0.012541 0.0727834 73 82 112
-1.36402 -0.0162427 0.194262 74 82 100
-1.29224 -0.0205909 0.0754834 74 82 114
-1.30883 0.0464377 0.0748696 82 93 120
-1.39327 -0.0264092 0.191122 142 144 151
-1.32669 0.0303883 0.318036 113 115 129
-1.32436 0.0308244 0.0725023 79 88 120
-1.34101 -0.0059238 0.264667 169 169 166
-1.32566 0.04654 0.0740159 82 91 121
-1.35477 0.0302259 0.317634 147 148 149
-1.32357 0.0180841 0.0737212 76 87 119
-1.3512 0.183801 0.112344 217 219 219
-1.25915 0.019036 0.264823 196 196 194
-1.25841 0.0176012 0.286356 194 194 191
-1.25775 0.0655429 0.112382 66 80 128
-1.23022 -0.0112353 0.113039 164 168 185
-1.23753 0.00585842 0.127368 97 107 140
-1.23754 0.0463348 0.155398 221 228 246
-1.40581 0.221302 0.183618 90 97 132
-1.32902 -0.0696085 0.127547 143 139 138
-1.25469 0.0466257 0.287002 108 112 148
-1.25747 0.0442805 0.30395 110 114 140
-1.25221 0.0305461 0.305292 183 182 180
-1.28373 0.0599374 0.315733 130 134 177
-1.26842 0.0474253 0.318827 110 113 137
-1.34254 -0.0314069 0.171534 227 232 239
-1.36885 -0.0848723 0.172316 132 131 125
-1.41392 0.140043 0.194858 230 232 241
-1.42886 0.223477 0.213601 84 89 122
-1.44489 0.11023 0.21083 157 165 235
-1.44619 0.0935907 0.212527 181 186 237
-1.45154 0.0844034 0.261469 179 178 213
-1.46353 0.0842447 0.268115 174 178 238
-1.46852 0.0798422 0.277466 192 196 211
-1.4485 0.0656895 0.283973 191 192 217
-1.46176 0.0750726 0.282193 206 204 210
-1.40121 0.0159178 0.29741 140 139 137
