<?xml version="1.0" encoding="utf-8" standalone="no"?>
<!DOCTYPE svg PUBLIC "-//W3C//DTD SVG 1.1//EN"
  "http://www.w3.org/Graphics/SVG/1.1/DTD/svg11.dtd">
<svg xmlns:xlink="http://www.w3.org/1999/xlink" width="856.384375pt" height="535.503983pt" viewBox="0 0 856.384375 535.503983" xmlns="http://www.w3.org/2000/svg" version="1.1">
 <metadata>
  <rdf:RDF xmlns:dc="http://purl.org/dc/elements/1.1/" xmlns:cc="http://creativecommons.org/ns#" xmlns:rdf="http://www.w3.org/1999/02/22-rdf-syntax-ns#">
   <cc:Work>
    <dc:type rdf:resource="http://purl.org/dc/dcmitype/StillImage"/>
    <dc:date>2026-05-22T19:20:06.151628</dc:date>
    <dc:format>image/svg+xml</dc:format>
    <dc:creator>
     <cc:Agent>
      <dc:title>Matplotlib v3.10.8, https://matplotlib.org/</dc:title>
     </cc:Agent>
    </dc:creator>
   </cc:Work>
  </rdf:RDF>
 </metadata>
 <defs>
  <style type="text/css">*{stroke-linejoin: round; stroke-linecap: butt}</style>
 </defs>
 <g id="figure_1">
  <g id="patch_1">
   <path d="M 0 535.503983 
L 856.384375 535.503983 
L 856.384375 0 
L 0 0 
z
" style="fill: #f5f5f0"/>
  </g>
  <g id="axes_1">
   <g id="patch_2">
    <path d="M 41.004375 500.378358 
L 849.184375 500.378358 
L 849.184375 119.409395 
L 41.004375 119.409395 
z
" style="fill: #f5f5f0"/>
   </g>
   <g id="matplotlib.axis_1">
    <g id="xtick_1">
     <g id="line2d_1">
      <path d="M 97.225983 500.378358 
L 97.225983 119.409395 
" clip-path="url(#p368ae45c8e)" style="fill: none; stroke: #dddddd; stroke-width: 0.5; stroke-linecap: square"/>
     </g>
     <g id="line2d_2">
      <defs>
       <path id="mcc129de6da" d="M 0 0 
L 0 3.5 
" style="stroke: #888888; stroke-width: 0.8"/>
      </defs>
      <g>
       <use xlink:href="#mcc129de6da" x="97.225983" y="500.378358" style="fill: #888888; stroke: #888888; stroke-width: 0.8"/>
      </g>
     </g>
     <g id="text_1">
      <!-- -4 -->
      <g style="fill: #888888" transform="translate(93.382233 513.452108) scale(0.08 -0.08)">
       <defs>
        <path id="MalgunGothic-2d" d="M 2213 1634 
L 463 1634 
L 463 2031 
L 2213 2031 
L 2213 1634 
z
" transform="scale(0.015625)"/>
        <path id="MalgunGothic-34" d="M 2703 4600 
L 2703 1563 
L 3309 1563 
L 3309 1113 
L 2703 1113 
L 2703 0 
L 2213 0 
L 2213 1113 
L 50 1113 
L 50 1534 
Q 728 2297 1295 3109 
Q 1863 3922 2172 4600 
L 2703 4600 
z
M 625 1563 
L 2213 1563 
L 2213 3831 
Q 1613 2788 959 1981 
L 625 1563 
z
" transform="scale(0.015625)"/>
       </defs>
       <use xlink:href="#MalgunGothic-2d"/>
       <use xlink:href="#MalgunGothic-34" transform="translate(41.015625 0)"/>
      </g>
     </g>
    </g>
    <g id="xtick_2">
     <g id="line2d_3">
      <path d="M 269.822555 500.378358 
L 269.822555 119.409395 
" clip-path="url(#p368ae45c8e)" style="fill: none; stroke: #dddddd; stroke-width: 0.5; stroke-linecap: square"/>
     </g>
     <g id="line2d_4">
      <g>
       <use xlink:href="#mcc129de6da" x="269.822555" y="500.378358" style="fill: #888888; stroke: #888888; stroke-width: 0.8"/>
      </g>
     </g>
     <g id="text_2">
      <!-- -2 -->
      <g style="fill: #888888" transform="translate(265.978805 513.452108) scale(0.08 -0.08)">
       <defs>
        <path id="MalgunGothic-32" d="M 2519 3372 
Q 2519 3784 2275 4018 
Q 2031 4253 1628 4253 
Q 1341 4253 1053 4104 
Q 766 3956 534 3697 
L 534 4234 
Q 981 4675 1691 4675 
Q 2281 4675 2642 4334 
Q 3003 3994 3003 3416 
Q 3003 2919 2772 2545 
Q 2541 2172 1984 1775 
Q 1459 1406 1254 1215 
Q 1050 1025 967 854 
Q 884 684 884 450 
L 3116 450 
L 3116 0 
L 356 0 
L 356 225 
Q 356 603 461 870 
Q 566 1138 811 1392 
Q 1056 1647 1597 2022 
Q 2091 2363 2305 2670 
Q 2519 2978 2519 3372 
z
" transform="scale(0.015625)"/>
       </defs>
       <use xlink:href="#MalgunGothic-2d"/>
       <use xlink:href="#MalgunGothic-32" transform="translate(41.015625 0)"/>
      </g>
     </g>
    </g>
    <g id="xtick_3">
     <g id="line2d_5">
      <path d="M 442.419128 500.378358 
L 442.419128 119.409395 
" clip-path="url(#p368ae45c8e)" style="fill: none; stroke: #dddddd; stroke-width: 0.5; stroke-linecap: square"/>
     </g>
     <g id="line2d_6">
      <g>
       <use xlink:href="#mcc129de6da" x="442.419128" y="500.378358" style="fill: #888888; stroke: #888888; stroke-width: 0.8"/>
      </g>
     </g>
     <g id="text_3">
      <!-- 0 -->
      <g style="fill: #888888" transform="translate(440.216003 513.452108) scale(0.08 -0.08)">
       <defs>
        <path id="MalgunGothic-30" d="M 278 2206 
Q 278 3425 675 4050 
Q 1072 4675 1819 4675 
Q 3253 4675 3253 2319 
Q 3253 1156 2854 539 
Q 2456 -78 1716 -78 
Q 1016 -78 647 520 
Q 278 1119 278 2206 
z
M 784 2231 
Q 784 344 1769 344 
Q 2747 344 2747 2259 
Q 2747 4250 1794 4250 
Q 784 4250 784 2231 
z
" transform="scale(0.015625)"/>
       </defs>
       <use xlink:href="#MalgunGothic-30"/>
      </g>
     </g>
    </g>
    <g id="xtick_4">
     <g id="line2d_7">
      <path d="M 615.015701 500.378358 
L 615.015701 119.409395 
" clip-path="url(#p368ae45c8e)" style="fill: none; stroke: #dddddd; stroke-width: 0.5; stroke-linecap: square"/>
     </g>
     <g id="line2d_8">
      <g>
       <use xlink:href="#mcc129de6da" x="615.015701" y="500.378358" style="fill: #888888; stroke: #888888; stroke-width: 0.8"/>
      </g>
     </g>
     <g id="text_4">
      <!-- 2 -->
      <g style="fill: #888888" transform="translate(612.812576 513.452108) scale(0.08 -0.08)">
       <use xlink:href="#MalgunGothic-32"/>
      </g>
     </g>
    </g>
    <g id="xtick_5">
     <g id="line2d_9">
      <path d="M 787.612274 500.378358 
L 787.612274 119.409395 
" clip-path="url(#p368ae45c8e)" style="fill: none; stroke: #dddddd; stroke-width: 0.5; stroke-linecap: square"/>
     </g>
     <g id="line2d_10">
      <g>
       <use xlink:href="#mcc129de6da" x="787.612274" y="500.378358" style="fill: #888888; stroke: #888888; stroke-width: 0.8"/>
      </g>
     </g>
     <g id="text_5">
      <!-- 4 -->
      <g style="fill: #888888" transform="translate(785.409149 513.452108) scale(0.08 -0.08)">
       <use xlink:href="#MalgunGothic-34"/>
      </g>
     </g>
    </g>
    <g id="xtick_6">
     <g id="line2d_11">
      <path d="M 54.076839 500.378358 
L 54.076839 119.409395 
" clip-path="url(#p368ae45c8e)" style="fill: none; stroke: #eeeeee; stroke-width: 0.3; stroke-linecap: square"/>
     </g>
     <g id="line2d_12">
      <defs>
       <path id="mc80653411b" d="M 0 0 
L 0 2 
" style="stroke: #000000; stroke-width: 0.6"/>
      </defs>
      <g>
       <use xlink:href="#mc80653411b" x="54.076839" y="500.378358" style="stroke: #000000; stroke-width: 0.6"/>
      </g>
     </g>
    </g>
    <g id="xtick_7">
     <g id="line2d_13">
      <path d="M 140.375126 500.378358 
L 140.375126 119.409395 
" clip-path="url(#p368ae45c8e)" style="fill: none; stroke: #eeeeee; stroke-width: 0.3; stroke-linecap: square"/>
     </g>
     <g id="line2d_14">
      <g>
       <use xlink:href="#mc80653411b" x="140.375126" y="500.378358" style="stroke: #000000; stroke-width: 0.6"/>
      </g>
     </g>
    </g>
    <g id="xtick_8">
     <g id="line2d_15">
      <path d="M 183.524269 500.378358 
L 183.524269 119.409395 
" clip-path="url(#p368ae45c8e)" style="fill: none; stroke: #eeeeee; stroke-width: 0.3; stroke-linecap: square"/>
     </g>
     <g id="line2d_16">
      <g>
       <use xlink:href="#mc80653411b" x="183.524269" y="500.378358" style="stroke: #000000; stroke-width: 0.6"/>
      </g>
     </g>
    </g>
    <g id="xtick_9">
     <g id="line2d_17">
      <path d="M 226.673412 500.378358 
L 226.673412 119.409395 
" clip-path="url(#p368ae45c8e)" style="fill: none; stroke: #eeeeee; stroke-width: 0.3; stroke-linecap: square"/>
     </g>
     <g id="line2d_18">
      <g>
       <use xlink:href="#mc80653411b" x="226.673412" y="500.378358" style="stroke: #000000; stroke-width: 0.6"/>
      </g>
     </g>
    </g>
    <g id="xtick_10">
     <g id="line2d_19">
      <path d="M 312.971699 500.378358 
L 312.971699 119.409395 
" clip-path="url(#p368ae45c8e)" style="fill: none; stroke: #eeeeee; stroke-width: 0.3; stroke-linecap: square"/>
     </g>
     <g id="line2d_20">
      <g>
       <use xlink:href="#mc80653411b" x="312.971699" y="500.378358" style="stroke: #000000; stroke-width: 0.6"/>
      </g>
     </g>
    </g>
    <g id="xtick_11">
     <g id="line2d_21">
      <path d="M 356.120842 500.378358 
L 356.120842 119.409395 
" clip-path="url(#p368ae45c8e)" style="fill: none; stroke: #eeeeee; stroke-width: 0.3; stroke-linecap: square"/>
     </g>
     <g id="line2d_22">
      <g>
       <use xlink:href="#mc80653411b" x="356.120842" y="500.378358" style="stroke: #000000; stroke-width: 0.6"/>
      </g>
     </g>
    </g>
    <g id="xtick_12">
     <g id="line2d_23">
      <path d="M 399.269985 500.378358 
L 399.269985 119.409395 
" clip-path="url(#p368ae45c8e)" style="fill: none; stroke: #eeeeee; stroke-width: 0.3; stroke-linecap: square"/>
     </g>
     <g id="line2d_24">
      <g>
       <use xlink:href="#mc80653411b" x="399.269985" y="500.378358" style="stroke: #000000; stroke-width: 0.6"/>
      </g>
     </g>
    </g>
    <g id="xtick_13">
     <g id="line2d_25">
      <path d="M 485.568271 500.378358 
L 485.568271 119.409395 
" clip-path="url(#p368ae45c8e)" style="fill: none; stroke: #eeeeee; stroke-width: 0.3; stroke-linecap: square"/>
     </g>
     <g id="line2d_26">
      <g>
       <use xlink:href="#mc80653411b" x="485.568271" y="500.378358" style="stroke: #000000; stroke-width: 0.6"/>
      </g>
     </g>
    </g>
    <g id="xtick_14">
     <g id="line2d_27">
      <path d="M 528.717415 500.378358 
L 528.717415 119.409395 
" clip-path="url(#p368ae45c8e)" style="fill: none; stroke: #eeeeee; stroke-width: 0.3; stroke-linecap: square"/>
     </g>
     <g id="line2d_28">
      <g>
       <use xlink:href="#mc80653411b" x="528.717415" y="500.378358" style="stroke: #000000; stroke-width: 0.6"/>
      </g>
     </g>
    </g>
    <g id="xtick_15">
     <g id="line2d_29">
      <path d="M 571.866558 500.378358 
L 571.866558 119.409395 
" clip-path="url(#p368ae45c8e)" style="fill: none; stroke: #eeeeee; stroke-width: 0.3; stroke-linecap: square"/>
     </g>
     <g id="line2d_30">
      <g>
       <use xlink:href="#mc80653411b" x="571.866558" y="500.378358" style="stroke: #000000; stroke-width: 0.6"/>
      </g>
     </g>
    </g>
    <g id="xtick_16">
     <g id="line2d_31">
      <path d="M 658.164844 500.378358 
L 658.164844 119.409395 
" clip-path="url(#p368ae45c8e)" style="fill: none; stroke: #eeeeee; stroke-width: 0.3; stroke-linecap: square"/>
     </g>
     <g id="line2d_32">
      <g>
       <use xlink:href="#mc80653411b" x="658.164844" y="500.378358" style="stroke: #000000; stroke-width: 0.6"/>
      </g>
     </g>
    </g>
    <g id="xtick_17">
     <g id="line2d_33">
      <path d="M 701.313987 500.378358 
L 701.313987 119.409395 
" clip-path="url(#p368ae45c8e)" style="fill: none; stroke: #eeeeee; stroke-width: 0.3; stroke-linecap: square"/>
     </g>
     <g id="line2d_34">
      <g>
       <use xlink:href="#mc80653411b" x="701.313987" y="500.378358" style="stroke: #000000; stroke-width: 0.6"/>
      </g>
     </g>
    </g>
    <g id="xtick_18">
     <g id="line2d_35">
      <path d="M 744.46313 500.378358 
L 744.46313 119.409395 
" clip-path="url(#p368ae45c8e)" style="fill: none; stroke: #eeeeee; stroke-width: 0.3; stroke-linecap: square"/>
     </g>
     <g id="line2d_36">
      <g>
       <use xlink:href="#mc80653411b" x="744.46313" y="500.378358" style="stroke: #000000; stroke-width: 0.6"/>
      </g>
     </g>
    </g>
    <g id="xtick_19">
     <g id="line2d_37">
      <path d="M 830.761417 500.378358 
L 830.761417 119.409395 
" clip-path="url(#p368ae45c8e)" style="fill: none; stroke: #eeeeee; stroke-width: 0.3; stroke-linecap: square"/>
     </g>
     <g id="line2d_38">
      <g>
       <use xlink:href="#mc80653411b" x="830.761417" y="500.378358" style="stroke: #000000; stroke-width: 0.6"/>
      </g>
     </g>
    </g>
    <g id="text_6">
     <!-- X (m) -->
     <g style="fill: #555555" transform="translate(434.105938 526.176327) scale(0.09 -0.09)">
      <defs>
       <path id="MalgunGothic-58" d="M 3744 0 
L 3125 0 
L 2050 1778 
Q 2003 1853 1941 2000 
L 1928 2000 
Q 1891 1913 1819 1778 
L 713 0 
L 88 0 
L 1631 2313 
L 209 4600 
L 831 4600 
L 1788 2966 
Q 1903 2769 1953 2647 
L 1966 2647 
Q 2072 2866 2150 2981 
L 3141 4600 
L 3725 4600 
L 2278 2319 
L 3744 0 
z
" transform="scale(0.015625)"/>
       <path id="MalgunGothic-20" transform="scale(0.015625)"/>
       <path id="MalgunGothic-28" d="M 1438 -1044 
Q 447 88 447 1753 
Q 447 3431 1438 4600 
L 1888 4600 
Q 878 3372 878 1759 
Q 878 153 1881 -1044 
L 1438 -1044 
z
" transform="scale(0.015625)"/>
       <path id="MalgunGothic-6d" d="M 5166 0 
L 4669 0 
L 4669 1884 
Q 4669 2463 4495 2702 
Q 4322 2941 3922 2941 
Q 3584 2941 3342 2623 
Q 3100 2306 3100 1875 
L 3100 0 
L 2606 0 
L 2606 1953 
Q 2606 2941 1844 2941 
Q 1497 2941 1265 2642 
Q 1034 2344 1034 1875 
L 1034 0 
L 538 0 
L 538 3284 
L 1034 3284 
L 1034 2763 
L 1047 2763 
Q 1391 3359 2063 3359 
Q 2381 3359 2636 3176 
Q 2891 2994 2991 2675 
Q 3356 3359 4081 3359 
Q 5166 3359 5166 2022 
L 5166 0 
z
" transform="scale(0.015625)"/>
       <path id="MalgunGothic-29" d="M 81 -1044 
Q 1081 150 1081 1759 
Q 1081 3378 72 4600 
L 525 4600 
Q 1522 3431 1522 1753 
Q 1522 88 525 -1044 
L 81 -1044 
z
" transform="scale(0.015625)"/>
      </defs>
      <use xlink:href="#MalgunGothic-58"/>
      <use xlink:href="#MalgunGothic-20" transform="translate(60.107422 0)"/>
      <use xlink:href="#MalgunGothic-28" transform="translate(95.263672 0)"/>
      <use xlink:href="#MalgunGothic-6d" transform="translate(125.732422 0)"/>
      <use xlink:href="#MalgunGothic-29" transform="translate(213.720703 0)"/>
     </g>
    </g>
   </g>
   <g id="matplotlib.axis_2">
    <g id="ytick_1">
     <g id="line2d_39">
      <path d="M 41.004375 477.657745 
L 849.184375 477.657745 
" clip-path="url(#p368ae45c8e)" style="fill: none; stroke: #dddddd; stroke-width: 0.5; stroke-linecap: square"/>
     </g>
     <g id="line2d_40">
      <defs>
       <path id="m173e2c6158" d="M 0 0 
L -3.5 0 
" style="stroke: #888888; stroke-width: 0.8"/>
      </defs>
      <g>
       <use xlink:href="#m173e2c6158" x="41.004375" y="477.657745" style="fill: #888888; stroke: #888888; stroke-width: 0.8"/>
      </g>
     </g>
     <g id="text_7">
      <!-- -2.0 -->
      <g style="fill: #888888" transform="translate(20.160625 480.69462) scale(0.08 -0.08)">
       <defs>
        <path id="MalgunGothic-2e" d="M 356 275 
Q 356 422 459 523 
Q 563 625 700 625 
Q 838 625 941 523 
Q 1044 422 1044 275 
Q 1044 138 942 33 
Q 841 -72 700 -72 
Q 559 -72 457 29 
Q 356 131 356 275 
z
" transform="scale(0.015625)"/>
       </defs>
       <use xlink:href="#MalgunGothic-2d"/>
       <use xlink:href="#MalgunGothic-32" transform="translate(41.015625 0)"/>
       <use xlink:href="#MalgunGothic-2e" transform="translate(96.09375 0)"/>
       <use xlink:href="#MalgunGothic-30" transform="translate(117.96875 0)"/>
      </g>
     </g>
    </g>
    <g id="ytick_2">
     <g id="line2d_41">
      <path d="M 41.004375 434.508602 
L 849.184375 434.508602 
" clip-path="url(#p368ae45c8e)" style="fill: none; stroke: #dddddd; stroke-width: 0.5; stroke-linecap: square"/>
     </g>
     <g id="line2d_42">
      <g>
       <use xlink:href="#m173e2c6158" x="41.004375" y="434.508602" style="fill: #888888; stroke: #888888; stroke-width: 0.8"/>
      </g>
     </g>
     <g id="text_8">
      <!-- -1.5 -->
      <g style="fill: #888888" transform="translate(20.160625 437.545477) scale(0.08 -0.08)">
       <defs>
        <path id="MalgunGothic-31" d="M 2231 0 
L 1734 0 
L 1734 3972 
Q 1591 3828 1266 3661 
Q 941 3494 672 3428 
L 672 3959 
Q 1016 4056 1409 4275 
Q 1803 4494 2031 4700 
L 2231 4700 
L 2231 0 
z
" transform="scale(0.015625)"/>
        <path id="MalgunGothic-35" d="M 3072 1403 
Q 3072 722 2636 322 
Q 2200 -78 1469 -78 
Q 828 -78 516 113 
L 516 650 
Q 994 344 1475 344 
Q 1969 344 2270 630 
Q 2572 916 2572 1372 
Q 2572 1838 2265 2092 
Q 1959 2347 1381 2347 
Q 994 2347 603 2300 
L 759 4600 
L 2869 4600 
L 2869 4147 
L 1206 4147 
L 1106 2763 
Q 1347 2784 1547 2784 
Q 2263 2784 2667 2414 
Q 3072 2044 3072 1403 
z
" transform="scale(0.015625)"/>
       </defs>
       <use xlink:href="#MalgunGothic-2d"/>
       <use xlink:href="#MalgunGothic-31" transform="translate(41.015625 0)"/>
       <use xlink:href="#MalgunGothic-2e" transform="translate(96.09375 0)"/>
       <use xlink:href="#MalgunGothic-35" transform="translate(117.96875 0)"/>
      </g>
     </g>
    </g>
    <g id="ytick_3">
     <g id="line2d_43">
      <path d="M 41.004375 391.359459 
L 849.184375 391.359459 
" clip-path="url(#p368ae45c8e)" style="fill: none; stroke: #dddddd; stroke-width: 0.5; stroke-linecap: square"/>
     </g>
     <g id="line2d_44">
      <g>
       <use xlink:href="#m173e2c6158" x="41.004375" y="391.359459" style="fill: #888888; stroke: #888888; stroke-width: 0.8"/>
      </g>
     </g>
     <g id="text_9">
      <!-- -1.0 -->
      <g style="fill: #888888" transform="translate(20.160625 394.396334) scale(0.08 -0.08)">
       <use xlink:href="#MalgunGothic-2d"/>
       <use xlink:href="#MalgunGothic-31" transform="translate(41.015625 0)"/>
       <use xlink:href="#MalgunGothic-2e" transform="translate(96.09375 0)"/>
       <use xlink:href="#MalgunGothic-30" transform="translate(117.96875 0)"/>
      </g>
     </g>
    </g>
    <g id="ytick_4">
     <g id="line2d_45">
      <path d="M 41.004375 348.210315 
L 849.184375 348.210315 
" clip-path="url(#p368ae45c8e)" style="fill: none; stroke: #dddddd; stroke-width: 0.5; stroke-linecap: square"/>
     </g>
     <g id="line2d_46">
      <g>
       <use xlink:href="#m173e2c6158" x="41.004375" y="348.210315" style="fill: #888888; stroke: #888888; stroke-width: 0.8"/>
      </g>
     </g>
     <g id="text_10">
      <!-- -0.5 -->
      <g style="fill: #888888" transform="translate(20.160625 351.24719) scale(0.08 -0.08)">
       <use xlink:href="#MalgunGothic-2d"/>
       <use xlink:href="#MalgunGothic-30" transform="translate(41.015625 0)"/>
       <use xlink:href="#MalgunGothic-2e" transform="translate(96.09375 0)"/>
       <use xlink:href="#MalgunGothic-35" transform="translate(117.96875 0)"/>
      </g>
     </g>
    </g>
    <g id="ytick_5">
     <g id="line2d_47">
      <path d="M 41.004375 305.061172 
L 849.184375 305.061172 
" clip-path="url(#p368ae45c8e)" style="fill: none; stroke: #dddddd; stroke-width: 0.5; stroke-linecap: square"/>
     </g>
     <g id="line2d_48">
      <g>
       <use xlink:href="#m173e2c6158" x="41.004375" y="305.061172" style="fill: #888888; stroke: #888888; stroke-width: 0.8"/>
      </g>
     </g>
     <g id="text_11">
      <!-- 0.0 -->
      <g style="fill: #888888" transform="translate(23.441875 308.098047) scale(0.08 -0.08)">
       <use xlink:href="#MalgunGothic-30"/>
       <use xlink:href="#MalgunGothic-2e" transform="translate(55.078125 0)"/>
       <use xlink:href="#MalgunGothic-30" transform="translate(76.953125 0)"/>
      </g>
     </g>
    </g>
    <g id="ytick_6">
     <g id="line2d_49">
      <path d="M 41.004375 261.912029 
L 849.184375 261.912029 
" clip-path="url(#p368ae45c8e)" style="fill: none; stroke: #dddddd; stroke-width: 0.5; stroke-linecap: square"/>
     </g>
     <g id="line2d_50">
      <g>
       <use xlink:href="#m173e2c6158" x="41.004375" y="261.912029" style="fill: #888888; stroke: #888888; stroke-width: 0.8"/>
      </g>
     </g>
     <g id="text_12">
      <!-- 0.5 -->
      <g style="fill: #888888" transform="translate(23.441875 264.948904) scale(0.08 -0.08)">
       <use xlink:href="#MalgunGothic-30"/>
       <use xlink:href="#MalgunGothic-2e" transform="translate(55.078125 0)"/>
       <use xlink:href="#MalgunGothic-35" transform="translate(76.953125 0)"/>
      </g>
     </g>
    </g>
    <g id="ytick_7">
     <g id="line2d_51">
      <path d="M 41.004375 218.762886 
L 849.184375 218.762886 
" clip-path="url(#p368ae45c8e)" style="fill: none; stroke: #dddddd; stroke-width: 0.5; stroke-linecap: square"/>
     </g>
     <g id="line2d_52">
      <g>
       <use xlink:href="#m173e2c6158" x="41.004375" y="218.762886" style="fill: #888888; stroke: #888888; stroke-width: 0.8"/>
      </g>
     </g>
     <g id="text_13">
      <!-- 1.0 -->
      <g style="fill: #888888" transform="translate(23.441875 221.799761) scale(0.08 -0.08)">
       <use xlink:href="#MalgunGothic-31"/>
       <use xlink:href="#MalgunGothic-2e" transform="translate(55.078125 0)"/>
       <use xlink:href="#MalgunGothic-30" transform="translate(76.953125 0)"/>
      </g>
     </g>
    </g>
    <g id="ytick_8">
     <g id="line2d_53">
      <path d="M 41.004375 175.613743 
L 849.184375 175.613743 
" clip-path="url(#p368ae45c8e)" style="fill: none; stroke: #dddddd; stroke-width: 0.5; stroke-linecap: square"/>
     </g>
     <g id="line2d_54">
      <g>
       <use xlink:href="#m173e2c6158" x="41.004375" y="175.613743" style="fill: #888888; stroke: #888888; stroke-width: 0.8"/>
      </g>
     </g>
     <g id="text_14">
      <!-- 1.5 -->
      <g style="fill: #888888" transform="translate(23.441875 178.650618) scale(0.08 -0.08)">
       <use xlink:href="#MalgunGothic-31"/>
       <use xlink:href="#MalgunGothic-2e" transform="translate(55.078125 0)"/>
       <use xlink:href="#MalgunGothic-35" transform="translate(76.953125 0)"/>
      </g>
     </g>
    </g>
    <g id="ytick_9">
     <g id="line2d_55">
      <path d="M 41.004375 132.464599 
L 849.184375 132.464599 
" clip-path="url(#p368ae45c8e)" style="fill: none; stroke: #dddddd; stroke-width: 0.5; stroke-linecap: square"/>
     </g>
     <g id="line2d_56">
      <g>
       <use xlink:href="#m173e2c6158" x="41.004375" y="132.464599" style="fill: #888888; stroke: #888888; stroke-width: 0.8"/>
      </g>
     </g>
     <g id="text_15">
      <!-- 2.0 -->
      <g style="fill: #888888" transform="translate(23.441875 135.501474) scale(0.08 -0.08)">
       <use xlink:href="#MalgunGothic-32"/>
       <use xlink:href="#MalgunGothic-2e" transform="translate(55.078125 0)"/>
       <use xlink:href="#MalgunGothic-30" transform="translate(76.953125 0)"/>
      </g>
     </g>
    </g>
    <g id="ytick_10">
     <g id="line2d_57">
      <path d="M 41.004375 494.917402 
L 849.184375 494.917402 
" clip-path="url(#p368ae45c8e)" style="fill: none; stroke: #eeeeee; stroke-width: 0.3; stroke-linecap: square"/>
     </g>
     <g id="line2d_58">
      <defs>
       <path id="m256bdd08aa" d="M 0 0 
L -2 0 
" style="stroke: #000000; stroke-width: 0.6"/>
      </defs>
      <g>
       <use xlink:href="#m256bdd08aa" x="41.004375" y="494.917402" style="stroke: #000000; stroke-width: 0.6"/>
      </g>
     </g>
    </g>
    <g id="ytick_11">
     <g id="line2d_59">
      <path d="M 41.004375 486.287574 
L 849.184375 486.287574 
" clip-path="url(#p368ae45c8e)" style="fill: none; stroke: #eeeeee; stroke-width: 0.3; stroke-linecap: square"/>
     </g>
     <g id="line2d_60">
      <g>
       <use xlink:href="#m256bdd08aa" x="41.004375" y="486.287574" style="stroke: #000000; stroke-width: 0.6"/>
      </g>
     </g>
    </g>
    <g id="ytick_12">
     <g id="line2d_61">
      <path d="M 41.004375 469.027916 
L 849.184375 469.027916 
" clip-path="url(#p368ae45c8e)" style="fill: none; stroke: #eeeeee; stroke-width: 0.3; stroke-linecap: square"/>
     </g>
     <g id="line2d_62">
      <g>
       <use xlink:href="#m256bdd08aa" x="41.004375" y="469.027916" style="stroke: #000000; stroke-width: 0.6"/>
      </g>
     </g>
    </g>
    <g id="ytick_13">
     <g id="line2d_63">
      <path d="M 41.004375 460.398088 
L 849.184375 460.398088 
" clip-path="url(#p368ae45c8e)" style="fill: none; stroke: #eeeeee; stroke-width: 0.3; stroke-linecap: square"/>
     </g>
     <g id="line2d_64">
      <g>
       <use xlink:href="#m256bdd08aa" x="41.004375" y="460.398088" style="stroke: #000000; stroke-width: 0.6"/>
      </g>
     </g>
    </g>
    <g id="ytick_14">
     <g id="line2d_65">
      <path d="M 41.004375 451.768259 
L 849.184375 451.768259 
" clip-path="url(#p368ae45c8e)" style="fill: none; stroke: #eeeeee; stroke-width: 0.3; stroke-linecap: square"/>
     </g>
     <g id="line2d_66">
      <g>
       <use xlink:href="#m256bdd08aa" x="41.004375" y="451.768259" style="stroke: #000000; stroke-width: 0.6"/>
      </g>
     </g>
    </g>
    <g id="ytick_15">
     <g id="line2d_67">
      <path d="M 41.004375 443.13843 
L 849.184375 443.13843 
" clip-path="url(#p368ae45c8e)" style="fill: none; stroke: #eeeeee; stroke-width: 0.3; stroke-linecap: square"/>
     </g>
     <g id="line2d_68">
      <g>
       <use xlink:href="#m256bdd08aa" x="41.004375" y="443.13843" style="stroke: #000000; stroke-width: 0.6"/>
      </g>
     </g>
    </g>
    <g id="ytick_16">
     <g id="line2d_69">
      <path d="M 41.004375 425.878773 
L 849.184375 425.878773 
" clip-path="url(#p368ae45c8e)" style="fill: none; stroke: #eeeeee; stroke-width: 0.3; stroke-linecap: square"/>
     </g>
     <g id="line2d_70">
      <g>
       <use xlink:href="#m256bdd08aa" x="41.004375" y="425.878773" style="stroke: #000000; stroke-width: 0.6"/>
      </g>
     </g>
    </g>
    <g id="ytick_17">
     <g id="line2d_71">
      <path d="M 41.004375 417.248945 
L 849.184375 417.248945 
" clip-path="url(#p368ae45c8e)" style="fill: none; stroke: #eeeeee; stroke-width: 0.3; stroke-linecap: square"/>
     </g>
     <g id="line2d_72">
      <g>
       <use xlink:href="#m256bdd08aa" x="41.004375" y="417.248945" style="stroke: #000000; stroke-width: 0.6"/>
      </g>
     </g>
    </g>
    <g id="ytick_18">
     <g id="line2d_73">
      <path d="M 41.004375 408.619116 
L 849.184375 408.619116 
" clip-path="url(#p368ae45c8e)" style="fill: none; stroke: #eeeeee; stroke-width: 0.3; stroke-linecap: square"/>
     </g>
     <g id="line2d_74">
      <g>
       <use xlink:href="#m256bdd08aa" x="41.004375" y="408.619116" style="stroke: #000000; stroke-width: 0.6"/>
      </g>
     </g>
    </g>
    <g id="ytick_19">
     <g id="line2d_75">
      <path d="M 41.004375 399.989287 
L 849.184375 399.989287 
" clip-path="url(#p368ae45c8e)" style="fill: none; stroke: #eeeeee; stroke-width: 0.3; stroke-linecap: square"/>
     </g>
     <g id="line2d_76">
      <g>
       <use xlink:href="#m256bdd08aa" x="41.004375" y="399.989287" style="stroke: #000000; stroke-width: 0.6"/>
      </g>
     </g>
    </g>
    <g id="ytick_20">
     <g id="line2d_77">
      <path d="M 41.004375 382.72963 
L 849.184375 382.72963 
" clip-path="url(#p368ae45c8e)" style="fill: none; stroke: #eeeeee; stroke-width: 0.3; stroke-linecap: square"/>
     </g>
     <g id="line2d_78">
      <g>
       <use xlink:href="#m256bdd08aa" x="41.004375" y="382.72963" style="stroke: #000000; stroke-width: 0.6"/>
      </g>
     </g>
    </g>
    <g id="ytick_21">
     <g id="line2d_79">
      <path d="M 41.004375 374.099801 
L 849.184375 374.099801 
" clip-path="url(#p368ae45c8e)" style="fill: none; stroke: #eeeeee; stroke-width: 0.3; stroke-linecap: square"/>
     </g>
     <g id="line2d_80">
      <g>
       <use xlink:href="#m256bdd08aa" x="41.004375" y="374.099801" style="stroke: #000000; stroke-width: 0.6"/>
      </g>
     </g>
    </g>
    <g id="ytick_22">
     <g id="line2d_81">
      <path d="M 41.004375 365.469973 
L 849.184375 365.469973 
" clip-path="url(#p368ae45c8e)" style="fill: none; stroke: #eeeeee; stroke-width: 0.3; stroke-linecap: square"/>
     </g>
     <g id="line2d_82">
      <g>
       <use xlink:href="#m256bdd08aa" x="41.004375" y="365.469973" style="stroke: #000000; stroke-width: 0.6"/>
      </g>
     </g>
    </g>
    <g id="ytick_23">
     <g id="line2d_83">
      <path d="M 41.004375 356.840144 
L 849.184375 356.840144 
" clip-path="url(#p368ae45c8e)" style="fill: none; stroke: #eeeeee; stroke-width: 0.3; stroke-linecap: square"/>
     </g>
     <g id="line2d_84">
      <g>
       <use xlink:href="#m256bdd08aa" x="41.004375" y="356.840144" style="stroke: #000000; stroke-width: 0.6"/>
      </g>
     </g>
    </g>
    <g id="ytick_24">
     <g id="line2d_85">
      <path d="M 41.004375 339.580487 
L 849.184375 339.580487 
" clip-path="url(#p368ae45c8e)" style="fill: none; stroke: #eeeeee; stroke-width: 0.3; stroke-linecap: square"/>
     </g>
     <g id="line2d_86">
      <g>
       <use xlink:href="#m256bdd08aa" x="41.004375" y="339.580487" style="stroke: #000000; stroke-width: 0.6"/>
      </g>
     </g>
    </g>
    <g id="ytick_25">
     <g id="line2d_87">
      <path d="M 41.004375 330.950658 
L 849.184375 330.950658 
" clip-path="url(#p368ae45c8e)" style="fill: none; stroke: #eeeeee; stroke-width: 0.3; stroke-linecap: square"/>
     </g>
     <g id="line2d_88">
      <g>
       <use xlink:href="#m256bdd08aa" x="41.004375" y="330.950658" style="stroke: #000000; stroke-width: 0.6"/>
      </g>
     </g>
    </g>
    <g id="ytick_26">
     <g id="line2d_89">
      <path d="M 41.004375 322.32083 
L 849.184375 322.32083 
" clip-path="url(#p368ae45c8e)" style="fill: none; stroke: #eeeeee; stroke-width: 0.3; stroke-linecap: square"/>
     </g>
     <g id="line2d_90">
      <g>
       <use xlink:href="#m256bdd08aa" x="41.004375" y="322.32083" style="stroke: #000000; stroke-width: 0.6"/>
      </g>
     </g>
    </g>
    <g id="ytick_27">
     <g id="line2d_91">
      <path d="M 41.004375 313.691001 
L 849.184375 313.691001 
" clip-path="url(#p368ae45c8e)" style="fill: none; stroke: #eeeeee; stroke-width: 0.3; stroke-linecap: square"/>
     </g>
     <g id="line2d_92">
      <g>
       <use xlink:href="#m256bdd08aa" x="41.004375" y="313.691001" style="stroke: #000000; stroke-width: 0.6"/>
      </g>
     </g>
    </g>
    <g id="ytick_28">
     <g id="line2d_93">
      <path d="M 41.004375 296.431344 
L 849.184375 296.431344 
" clip-path="url(#p368ae45c8e)" style="fill: none; stroke: #eeeeee; stroke-width: 0.3; stroke-linecap: square"/>
     </g>
     <g id="line2d_94">
      <g>
       <use xlink:href="#m256bdd08aa" x="41.004375" y="296.431344" style="stroke: #000000; stroke-width: 0.6"/>
      </g>
     </g>
    </g>
    <g id="ytick_29">
     <g id="line2d_95">
      <path d="M 41.004375 287.801515 
L 849.184375 287.801515 
" clip-path="url(#p368ae45c8e)" style="fill: none; stroke: #eeeeee; stroke-width: 0.3; stroke-linecap: square"/>
     </g>
     <g id="line2d_96">
      <g>
       <use xlink:href="#m256bdd08aa" x="41.004375" y="287.801515" style="stroke: #000000; stroke-width: 0.6"/>
      </g>
     </g>
    </g>
    <g id="ytick_30">
     <g id="line2d_97">
      <path d="M 41.004375 279.171686 
L 849.184375 279.171686 
" clip-path="url(#p368ae45c8e)" style="fill: none; stroke: #eeeeee; stroke-width: 0.3; stroke-linecap: square"/>
     </g>
     <g id="line2d_98">
      <g>
       <use xlink:href="#m256bdd08aa" x="41.004375" y="279.171686" style="stroke: #000000; stroke-width: 0.6"/>
      </g>
     </g>
    </g>
    <g id="ytick_31">
     <g id="line2d_99">
      <path d="M 41.004375 270.541858 
L 849.184375 270.541858 
" clip-path="url(#p368ae45c8e)" style="fill: none; stroke: #eeeeee; stroke-width: 0.3; stroke-linecap: square"/>
     </g>
     <g id="line2d_100">
      <g>
       <use xlink:href="#m256bdd08aa" x="41.004375" y="270.541858" style="stroke: #000000; stroke-width: 0.6"/>
      </g>
     </g>
    </g>
    <g id="ytick_32">
     <g id="line2d_101">
      <path d="M 41.004375 253.2822 
L 849.184375 253.2822 
" clip-path="url(#p368ae45c8e)" style="fill: none; stroke: #eeeeee; stroke-width: 0.3; stroke-linecap: square"/>
     </g>
     <g id="line2d_102">
      <g>
       <use xlink:href="#m256bdd08aa" x="41.004375" y="253.2822" style="stroke: #000000; stroke-width: 0.6"/>
      </g>
     </g>
    </g>
    <g id="ytick_33">
     <g id="line2d_103">
      <path d="M 41.004375 244.652372 
L 849.184375 244.652372 
" clip-path="url(#p368ae45c8e)" style="fill: none; stroke: #eeeeee; stroke-width: 0.3; stroke-linecap: square"/>
     </g>
     <g id="line2d_104">
      <g>
       <use xlink:href="#m256bdd08aa" x="41.004375" y="244.652372" style="stroke: #000000; stroke-width: 0.6"/>
      </g>
     </g>
    </g>
    <g id="ytick_34">
     <g id="line2d_105">
      <path d="M 41.004375 236.022543 
L 849.184375 236.022543 
" clip-path="url(#p368ae45c8e)" style="fill: none; stroke: #eeeeee; stroke-width: 0.3; stroke-linecap: square"/>
     </g>
     <g id="line2d_106">
      <g>
       <use xlink:href="#m256bdd08aa" x="41.004375" y="236.022543" style="stroke: #000000; stroke-width: 0.6"/>
      </g>
     </g>
    </g>
    <g id="ytick_35">
     <g id="line2d_107">
      <path d="M 41.004375 227.392714 
L 849.184375 227.392714 
" clip-path="url(#p368ae45c8e)" style="fill: none; stroke: #eeeeee; stroke-width: 0.3; stroke-linecap: square"/>
     </g>
     <g id="line2d_108">
      <g>
       <use xlink:href="#m256bdd08aa" x="41.004375" y="227.392714" style="stroke: #000000; stroke-width: 0.6"/>
      </g>
     </g>
    </g>
    <g id="ytick_36">
     <g id="line2d_109">
      <path d="M 41.004375 210.133057 
L 849.184375 210.133057 
" clip-path="url(#p368ae45c8e)" style="fill: none; stroke: #eeeeee; stroke-width: 0.3; stroke-linecap: square"/>
     </g>
     <g id="line2d_110">
      <g>
       <use xlink:href="#m256bdd08aa" x="41.004375" y="210.133057" style="stroke: #000000; stroke-width: 0.6"/>
      </g>
     </g>
    </g>
    <g id="ytick_37">
     <g id="line2d_111">
      <path d="M 41.004375 201.503229 
L 849.184375 201.503229 
" clip-path="url(#p368ae45c8e)" style="fill: none; stroke: #eeeeee; stroke-width: 0.3; stroke-linecap: square"/>
     </g>
     <g id="line2d_112">
      <g>
       <use xlink:href="#m256bdd08aa" x="41.004375" y="201.503229" style="stroke: #000000; stroke-width: 0.6"/>
      </g>
     </g>
    </g>
    <g id="ytick_38">
     <g id="line2d_113">
      <path d="M 41.004375 192.8734 
L 849.184375 192.8734 
" clip-path="url(#p368ae45c8e)" style="fill: none; stroke: #eeeeee; stroke-width: 0.3; stroke-linecap: square"/>
     </g>
     <g id="line2d_114">
      <g>
       <use xlink:href="#m256bdd08aa" x="41.004375" y="192.8734" style="stroke: #000000; stroke-width: 0.6"/>
      </g>
     </g>
    </g>
    <g id="ytick_39">
     <g id="line2d_115">
      <path d="M 41.004375 184.243571 
L 849.184375 184.243571 
" clip-path="url(#p368ae45c8e)" style="fill: none; stroke: #eeeeee; stroke-width: 0.3; stroke-linecap: square"/>
     </g>
     <g id="line2d_116">
      <g>
       <use xlink:href="#m256bdd08aa" x="41.004375" y="184.243571" style="stroke: #000000; stroke-width: 0.6"/>
      </g>
     </g>
    </g>
    <g id="ytick_40">
     <g id="line2d_117">
      <path d="M 41.004375 166.983914 
L 849.184375 166.983914 
" clip-path="url(#p368ae45c8e)" style="fill: none; stroke: #eeeeee; stroke-width: 0.3; stroke-linecap: square"/>
     </g>
     <g id="line2d_118">
      <g>
       <use xlink:href="#m256bdd08aa" x="41.004375" y="166.983914" style="stroke: #000000; stroke-width: 0.6"/>
      </g>
     </g>
    </g>
    <g id="ytick_41">
     <g id="line2d_119">
      <path d="M 41.004375 158.354085 
L 849.184375 158.354085 
" clip-path="url(#p368ae45c8e)" style="fill: none; stroke: #eeeeee; stroke-width: 0.3; stroke-linecap: square"/>
     </g>
     <g id="line2d_120">
      <g>
       <use xlink:href="#m256bdd08aa" x="41.004375" y="158.354085" style="stroke: #000000; stroke-width: 0.6"/>
      </g>
     </g>
    </g>
    <g id="ytick_42">
     <g id="line2d_121">
      <path d="M 41.004375 149.724257 
L 849.184375 149.724257 
" clip-path="url(#p368ae45c8e)" style="fill: none; stroke: #eeeeee; stroke-width: 0.3; stroke-linecap: square"/>
     </g>
     <g id="line2d_122">
      <g>
       <use xlink:href="#m256bdd08aa" x="41.004375" y="149.724257" style="stroke: #000000; stroke-width: 0.6"/>
      </g>
     </g>
    </g>
    <g id="ytick_43">
     <g id="line2d_123">
      <path d="M 41.004375 141.094428 
L 849.184375 141.094428 
" clip-path="url(#p368ae45c8e)" style="fill: none; stroke: #eeeeee; stroke-width: 0.3; stroke-linecap: square"/>
     </g>
     <g id="line2d_124">
      <g>
       <use xlink:href="#m256bdd08aa" x="41.004375" y="141.094428" style="stroke: #000000; stroke-width: 0.6"/>
      </g>
     </g>
    </g>
    <g id="ytick_44">
     <g id="line2d_125">
      <path d="M 41.004375 123.834771 
L 849.184375 123.834771 
" clip-path="url(#p368ae45c8e)" style="fill: none; stroke: #eeeeee; stroke-width: 0.3; stroke-linecap: square"/>
     </g>
     <g id="line2d_126">
      <g>
       <use xlink:href="#m256bdd08aa" x="41.004375" y="123.834771" style="stroke: #000000; stroke-width: 0.6"/>
      </g>
     </g>
    </g>
    <g id="text_16">
     <!-- Z (m) -->
     <g style="fill: #555555" transform="translate(14.032969 320.798642) rotate(-90) scale(0.09 -0.09)">
      <defs>
       <path id="MalgunGothic-5a" d="M 3591 4500 
L 872 463 
L 3522 463 
L 3522 0 
L 106 0 
L 106 122 
L 2794 4134 
L 322 4134 
L 322 4600 
L 3591 4600 
L 3591 4500 
z
" transform="scale(0.015625)"/>
      </defs>
      <use xlink:href="#MalgunGothic-5a"/>
      <use xlink:href="#MalgunGothic-20" transform="translate(58.251953 0)"/>
      <use xlink:href="#MalgunGothic-28" transform="translate(93.408203 0)"/>
      <use xlink:href="#MalgunGothic-6d" transform="translate(123.876953 0)"/>
      <use xlink:href="#MalgunGothic-29" transform="translate(211.865234 0)"/>
     </g>
    </g>
   </g>
   <g id="patch_3">
    <path d="M 41.004375 500.378358 
L 41.004375 119.409395 
" style="fill: none; stroke: #cccccc; stroke-width: 0.8; stroke-linejoin: miter; stroke-linecap: square"/>
   </g>
   <g id="patch_4">
    <path d="M 849.184375 500.378358 
L 849.184375 119.409395 
" style="fill: none; stroke: #cccccc; stroke-width: 0.8; stroke-linejoin: miter; stroke-linecap: square"/>
   </g>
   <g id="patch_5">
    <path d="M 41.004375 500.378358 
L 849.184375 500.378358 
" style="fill: none; stroke: #cccccc; stroke-width: 0.8; stroke-linejoin: miter; stroke-linecap: square"/>
   </g>
   <g id="patch_6">
    <path d="M 41.004375 119.409395 
L 849.184375 119.409395 
" style="fill: none; stroke: #cccccc; stroke-width: 0.8; stroke-linejoin: miter; stroke-linecap: square"/>
   </g>
   <g id="patch_7">
    <path d="M 742.219375 449.955995 
L 742.219375 169.831757 
L 147.969375 169.831757 
L 147.969375 449.955995 
z
" clip-path="url(#p368ae45c8e)" style="fill: #fafaf8; stroke: #fafaf8; stroke-linejoin: miter"/>
   </g>
   <g id="patch_8">
    <path d="M 747.625345 481.32991 
Q 788.775571 481.32991 829.925798 481.32991 
" style="fill: none; stroke: #555555; stroke-width: 1.5; stroke-linecap: round"/>
    <path d="M 747.625345 476.32991 
L 747.625345 476.32991 
L 747.625345 486.32991 
L 747.625345 486.32991 
" style="fill: none; stroke: #555555; stroke-width: 1.5; stroke-linecap: round"/>
    <path d="M 829.925798 486.32991 
L 829.925798 486.32991 
L 829.925798 476.32991 
L 829.925798 476.32991 
" style="fill: none; stroke: #555555; stroke-width: 1.5; stroke-linecap: round"/>
   </g>
   <g id="text_17">
    <!-- 1m -->
    <g style="fill: #555555" transform="translate(783.053075 471.81928) scale(0.08 -0.08)">
     <use xlink:href="#MalgunGothic-31"/>
     <use xlink:href="#MalgunGothic-6d" transform="translate(55.078125 0)"/>
    </g>
   </g>
   <g id="text_18">
    <!-- rectangular  |  코너 4개  |  면적 22.4m²  |  층고 2.67m -->
    <g style="fill: #555555" transform="translate(334.812031 111.409395) scale(0.09 -0.09)">
     <defs>
      <path id="MalgunGothic-72" d="M 2225 2775 
Q 2084 2881 1828 2881 
Q 1491 2881 1262 2553 
Q 1034 2225 1034 1681 
L 1034 0 
L 538 0 
L 538 3284 
L 1034 3284 
L 1034 2603 
L 1047 2603 
Q 1159 2950 1389 3145 
Q 1619 3341 1903 3341 
Q 2109 3341 2225 3297 
L 2225 2775 
z
" transform="scale(0.015625)"/>
      <path id="MalgunGothic-65" d="M 3156 1519 
L 828 1519 
Q 844 950 1133 648 
Q 1422 347 1909 347 
Q 2472 347 2934 719 
L 2934 244 
Q 2494 -78 1794 -78 
Q 1100 -78 708 376 
Q 316 831 316 1634 
Q 316 2381 747 2870 
Q 1178 3359 1816 3359 
Q 2453 3359 2804 2942 
Q 3156 2525 3156 1788 
L 3156 1519 
z
M 2644 1956 
Q 2644 2416 2423 2675 
Q 2203 2934 1809 2934 
Q 1438 2934 1169 2667 
Q 900 2400 834 1956 
L 2644 1956 
z
" transform="scale(0.015625)"/>
      <path id="MalgunGothic-63" d="M 2763 153 
Q 2375 -78 1872 -78 
Q 1184 -78 750 372 
Q 316 822 316 1566 
Q 316 2381 777 2870 
Q 1238 3359 2009 3359 
Q 2434 3359 2766 3200 
L 2766 2681 
Q 2397 2941 1981 2941 
Q 1478 2941 1148 2577 
Q 819 2213 819 1609 
Q 819 1034 1120 689 
Q 1422 344 1947 344 
Q 2381 344 2763 631 
L 2763 153 
z
" transform="scale(0.015625)"/>
      <path id="MalgunGothic-74" d="M 2031 31 
Q 1844 -72 1553 -72 
Q 706 -72 706 881 
L 706 2856 
L 138 2856 
L 138 3284 
L 706 3284 
L 706 4091 
L 1200 4250 
L 1200 3284 
L 2031 3284 
L 2031 2856 
L 1200 2856 
L 1200 972 
Q 1200 625 1315 487 
Q 1431 350 1691 350 
Q 1888 350 2031 459 
L 2031 31 
z
" transform="scale(0.015625)"/>
      <path id="MalgunGothic-61" d="M 616 3050 
Q 1097 3359 1722 3359 
Q 2866 3359 2866 2147 
L 2866 0 
L 2369 0 
L 2369 516 
L 2350 516 
Q 2009 -78 1341 -78 
Q 859 -78 576 180 
Q 294 438 294 869 
Q 294 1784 1375 1934 
L 2366 2078 
Q 2366 2934 1684 2934 
Q 1084 2934 616 2525 
L 616 3050 
z
M 1563 1559 
Q 1178 1509 993 1371 
Q 809 1234 809 903 
Q 809 653 986 500 
Q 1163 347 1450 347 
Q 1847 347 2106 628 
Q 2366 909 2366 1334 
L 2366 1666 
L 1563 1559 
z
" transform="scale(0.015625)"/>
      <path id="MalgunGothic-6e" d="M 3238 0 
L 2741 0 
L 2741 1875 
Q 2741 2941 1963 2941 
Q 1563 2941 1298 2639 
Q 1034 2338 1034 1872 
L 1034 0 
L 538 0 
L 538 3284 
L 1034 3284 
L 1034 2734 
L 1047 2734 
Q 1416 3359 2125 3359 
Q 2666 3359 2952 3012 
Q 3238 2666 3238 2006 
L 3238 0 
z
" transform="scale(0.015625)"/>
      <path id="MalgunGothic-67" d="M 3313 259 
Q 3313 -1547 1603 -1547 
Q 1003 -1547 538 -1313 
L 538 -806 
Q 1088 -1116 1600 -1116 
Q 2822 -1116 2822 194 
L 2822 559 
L 2809 559 
Q 2422 -78 1675 -78 
Q 1066 -78 691 362 
Q 316 803 316 1534 
Q 316 2375 722 2867 
Q 1128 3359 1816 3359 
Q 2484 3359 2809 2822 
L 2822 2822 
L 2822 3284 
L 3313 3284 
L 3313 259 
z
M 2822 1978 
Q 2822 2378 2547 2659 
Q 2272 2941 1878 2941 
Q 1384 2941 1101 2577 
Q 819 2213 819 1572 
Q 819 1016 1092 680 
Q 1366 344 1803 344 
Q 2247 344 2534 666 
Q 2822 988 2822 1478 
L 2822 1978 
z
" transform="scale(0.015625)"/>
      <path id="MalgunGothic-75" d="M 3166 0 
L 2669 0 
L 2669 519 
L 2656 519 
Q 2331 -78 1644 -78 
Q 469 -78 469 1322 
L 469 3284 
L 959 3284 
L 959 1403 
Q 959 344 1766 344 
Q 2159 344 2414 636 
Q 2669 928 2669 1394 
L 2669 3284 
L 3166 3284 
L 3166 0 
z
" transform="scale(0.015625)"/>
      <path id="MalgunGothic-6c" d="M 541 0 
L 541 4859 
L 1034 4859 
L 1034 0 
L 541 0 
z
" transform="scale(0.015625)"/>
      <path id="MalgunGothic-7c" d="M 997 -1547 
L 544 -1547 
L 544 5019 
L 997 5019 
L 997 -1547 
z
" transform="scale(0.015625)"/>
      <path id="MalgunGothic-cf54" d="M 5006 1478 
L 4563 1528 
Q 4656 2344 4666 3047 
L 959 2797 
L 863 3244 
L 4666 3438 
L 4672 4481 
L 1147 4481 
L 1147 4891 
L 5141 4891 
L 5141 3481 
Q 5141 2375 5006 1478 
z
M 403 416 
L 403 838 
L 2656 838 
L 2656 2309 
L 3122 2309 
L 3122 838 
L 5997 838 
L 5997 416 
L 403 416 
z
" transform="scale(0.015625)"/>
      <path id="MalgunGothic-b108" d="M 4897 -563 
L 4897 3116 
L 2956 3116 
L 2956 3534 
L 4897 3534 
L 4897 5466 
L 5363 5466 
L 5363 -563 
L 4897 -563 
z
M 4269 1300 
Q 3969 1222 3333 1190 
Q 2697 1159 903 1159 
L 903 5013 
L 1369 5013 
L 1369 1575 
L 1778 1575 
Q 3659 1575 4219 1691 
L 4269 1300 
z
" transform="scale(0.015625)"/>
      <path id="MalgunGothic-ac1c" d="M 5038 -563 
L 5038 2431 
L 4288 2431 
L 4288 -378 
L 3828 -378 
L 3828 5344 
L 4288 5344 
L 4288 2847 
L 5038 2847 
L 5038 5466 
L 5503 5466 
L 5503 -563 
L 5038 -563 
z
M 3078 4941 
Q 2981 2394 813 878 
L 441 1197 
Q 1263 1634 1891 2575 
Q 2519 3516 2584 4531 
L 800 4531 
L 800 4941 
L 3078 4941 
z
" transform="scale(0.015625)"/>
      <path id="MalgunGothic-ba74" d="M 4953 1063 
L 4953 2753 
L 3750 2753 
L 3750 2163 
L 984 2163 
L 984 5125 
L 3750 5125 
L 3750 4531 
L 4953 4531 
L 4953 5466 
L 5422 5466 
L 5422 1063 
L 4953 1063 
z
M 3284 4709 
L 1453 4709 
L 1453 2578 
L 3284 2578 
L 3284 4709 
z
M 4953 4128 
L 3750 4128 
L 3750 3156 
L 4953 3156 
L 4953 4128 
z
M 1734 -391 
L 1734 1509 
L 2203 1509 
L 2203 25 
L 5606 25 
L 5606 -391 
L 1734 -391 
z
" transform="scale(0.015625)"/>
      <path id="MalgunGothic-c801" d="M 4884 1991 
L 4884 3688 
L 3444 3688 
L 3444 4109 
L 4884 4109 
L 4884 5466 
L 5350 5466 
L 5350 1991 
L 4884 1991 
z
M 3653 2297 
Q 3244 2519 2830 2911 
Q 2416 3303 2253 3647 
Q 2084 3263 1665 2819 
Q 1247 2375 819 2144 
L 488 2463 
Q 1147 2781 1578 3361 
Q 2009 3941 2009 4575 
L 2009 4781 
L 684 4781 
L 684 5197 
L 3788 5197 
L 3788 4781 
L 2463 4781 
L 2463 4575 
Q 2463 3981 2911 3434 
Q 3359 2888 3969 2638 
L 3653 2297 
z
M 4884 -563 
L 4884 1234 
L 1428 1234 
L 1428 1650 
L 5350 1650 
L 5350 -563 
L 4884 -563 
z
" transform="scale(0.015625)"/>
      <path id="MalgunGothic-b2" d="M 2097 1872 
L 328 1872 
L 328 2228 
L 1100 2988 
Q 1422 3303 1522 3472 
Q 1622 3641 1622 3853 
Q 1622 4047 1498 4164 
Q 1375 4281 1169 4281 
Q 788 4281 478 3953 
L 478 4419 
Q 741 4663 1228 4663 
Q 1597 4663 1819 4450 
Q 2041 4238 2041 3894 
Q 2041 3406 1388 2778 
L 850 2266 
L 850 2250 
L 2097 2250 
L 2097 1872 
z
" transform="scale(0.015625)"/>
      <path id="MalgunGothic-ce35" d="M 5466 3116 
Q 4794 3184 4103 3512 
Q 3413 3841 3206 4141 
Q 2972 3816 2308 3505 
Q 1644 3194 966 3122 
L 697 3547 
Q 1359 3547 2046 3836 
Q 2734 4125 2919 4538 
L 1056 4538 
L 1056 4953 
L 2969 4953 
L 2969 5516 
L 3444 5516 
L 3444 4953 
L 5344 4953 
L 5344 4538 
L 3481 4538 
Q 3669 4119 4353 3836 
Q 5038 3553 5703 3553 
L 5466 3116 
z
M 403 2203 
L 403 2619 
L 5997 2619 
L 5997 2203 
L 403 2203 
z
M 3200 -500 
Q 2263 -500 1766 -200 
Q 1269 100 1269 628 
Q 1269 1144 1767 1442 
Q 2266 1741 3200 1741 
Q 4134 1741 4632 1442 
Q 5131 1144 5131 628 
Q 5131 100 4634 -200 
Q 4138 -500 3200 -500 
z
M 3200 1344 
Q 2481 1344 2117 1155 
Q 1753 966 1753 628 
Q 1753 284 2123 90 
Q 2494 -103 3200 -103 
Q 3903 -103 4275 90 
Q 4647 284 4647 628 
Q 4647 966 4281 1155 
Q 3916 1344 3200 1344 
z
" transform="scale(0.015625)"/>
      <path id="MalgunGothic-ace0" d="M 4959 1656 
L 4506 1697 
Q 4616 2694 4616 3534 
L 4616 4475 
L 1216 4475 
L 1216 4897 
L 5081 4897 
L 5081 3525 
Q 5081 2613 4959 1656 
z
M 403 513 
L 403 934 
L 2625 934 
L 2625 2900 
L 3091 2900 
L 3091 934 
L 5997 934 
L 5997 513 
L 403 513 
z
" transform="scale(0.015625)"/>
      <path id="MalgunGothic-36" d="M 2981 4069 
Q 2619 4250 2228 4250 
Q 1591 4250 1228 3689 
Q 866 3128 869 2213 
L 884 2213 
Q 1203 2872 1938 2872 
Q 2547 2872 2903 2478 
Q 3259 2084 3259 1450 
Q 3259 797 2857 359 
Q 2456 -78 1825 -78 
Q 1116 -78 736 478 
Q 356 1034 356 2019 
Q 356 3181 847 3928 
Q 1338 4675 2222 4675 
Q 2700 4675 2981 4544 
L 2981 4069 
z
M 906 1506 
Q 906 1022 1165 683 
Q 1425 344 1844 344 
Q 2247 344 2498 645 
Q 2750 947 2750 1388 
Q 2750 1888 2509 2167 
Q 2269 2447 1838 2447 
Q 1444 2447 1175 2173 
Q 906 1900 906 1506 
z
" transform="scale(0.015625)"/>
      <path id="MalgunGothic-37" d="M 3213 4297 
Q 2478 3006 2064 1918 
Q 1650 831 1550 0 
L 1009 0 
Q 1084 531 1290 1176 
Q 1497 1822 1815 2537 
Q 2134 3253 2631 4147 
L 291 4147 
L 291 4600 
L 3213 4600 
L 3213 4297 
z
" transform="scale(0.015625)"/>
     </defs>
     <use xlink:href="#MalgunGothic-72"/>
     <use xlink:href="#MalgunGothic-65" transform="translate(33.976562 0)"/>
     <use xlink:href="#MalgunGothic-63" transform="translate(87.492188 0)"/>
     <use xlink:href="#MalgunGothic-74" transform="translate(134.757812 0)"/>
     <use xlink:href="#MalgunGothic-61" transform="translate(169.230469 0)"/>
     <use xlink:href="#MalgunGothic-6e" transform="translate(221.232422 0)"/>
     <use xlink:href="#MalgunGothic-67" transform="translate(279.044922 0)"/>
     <use xlink:href="#MalgunGothic-75" transform="translate(339.25 0)"/>
     <use xlink:href="#MalgunGothic-6c" transform="translate(397.0625 0)"/>
     <use xlink:href="#MalgunGothic-61" transform="translate(421.671875 0)"/>
     <use xlink:href="#MalgunGothic-72" transform="translate(473.673828 0)"/>
     <use xlink:href="#MalgunGothic-20" transform="translate(509.025391 0)"/>
     <use xlink:href="#MalgunGothic-20" transform="translate(544.181641 0)"/>
     <use xlink:href="#MalgunGothic-7c" transform="translate(579.337891 0)"/>
     <use xlink:href="#MalgunGothic-20" transform="translate(603.263672 0)"/>
     <use xlink:href="#MalgunGothic-20" transform="translate(638.419922 0)"/>
     <use xlink:href="#MalgunGothic-cf54" transform="translate(673.576172 0)"/>
     <use xlink:href="#MalgunGothic-b108" transform="translate(773.576172 0)"/>
     <use xlink:href="#MalgunGothic-20" transform="translate(873.576172 0)"/>
     <use xlink:href="#MalgunGothic-34" transform="translate(908.732422 0)"/>
     <use xlink:href="#MalgunGothic-ac1c" transform="translate(963.810547 0)"/>
     <use xlink:href="#MalgunGothic-20" transform="translate(1063.810547 0)"/>
     <use xlink:href="#MalgunGothic-20" transform="translate(1098.966797 0)"/>
     <use xlink:href="#MalgunGothic-7c" transform="translate(1134.123047 0)"/>
     <use xlink:href="#MalgunGothic-20" transform="translate(1158.048828 0)"/>
     <use xlink:href="#MalgunGothic-20" transform="translate(1193.205078 0)"/>
     <use xlink:href="#MalgunGothic-ba74" transform="translate(1228.361328 0)"/>
     <use xlink:href="#MalgunGothic-c801" transform="translate(1328.361328 0)"/>
     <use xlink:href="#MalgunGothic-20" transform="translate(1428.361328 0)"/>
     <use xlink:href="#MalgunGothic-32" transform="translate(1463.517578 0)"/>
     <use xlink:href="#MalgunGothic-32" transform="translate(1518.595703 0)"/>
     <use xlink:href="#MalgunGothic-2e" transform="translate(1573.673828 0)"/>
     <use xlink:href="#MalgunGothic-34" transform="translate(1595.548828 0)"/>
     <use xlink:href="#MalgunGothic-6d" transform="translate(1650.626953 0)"/>
     <use xlink:href="#MalgunGothic-b2" transform="translate(1738.615234 0)"/>
     <use xlink:href="#MalgunGothic-20" transform="translate(1775.919922 0)"/>
     <use xlink:href="#MalgunGothic-20" transform="translate(1811.076172 0)"/>
     <use xlink:href="#MalgunGothic-7c" transform="translate(1846.232422 0)"/>
     <use xlink:href="#MalgunGothic-20" transform="translate(1870.158203 0)"/>
     <use xlink:href="#MalgunGothic-20" transform="translate(1905.314453 0)"/>
     <use xlink:href="#MalgunGothic-ce35" transform="translate(1940.470703 0)"/>
     <use xlink:href="#MalgunGothic-ace0" transform="translate(2040.470703 0)"/>
     <use xlink:href="#MalgunGothic-20" transform="translate(2140.470703 0)"/>
     <use xlink:href="#MalgunGothic-32" transform="translate(2175.626953 0)"/>
     <use xlink:href="#MalgunGothic-2e" transform="translate(2230.705078 0)"/>
     <use xlink:href="#MalgunGothic-36" transform="translate(2252.580078 0)"/>
     <use xlink:href="#MalgunGothic-37" transform="translate(2307.658203 0)"/>
     <use xlink:href="#MalgunGothic-6d" transform="translate(2362.736328 0)"/>
    </g>
   </g>
   <g id="line2d_127">
    <path d="M 742.219375 449.955995 
L 742.219375 169.831757 
L 147.969375 169.831757 
L 147.969375 449.955995 
L 742.219375 449.955995 
" clip-path="url(#p368ae45c8e)" style="fill: none; stroke: #1a1a1a; stroke-width: 2.5; stroke-linecap: square"/>
   </g>
   <g id="line2d_128">
    <path d="M 742.219375 449.955995 
L 772.423775 449.955995 
" clip-path="url(#p368ae45c8e)" style="fill: none; stroke-dasharray: 2.59,1.12; stroke-dashoffset: 0; stroke: #e63946; stroke-width: 0.7"/>
   </g>
   <g id="line2d_129">
    <path d="M 742.219375 169.831757 
L 772.423775 169.831757 
" clip-path="url(#p368ae45c8e)" style="fill: none; stroke-dasharray: 2.59,1.12; stroke-dashoffset: 0; stroke: #e63946; stroke-width: 0.7"/>
   </g>
   <g id="line2d_130">
    <path d="M 742.219375 169.831757 
L 742.219375 139.627357 
" clip-path="url(#p368ae45c8e)" style="fill: none; stroke-dasharray: 2.59,1.12; stroke-dashoffset: 0; stroke: #e63946; stroke-width: 0.7"/>
   </g>
   <g id="line2d_131">
    <path d="M 147.969375 169.831757 
L 147.969375 139.627357 
" clip-path="url(#p368ae45c8e)" style="fill: none; stroke-dasharray: 2.59,1.12; stroke-dashoffset: 0; stroke: #e63946; stroke-width: 0.7"/>
   </g>
   <g id="line2d_132">
    <path d="M 147.969375 169.831757 
L 117.764975 169.831757 
" clip-path="url(#p368ae45c8e)" style="fill: none; stroke-dasharray: 2.59,1.12; stroke-dashoffset: 0; stroke: #e63946; stroke-width: 0.7"/>
   </g>
   <g id="line2d_133">
    <path d="M 147.969375 449.955995 
L 117.764975 449.955995 
" clip-path="url(#p368ae45c8e)" style="fill: none; stroke-dasharray: 2.59,1.12; stroke-dashoffset: 0; stroke: #e63946; stroke-width: 0.7"/>
   </g>
   <g id="line2d_134">
    <path d="M 147.969375 449.955995 
L 147.969375 480.160395 
" clip-path="url(#p368ae45c8e)" style="fill: none; stroke-dasharray: 2.59,1.12; stroke-dashoffset: 0; stroke: #e63946; stroke-width: 0.7"/>
   </g>
   <g id="line2d_135">
    <path d="M 742.219375 449.955995 
L 742.219375 480.160395 
" clip-path="url(#p368ae45c8e)" style="fill: none; stroke-dasharray: 2.59,1.12; stroke-dashoffset: 0; stroke: #e63946; stroke-width: 0.7"/>
   </g>
   <g id="patch_9">
    <path d="M 772.423775 446.61823 
Q 772.423775 309.895252 772.423775 173.172274 
" style="fill: none; stroke: #e63946; stroke-width: 1.2; stroke-linecap: round"/>
    <path d="M 774.023775 443.41823 
L 772.423775 446.61823 
L 770.823775 443.41823 
" style="fill: none; stroke: #e63946; stroke-width: 1.2; stroke-linecap: round"/>
    <path d="M 770.823775 176.372274 
L 772.423775 173.172274 
L 774.023775 176.372274 
" style="fill: none; stroke: #e63946; stroke-width: 1.2; stroke-linecap: round"/>
   </g>
   <g id="patch_10">
    <path d="M 738.878343 139.627357 
Q 445.09553 139.627357 151.312717 139.627357 
" style="fill: none; stroke: #e63946; stroke-width: 1.2; stroke-linecap: round"/>
    <path d="M 735.678343 138.027357 
L 738.878343 139.627357 
L 735.678343 141.227357 
" style="fill: none; stroke: #e63946; stroke-width: 1.2; stroke-linecap: round"/>
    <path d="M 154.512717 141.227357 
L 151.312717 139.627357 
L 154.512717 138.027357 
" style="fill: none; stroke: #e63946; stroke-width: 1.2; stroke-linecap: round"/>
   </g>
   <g id="patch_11">
    <path d="M 117.764975 173.169523 
Q 117.764975 309.892501 117.764975 446.615478 
" style="fill: none; stroke: #e63946; stroke-width: 1.2; stroke-linecap: round"/>
    <path d="M 116.164975 176.369523 
L 117.764975 173.169523 
L 119.364975 176.369523 
" style="fill: none; stroke: #e63946; stroke-width: 1.2; stroke-linecap: round"/>
    <path d="M 119.364975 443.415478 
L 117.764975 446.615478 
L 116.164975 443.415478 
" style="fill: none; stroke: #e63946; stroke-width: 1.2; stroke-linecap: round"/>
   </g>
   <g id="patch_12">
    <path d="M 151.310407 480.160395 
Q 445.09322 480.160395 738.876033 480.160395 
" style="fill: none; stroke: #e63946; stroke-width: 1.2; stroke-linecap: round"/>
    <path d="M 154.510407 481.760395 
L 151.310407 480.160395 
L 154.510407 478.560395 
" style="fill: none; stroke: #e63946; stroke-width: 1.2; stroke-linecap: round"/>
    <path d="M 735.676033 478.560395 
L 738.876033 480.160395 
L 735.676033 481.760395 
" style="fill: none; stroke: #e63946; stroke-width: 1.2; stroke-linecap: round"/>
   </g>
   <g id="text_19">
    <g id="patch_13">
     <path d="M 778.254088 323.050048 
L 778.254088 296.737704 
Q 778.254088 295.387704 776.904088 295.387704 
L 767.943463 295.387704 
Q 766.593463 295.387704 766.593463 296.737704 
L 766.593463 323.050048 
Q 766.593463 324.400048 767.943463 324.400048 
L 776.904088 324.400048 
Q 778.254088 324.400048 778.254088 323.050048 
z
" style="fill: #ffffff; opacity: 0.85"/>
    </g>
    <!-- 3.25m -->
    <g style="fill: #e63946" transform="translate(774.776431 323.050048) rotate(-90) scale(0.09 -0.09)">
     <defs>
      <path id="MalgunGothicBold-33" d="M 456 947 
Q 922 600 1531 600 
Q 1931 600 2175 783 
Q 2419 966 2419 1306 
Q 2419 2022 1338 2022 
L 931 2022 
L 931 2703 
L 1309 2703 
Q 2278 2703 2278 3372 
Q 2278 3997 1534 3997 
Q 1069 3997 631 3691 
L 631 4425 
Q 1100 4675 1738 4675 
Q 2372 4675 2769 4375 
Q 3166 4075 3166 3544 
Q 3166 2647 2250 2406 
L 2250 2394 
Q 2728 2344 3018 2042 
Q 3309 1741 3309 1313 
Q 3309 659 2836 289 
Q 2363 -81 1581 -81 
Q 894 -81 456 156 
L 456 947 
z
" transform="scale(0.015625)"/>
      <path id="MalgunGothicBold-2e" d="M 309 400 
Q 309 609 467 743 
Q 625 878 841 878 
Q 1056 878 1209 743 
Q 1363 609 1363 400 
Q 1363 188 1209 55 
Q 1056 -78 828 -78 
Q 613 -78 461 59 
Q 309 197 309 400 
z
" transform="scale(0.015625)"/>
      <path id="MalgunGothicBold-32" d="M 1322 734 
L 3272 734 
L 3272 0 
L 400 0 
L 400 347 
Q 400 719 526 1033 
Q 653 1347 889 1620 
Q 1125 1894 1881 2459 
Q 2175 2678 2303 2878 
Q 2431 3078 2431 3325 
Q 2431 3631 2251 3801 
Q 2072 3972 1694 3972 
Q 1103 3972 559 3503 
L 559 4288 
Q 1116 4675 1819 4675 
Q 2531 4675 2920 4328 
Q 3309 3981 3309 3369 
Q 3309 3053 3207 2809 
Q 3106 2566 2939 2367 
Q 2772 2169 2555 1998 
Q 2338 1828 2109 1659 
Q 1688 1347 1505 1125 
Q 1322 903 1322 734 
z
" transform="scale(0.015625)"/>
      <path id="MalgunGothicBold-35" d="M 472 138 
L 472 928 
Q 681 769 948 684 
Q 1216 600 1472 600 
Q 1913 600 2166 812 
Q 2419 1025 2419 1403 
Q 2419 1797 2151 1976 
Q 1884 2156 1331 2156 
Q 956 2156 544 2091 
L 716 4600 
L 3097 4600 
L 3097 3875 
L 1434 3875 
L 1356 2806 
Q 1706 2847 1819 2847 
Q 2491 2847 2898 2478 
Q 3306 2109 3306 1497 
Q 3306 756 2837 337 
Q 2369 -81 1556 -81 
Q 875 -81 472 138 
z
" transform="scale(0.015625)"/>
      <path id="MalgunGothicBold-6d" d="M 5509 0 
L 4641 0 
L 4641 1875 
Q 4641 2684 4053 2684 
Q 3781 2684 3598 2439 
Q 3416 2194 3416 1850 
L 3416 0 
L 2547 0 
L 2547 1909 
Q 2547 2684 1963 2684 
Q 1684 2684 1506 2454 
Q 1328 2225 1328 1841 
L 1328 0 
L 456 0 
L 456 3284 
L 1328 3284 
L 1328 2766 
L 1338 2766 
Q 1706 3363 2391 3363 
Q 3084 3363 3334 2731 
Q 3709 3363 4431 3363 
Q 5509 3363 5509 2038 
L 5509 0 
z
" transform="scale(0.015625)"/>
     </defs>
     <use xlink:href="#MalgunGothicBold-33"/>
     <use xlink:href="#MalgunGothicBold-2e" transform="translate(57.958984 0)"/>
     <use xlink:href="#MalgunGothicBold-32" transform="translate(84.130859 0)"/>
     <use xlink:href="#MalgunGothicBold-35" transform="translate(142.089844 0)"/>
     <use xlink:href="#MalgunGothicBold-6d" transform="translate(200.048828 0)"/>
    </g>
   </g>
   <g id="text_20">
    <g id="patch_14">
     <path d="M 431.938203 145.45767 
L 458.250547 145.45767 
Q 459.600547 145.45767 459.600547 144.10767 
L 459.600547 135.147045 
Q 459.600547 133.797045 458.250547 133.797045 
L 431.938203 133.797045 
Q 430.588203 133.797045 430.588203 135.147045 
L 430.588203 144.10767 
Q 430.588203 145.45767 431.938203 145.45767 
z
" style="fill: #ffffff; opacity: 0.85"/>
    </g>
    <!-- 6.89m -->
    <g style="fill: #e63946" transform="translate(431.938203 141.980013) scale(0.09 -0.09)">
     <defs>
      <path id="MalgunGothicBold-36" d="M 3166 3803 
Q 2819 3997 2406 3997 
Q 1853 3997 1526 3548 
Q 1200 3100 1200 2400 
L 1219 2400 
Q 1547 2934 2209 2934 
Q 2791 2934 3134 2539 
Q 3478 2144 3478 1509 
Q 3478 813 3040 366 
Q 2603 -81 1931 -81 
Q 1153 -81 742 491 
Q 331 1063 331 2047 
Q 331 3213 868 3944 
Q 1406 4675 2356 4675 
Q 2881 4675 3166 4547 
L 3166 3803 
z
M 1231 1509 
Q 1231 1138 1422 869 
Q 1613 600 1934 600 
Q 2250 600 2434 840 
Q 2619 1081 2619 1447 
Q 2619 2272 1931 2272 
Q 1622 2272 1426 2055 
Q 1231 1838 1231 1509 
z
" transform="scale(0.015625)"/>
      <path id="MalgunGothicBold-38" d="M 313 1238 
Q 313 1634 536 1945 
Q 759 2256 1181 2409 
Q 847 2581 655 2851 
Q 463 3122 463 3453 
Q 463 3794 645 4073 
Q 828 4353 1159 4514 
Q 1491 4675 1891 4675 
Q 2294 4675 2628 4517 
Q 2963 4359 3145 4082 
Q 3328 3806 3328 3466 
Q 3328 2788 2572 2431 
Q 2991 2281 3223 1972 
Q 3456 1663 3456 1247 
Q 3456 638 3029 278 
Q 2603 -81 1881 -81 
Q 1169 -81 741 276 
Q 313 634 313 1238 
z
M 1147 1294 
Q 1147 947 1344 756 
Q 1541 566 1884 566 
Q 2238 566 2431 758 
Q 2625 950 2625 1294 
Q 2625 1609 2415 1829 
Q 2206 2050 1884 2050 
Q 1569 2050 1358 1836 
Q 1147 1622 1147 1294 
z
M 1288 3391 
Q 1288 3119 1466 2925 
Q 1644 2731 1897 2731 
Q 2156 2731 2334 2926 
Q 2513 3122 2513 3391 
Q 2513 3694 2347 3861 
Q 2181 4028 1897 4028 
Q 1613 4028 1450 3859 
Q 1288 3691 1288 3391 
z
" transform="scale(0.015625)"/>
      <path id="MalgunGothicBold-39" d="M 525 831 
Q 894 600 1381 600 
Q 1953 600 2253 1011 
Q 2553 1422 2553 2144 
L 2538 2150 
Q 2241 1656 1581 1656 
Q 997 1656 631 2064 
Q 266 2472 266 3075 
Q 266 3784 706 4229 
Q 1147 4675 1847 4675 
Q 2591 4675 3000 4109 
Q 3409 3544 3409 2534 
Q 3409 1306 2896 612 
Q 2384 -81 1447 -81 
Q 909 -81 525 91 
L 525 831 
z
M 1125 3159 
Q 1125 2778 1314 2553 
Q 1503 2328 1838 2328 
Q 2138 2328 2328 2540 
Q 2519 2753 2519 3056 
Q 2519 3441 2325 3719 
Q 2131 3997 1813 3997 
Q 1497 3997 1311 3750 
Q 1125 3503 1125 3159 
z
" transform="scale(0.015625)"/>
     </defs>
     <use xlink:href="#MalgunGothicBold-36"/>
     <use xlink:href="#MalgunGothicBold-2e" transform="translate(57.958984 0)"/>
     <use xlink:href="#MalgunGothicBold-38" transform="translate(84.130859 0)"/>
     <use xlink:href="#MalgunGothicBold-39" transform="translate(142.089844 0)"/>
     <use xlink:href="#MalgunGothicBold-6d" transform="translate(200.048828 0)"/>
    </g>
   </g>
   <g id="text_21">
    <g id="patch_15">
     <path d="M 111.934662 296.737704 
L 111.934662 323.050048 
Q 111.934662 324.400048 113.284662 324.400048 
L 122.245287 324.400048 
Q 123.595287 324.400048 123.595287 323.050048 
L 123.595287 296.737704 
Q 123.595287 295.387704 122.245287 295.387704 
L 113.284662 295.387704 
Q 111.934662 295.387704 111.934662 296.737704 
z
" style="fill: #ffffff; opacity: 0.85"/>
    </g>
    <!-- 3.25m -->
    <g style="fill: #e63946" transform="translate(115.412319 296.737704) rotate(-270) scale(0.09 -0.09)">
     <use xlink:href="#MalgunGothicBold-33"/>
     <use xlink:href="#MalgunGothicBold-2e" transform="translate(57.958984 0)"/>
     <use xlink:href="#MalgunGothicBold-32" transform="translate(84.130859 0)"/>
     <use xlink:href="#MalgunGothicBold-35" transform="translate(142.089844 0)"/>
     <use xlink:href="#MalgunGothicBold-6d" transform="translate(200.048828 0)"/>
    </g>
   </g>
   <g id="text_22">
    <g id="patch_16">
     <path d="M 431.938203 485.990708 
L 458.250547 485.990708 
Q 459.600547 485.990708 459.600547 484.640708 
L 459.600547 475.680083 
Q 459.600547 474.330083 458.250547 474.330083 
L 431.938203 474.330083 
Q 430.588203 474.330083 430.588203 475.680083 
L 430.588203 484.640708 
Q 430.588203 485.990708 431.938203 485.990708 
z
" style="fill: #ffffff; opacity: 0.85"/>
    </g>
    <!-- 6.89m -->
    <g style="fill: #e63946" transform="translate(431.938203 482.513052) scale(0.09 -0.09)">
     <use xlink:href="#MalgunGothicBold-36"/>
     <use xlink:href="#MalgunGothicBold-2e" transform="translate(57.958984 0)"/>
     <use xlink:href="#MalgunGothicBold-38" transform="translate(84.130859 0)"/>
     <use xlink:href="#MalgunGothicBold-39" transform="translate(142.089844 0)"/>
     <use xlink:href="#MalgunGothicBold-6d" transform="translate(200.048828 0)"/>
    </g>
   </g>
   <g id="text_23">
    <g id="patch_17">
     <path d="M 417.471484 326.080892 
L 472.717266 326.080892 
Q 477.117266 326.080892 477.117266 321.680892 
L 477.117266 298.106861 
Q 477.117266 293.706861 472.717266 293.706861 
L 417.471484 293.706861 
Q 413.071484 293.706861 413.071484 298.106861 
L 413.071484 321.680892 
Q 413.071484 326.080892 417.471484 326.080892 
z
" style="fill: #fffbf0; opacity: 0.9; stroke: #ccaa00; stroke-width: 1.2; stroke-linejoin: miter"/>
    </g>
    <!-- 22.4 m² -->
    <g style="fill: #333333" transform="translate(424.860391 306.458267) scale(0.11 -0.11)">
     <defs>
      <path id="MalgunGothicBold-34" d="M 2969 4600 
L 2969 1653 
L 3519 1653 
L 3519 1016 
L 2969 1016 
L 2969 0 
L 2163 0 
L 2163 1016 
L 159 1016 
L 159 1688 
Q 788 2406 1325 3189 
Q 1863 3972 2147 4600 
L 2969 4600 
z
M 900 1653 
L 2163 1653 
L 2163 3434 
Q 1972 3094 1622 2592 
Q 1272 2091 900 1653 
z
" transform="scale(0.015625)"/>
      <path id="MalgunGothicBold-20" transform="scale(0.015625)"/>
      <path id="MalgunGothicBold-b2" d="M 2256 1872 
L 366 1872 
L 366 2338 
L 1153 3088 
Q 1413 3334 1488 3470 
Q 1563 3606 1563 3772 
Q 1563 3922 1463 4019 
Q 1363 4116 1197 4116 
Q 856 4116 513 3784 
L 513 4416 
Q 863 4663 1303 4663 
Q 1719 4663 1966 4445 
Q 2213 4228 2213 3853 
Q 2213 3600 2088 3373 
Q 1963 3147 1525 2759 
L 1138 2403 
L 1138 2391 
L 2256 2391 
L 2256 1872 
z
" transform="scale(0.015625)"/>
     </defs>
     <use xlink:href="#MalgunGothicBold-32"/>
     <use xlink:href="#MalgunGothicBold-32" transform="translate(57.958984 0)"/>
     <use xlink:href="#MalgunGothicBold-2e" transform="translate(115.917969 0)"/>
     <use xlink:href="#MalgunGothicBold-34" transform="translate(142.089844 0)"/>
     <use xlink:href="#MalgunGothicBold-20" transform="translate(200.048828 0)"/>
     <use xlink:href="#MalgunGothicBold-6d" transform="translate(235.205078 0)"/>
     <use xlink:href="#MalgunGothicBold-b2" transform="translate(327.539062 0)"/>
    </g>
    <!-- (H: 2.67m) -->
    <g style="fill: #333333" transform="translate(417.471484 319.080423) scale(0.11 -0.11)">
     <defs>
      <path id="MalgunGothicBold-28" d="M 1513 -1044 
Q 488 94 488 1756 
Q 488 3384 1513 4600 
L 2231 4600 
Q 1250 3334 1250 1759 
Q 1250 197 2231 -1044 
L 1513 -1044 
z
" transform="scale(0.015625)"/>
      <path id="MalgunGothicBold-48" d="M 4372 0 
L 3481 0 
L 3481 1938 
L 1438 1938 
L 1438 0 
L 547 0 
L 547 4600 
L 1438 4600 
L 1438 2709 
L 3481 2709 
L 3481 4600 
L 4372 4600 
L 4372 0 
z
" transform="scale(0.015625)"/>
      <path id="MalgunGothicBold-3a" d="M 309 2856 
Q 309 3066 468 3198 
Q 628 3331 841 3331 
Q 1056 3331 1209 3197 
Q 1363 3063 1363 2856 
Q 1363 2641 1209 2508 
Q 1056 2375 828 2375 
Q 619 2375 464 2511 
Q 309 2647 309 2856 
z
M 309 400 
Q 309 609 467 743 
Q 625 878 841 878 
Q 1056 878 1209 743 
Q 1363 609 1363 400 
Q 1363 188 1209 55 
Q 1056 -78 828 -78 
Q 613 -78 461 59 
Q 309 197 309 400 
z
" transform="scale(0.015625)"/>
      <path id="MalgunGothicBold-37" d="M 3428 4119 
Q 2688 2741 2372 1861 
Q 2056 981 1916 0 
L 1016 0 
Q 1163 922 1520 1861 
Q 1878 2800 2522 3875 
L 300 3875 
L 300 4600 
L 3428 4600 
L 3428 4119 
z
" transform="scale(0.015625)"/>
      <path id="MalgunGothicBold-29" d="M 59 -1044 
Q 1047 175 1047 1759 
Q 1047 3328 59 4600 
L 784 4600 
Q 1813 3378 1813 1756 
Q 1813 106 781 -1044 
L 59 -1044 
z
" transform="scale(0.015625)"/>
     </defs>
     <use xlink:href="#MalgunGothicBold-28"/>
     <use xlink:href="#MalgunGothicBold-48" transform="translate(35.791016 0)"/>
     <use xlink:href="#MalgunGothicBold-3a" transform="translate(112.744141 0)"/>
     <use xlink:href="#MalgunGothicBold-20" transform="translate(138.916016 0)"/>
     <use xlink:href="#MalgunGothicBold-32" transform="translate(174.072266 0)"/>
     <use xlink:href="#MalgunGothicBold-2e" transform="translate(232.03125 0)"/>
     <use xlink:href="#MalgunGothicBold-36" transform="translate(258.203125 0)"/>
     <use xlink:href="#MalgunGothicBold-37" transform="translate(316.162109 0)"/>
     <use xlink:href="#MalgunGothicBold-6d" transform="translate(374.121094 0)"/>
     <use xlink:href="#MalgunGothicBold-29" transform="translate(466.455078 0)"/>
    </g>
   </g>
  </g>
  <g id="text_24">
   <!-- lab3_detected_results Floor Plan -->
   <g style="fill: #1a1a2e" transform="translate(305.371875 19.3475) scale(0.16 -0.16)">
    <defs>
     <path id="MalgunGothicBold-6c" d="M 444 0 
L 444 4859 
L 1313 4859 
L 1313 0 
L 444 0 
z
" transform="scale(0.015625)"/>
     <path id="MalgunGothicBold-61" d="M 534 3075 
Q 756 3203 1109 3283 
Q 1463 3363 1744 3363 
Q 3075 3363 3075 2013 
L 3075 0 
L 2244 0 
L 2244 484 
L 2228 484 
Q 1897 -81 1244 -81 
Q 769 -81 491 186 
Q 213 453 213 903 
Q 213 1844 1331 1994 
L 2247 2119 
Q 2247 2747 1634 2747 
Q 1050 2747 534 2381 
L 534 3075 
z
M 1594 1500 
Q 1031 1428 1031 997 
Q 1031 803 1165 681 
Q 1300 559 1528 559 
Q 1841 559 2044 779 
Q 2247 1000 2247 1334 
L 2247 1584 
L 1594 1500 
z
" transform="scale(0.015625)"/>
     <path id="MalgunGothicBold-62" d="M 1328 409 
L 1328 0 
L 456 0 
L 456 4859 
L 1328 4859 
L 1328 2766 
L 1338 2766 
Q 1719 3363 2425 3363 
Q 3050 3363 3403 2925 
Q 3756 2488 3756 1734 
Q 3756 913 3351 416 
Q 2947 -81 2275 -81 
Q 1659 -81 1338 409 
L 1328 409 
z
M 1316 1403 
Q 1316 1063 1525 831 
Q 1734 600 2050 600 
Q 2431 600 2647 897 
Q 2863 1194 2863 1731 
Q 2863 2178 2666 2431 
Q 2469 2684 2109 2684 
Q 1763 2684 1539 2428 
Q 1316 2172 1316 1775 
L 1316 1403 
z
" transform="scale(0.015625)"/>
     <path id="MalgunGothicBold-5f" d="M 2725 -953 
L 0 -953 
L 0 -569 
L 2725 -569 
L 2725 -953 
z
" transform="scale(0.015625)"/>
     <path id="MalgunGothicBold-64" d="M 3550 0 
L 2681 0 
L 2681 484 
L 2666 484 
Q 2316 -81 1619 -81 
Q 1000 -81 628 362 
Q 256 806 256 1569 
Q 256 2378 672 2870 
Q 1088 3363 1753 3363 
Q 2400 3363 2666 2884 
L 2681 2884 
L 2681 4859 
L 3550 4859 
L 3550 0 
z
M 2694 1878 
Q 2694 2225 2481 2454 
Q 2269 2684 1947 2684 
Q 1572 2684 1355 2390 
Q 1138 2097 1138 1594 
Q 1138 1122 1347 861 
Q 1556 600 1913 600 
Q 2256 600 2475 872 
Q 2694 1144 2694 1566 
L 2694 1878 
z
" transform="scale(0.015625)"/>
     <path id="MalgunGothicBold-65" d="M 3316 1397 
L 1122 1397 
Q 1175 559 2072 559 
Q 2619 559 3047 847 
L 3047 184 
Q 2591 -81 1875 -81 
Q 1109 -81 682 362 
Q 256 806 256 1603 
Q 256 2384 714 2873 
Q 1172 3363 1859 3363 
Q 2547 3363 2931 2941 
Q 3316 2519 3316 1781 
L 3316 1397 
z
M 2494 1969 
Q 2494 2750 1850 2750 
Q 1581 2750 1376 2537 
Q 1172 2325 1122 1969 
L 2494 1969 
z
" transform="scale(0.015625)"/>
     <path id="MalgunGothicBold-74" d="M 2303 34 
Q 2081 -78 1684 -78 
Q 675 -78 675 991 
L 675 2622 
L 131 2622 
L 131 3284 
L 675 3284 
L 675 4019 
L 1544 4272 
L 1544 3284 
L 2303 3284 
L 2303 2622 
L 1544 2622 
L 1544 1144 
Q 1544 600 1972 600 
Q 2150 600 2303 700 
L 2303 34 
z
" transform="scale(0.015625)"/>
     <path id="MalgunGothicBold-63" d="M 2875 128 
Q 2522 -81 1909 -81 
Q 1172 -81 714 373 
Q 256 828 256 1563 
Q 256 2400 747 2881 
Q 1238 3363 2056 3363 
Q 2591 3363 2875 3206 
L 2875 2441 
Q 2544 2684 2144 2684 
Q 1688 2684 1413 2398 
Q 1138 2113 1138 1625 
Q 1138 1144 1397 872 
Q 1656 600 2109 600 
Q 2506 600 2875 850 
L 2875 128 
z
" transform="scale(0.015625)"/>
     <path id="MalgunGothicBold-72" d="M 2472 2481 
Q 2300 2584 2050 2584 
Q 1722 2584 1525 2317 
Q 1328 2050 1328 1600 
L 1328 0 
L 456 0 
L 456 3284 
L 1328 3284 
L 1328 2653 
L 1338 2653 
Q 1578 3341 2203 3341 
Q 2381 3341 2472 3297 
L 2472 2481 
z
" transform="scale(0.015625)"/>
     <path id="MalgunGothicBold-73" d="M 347 844 
Q 834 538 1309 538 
Q 1922 538 1922 884 
Q 1922 1125 1438 1291 
Q 731 1528 540 1758 
Q 350 1988 350 2347 
Q 350 2822 737 3092 
Q 1125 3363 1734 3363 
Q 2159 3363 2584 3228 
L 2584 2519 
Q 2200 2747 1744 2747 
Q 1503 2747 1356 2656 
Q 1209 2566 1209 2416 
Q 1209 2169 1619 2025 
Q 2084 1856 2303 1742 
Q 2522 1628 2644 1431 
Q 2766 1234 2766 969 
Q 2766 469 2367 194 
Q 1969 -81 1316 -81 
Q 766 -81 347 94 
L 347 844 
z
" transform="scale(0.015625)"/>
     <path id="MalgunGothicBold-75" d="M 3444 0 
L 2575 0 
L 2575 506 
L 2559 506 
Q 2197 -81 1553 -81 
Q 400 -81 400 1306 
L 400 3284 
L 1272 3284 
L 1272 1397 
Q 1272 600 1891 600 
Q 2194 600 2384 817 
Q 2575 1034 2575 1400 
L 2575 3284 
L 3444 3284 
L 3444 0 
z
" transform="scale(0.015625)"/>
     <path id="MalgunGothicBold-46" d="M 3109 3859 
L 1438 3859 
L 1438 2594 
L 2978 2594 
L 2978 1863 
L 1438 1863 
L 1438 0 
L 547 0 
L 547 4600 
L 3109 4600 
L 3109 3859 
z
" transform="scale(0.015625)"/>
     <path id="MalgunGothicBold-6f" d="M 256 1622 
Q 256 2428 731 2895 
Q 1206 3363 2019 3363 
Q 2803 3363 3258 2905 
Q 3713 2447 3713 1678 
Q 3713 878 3242 398 
Q 2772 -81 1969 -81 
Q 1181 -81 718 380 
Q 256 841 256 1622 
z
M 1138 1634 
Q 1138 600 1997 600 
Q 2825 600 2825 1659 
Q 2825 2684 1994 2684 
Q 1588 2684 1363 2404 
Q 1138 2125 1138 1634 
z
" transform="scale(0.015625)"/>
     <path id="MalgunGothicBold-50" d="M 1438 1631 
L 1438 0 
L 547 0 
L 547 4600 
L 2066 4600 
Q 3747 4600 3747 3159 
Q 3747 2463 3239 2038 
Q 2731 1613 1963 1631 
L 1438 1631 
z
M 1438 3891 
L 1438 2328 
L 1891 2328 
Q 2813 2328 2813 3125 
Q 2813 3891 1909 3891 
L 1438 3891 
z
" transform="scale(0.015625)"/>
     <path id="MalgunGothicBold-6e" d="M 3497 0 
L 2628 0 
L 2628 1841 
Q 2628 2684 2019 2684 
Q 1713 2684 1520 2454 
Q 1328 2225 1328 1872 
L 1328 0 
L 456 0 
L 456 3284 
L 1328 3284 
L 1328 2756 
L 1338 2756 
Q 1700 3363 2403 3363 
Q 3497 3363 3497 2009 
L 3497 0 
z
" transform="scale(0.015625)"/>
    </defs>
    <use xlink:href="#MalgunGothicBold-6c"/>
    <use xlink:href="#MalgunGothicBold-61" transform="translate(27.441406 0)"/>
    <use xlink:href="#MalgunGothicBold-62" transform="translate(81.738281 0)"/>
    <use xlink:href="#MalgunGothicBold-33" transform="translate(144.384766 0)"/>
    <use xlink:href="#MalgunGothicBold-5f" transform="translate(202.34375 0)"/>
    <use xlink:href="#MalgunGothicBold-64" transform="translate(244.921875 0)"/>
    <use xlink:href="#MalgunGothicBold-65" transform="translate(307.519531 0)"/>
    <use xlink:href="#MalgunGothicBold-74" transform="translate(362.5 0)"/>
    <use xlink:href="#MalgunGothicBold-65" transform="translate(400.427734 0)"/>
    <use xlink:href="#MalgunGothicBold-63" transform="translate(455.408203 0)"/>
    <use xlink:href="#MalgunGothicBold-74" transform="translate(504.138672 0)"/>
    <use xlink:href="#MalgunGothicBold-65" transform="translate(542.066406 0)"/>
    <use xlink:href="#MalgunGothicBold-64" transform="translate(597.046875 0)"/>
    <use xlink:href="#MalgunGothicBold-5f" transform="translate(659.644531 0)"/>
    <use xlink:href="#MalgunGothicBold-72" transform="translate(702.222656 0)"/>
    <use xlink:href="#MalgunGothicBold-65" transform="translate(741.078125 0)"/>
    <use xlink:href="#MalgunGothicBold-73" transform="translate(796.058594 0)"/>
    <use xlink:href="#MalgunGothicBold-75" transform="translate(842.25 0)"/>
    <use xlink:href="#MalgunGothicBold-6c" transform="translate(903.089844 0)"/>
    <use xlink:href="#MalgunGothicBold-74" transform="translate(930.53125 0)"/>
    <use xlink:href="#MalgunGothicBold-73" transform="translate(968.958984 0)"/>
    <use xlink:href="#MalgunGothicBold-20" transform="translate(1015.150391 0)"/>
    <use xlink:href="#MalgunGothicBold-46" transform="translate(1050.306641 0)"/>
    <use xlink:href="#MalgunGothicBold-6c" transform="translate(1102.748047 0)"/>
    <use xlink:href="#MalgunGothicBold-6f" transform="translate(1130.189453 0)"/>
    <use xlink:href="#MalgunGothicBold-6f" transform="translate(1192.152344 0)"/>
    <use xlink:href="#MalgunGothicBold-72" transform="translate(1254.115234 0)"/>
    <use xlink:href="#MalgunGothicBold-20" transform="translate(1293.470703 0)"/>
    <use xlink:href="#MalgunGothicBold-50" transform="translate(1328.626953 0)"/>
    <use xlink:href="#MalgunGothicBold-6c" transform="translate(1390.101562 0)"/>
    <use xlink:href="#MalgunGothicBold-61" transform="translate(1417.542969 0)"/>
    <use xlink:href="#MalgunGothicBold-6e" transform="translate(1471.839844 0)"/>
   </g>
  </g>
 </g>
 <defs>
  <clipPath id="p368ae45c8e">
   <rect x="41.004375" y="119.409395" width="808.18" height="380.968963"/>
  </clipPath>
 </defs>
</svg>
